M48
;Layer_Color=9474304
;FILE_FORMAT=2:5
INCH,LZ
;TYPE=PLATED
T1F00S00C0.01575
T2F00S00C0.02000
T3F00S00C0.03543
T4F00S00C0.03937
T5F00S00C0.06299
T6F00S00C0.06693
%
T01
X0304Y00325
X0316Y00305
X014Y00325
X0144Y00365
X0078Y00325
X004Y00365
X008Y0104
X00925Y01225
X009Y01255
X00925Y01285
X009Y01315
X00925Y01345
X009Y01375
X0105Y01405
X0111065Y0138665
X01175Y0136
X01225Y0133
X0126Y01275
X0129Y013
X01335Y0147
Y0171
X00935Y01795
X00965Y01935
Y02035
X0086Y019
X01845Y0147
X0235
X0383Y0234
Y0246
X01735Y0285
X0173Y03175
X0109
X0112Y0285
X00665Y025
X008Y02215
X00805Y0391
Y04125
X01134Y04098
Y0383
T02
X0373Y001
X03845Y00055
Y0017
X0395Y0023
X03945Y0009
X0382Y00315
X0377Y0029
X03965Y00445
X0372Y00195
X0359
X03575Y001
X03445
Y00195
X0327
X03305Y00095
X0315
X0311Y002
X0301
X02915
X02935Y00285
X02825
X0281Y002
X02695
X0271Y00285
X0258
X02555Y00195
X0241
X02275
X02315Y0029
X02455
X025Y00095
X0234Y0009
X02195
X0217Y00285
X02665Y001
X02825Y00095
X02985
X0203
X01985Y002
X02025Y00285
X019
X01845Y00195
X0185Y00095
X0168Y0009
X017Y002
X0175Y0028
X016Y00285
X0155Y002
X01465Y00215
X01455Y0028
X0137Y00235
X0126Y00225
Y0028
X0129Y0018
X01335Y00095
X0119
X01055
X01065Y0018
X0102Y00215
X00985Y0028
X00905Y00285
X00895Y0041
X00835
Y00505
X009
X00985Y0041
X01255
X01355Y00415
X0152Y0041
X0164
X0176Y0045
X01735Y0049
X01885Y0045
X0189Y00545
X02125Y002
X01505Y001
X0095Y00165
X00785Y00115
X00775Y00225
X0072Y0051
X00595Y0046
X0046Y00515
X0028Y0043
X00295Y00125
X0054Y0012
X00545Y00255
X00415Y0062
X00405Y0071
X00425Y0081
X00375
X00515
X00235Y00815
X0027Y00745
X00175Y00735
X00075Y0074
X00065Y00835
X00125Y00855
X00195Y00905
X0027Y0091
Y0102
X0028Y011
X0019
X00175Y01015
X0011Y01
Y01065
X00125Y01165
X002Y01205
X0028
X00285Y0129
X0022Y01295
X00215Y0139
X00275Y0138
Y0147
X0014Y0145
Y01375
X00125Y0128
X0017Y0153
X00165Y0161
X0016Y0169
X00245Y0166
X00315Y01635
X00405Y0163
X00525Y0159
X0039Y01815
X00245Y0177
X0019Y0178
Y01865
X0021Y01955
X00205Y02055
X0037Y02005
X00505Y01995
X00045Y0093
X00275Y00595
X00775Y0062
X0078Y0071
X009Y0072
X00995
X0104Y00655
X01085Y0055
X01175
X0121Y00655
X0125Y00715
X0136
X01365Y00805
X0133Y00945
X0136Y01
X01355Y0109
X01375Y01195
X01395Y01295
X01315Y01255
X01265Y01155
X0125Y01055
Y00975
X0119Y01005
X0113Y01025
X01155Y0106
Y01195
X01
X0087Y0116
X0085Y0109
X0092Y01085
X00925Y0099
X0088Y0093
Y00815
X01005Y0082
X0113Y00805
Y0076
X00905Y0062
X0071Y00815
Y00925
X00715Y01
X00745Y0135
Y0144
X00735Y0155
X0079
X0085Y01545
X0109Y017
X0115Y01835
X01155Y01895
X01105Y0192
X011Y0203
X01045Y0211
X0088Y02065
X0084Y0205
X0086Y02015
X01305Y02065
X01455Y0195
X0146Y01875
X0151
X01395Y01885
X01445Y0172
X0152Y0167
X0151Y0158
X01375Y01565
Y01515
X0175Y0151
X0181Y01545
X0186
X0202Y01525
X021Y0151
X0208Y01395
X02065Y013
X0213Y0128
X021Y012
X0209Y0106
X0208Y0084
X021Y0069
X02095Y0062
X019Y0068
X01915Y0077
Y0097
X01725Y0096
X0175Y00865
X0169Y00785
X01635
X01545Y00815
X0156Y00715
X01605Y0057
X0173Y0061
X0175Y0072
X016Y0096
X01585Y0111
X0152Y01095
X0144Y01135
X0149Y012
X01605Y01255
X016Y01345
X01655Y01305
X0179Y013
X01925Y01305
X019Y01395
X01915Y0117
X01825Y0111
X01715Y01115
X01475Y00875
X01365Y00575
X01685Y0171
X01655Y01775
X01725Y0182
X01775Y01775
X0167Y01875
X01995Y0168
X02145Y0167
X02175Y01525
X0225Y01515
Y0156
X0224Y01425
X02235Y0128
X02335Y0129
Y0122
Y01165
X0235Y011
X0243Y01095
X0246Y0117
X02535Y01125
X0254Y01005
X02535Y0087
X0253Y008
X025Y00705
Y006
X02555Y00605
X0234Y006
X02345Y00715
X0234Y0081
X0235Y00895
X0234Y0099
X02245Y0113
X0222Y0075
X03605Y01235
X0361Y01435
X036Y01625
X03685
Y01715
X036
X0377
X03855
Y0163
X0377Y01625
X0375Y0151
X0373Y01425
X03865Y01405
X03935Y01365
X0394Y0126
X0386Y0127
X03745Y0124
X03955Y0116
X03965Y0094
Y00665
X03935Y01505
X0386Y01515
X03945Y0163
Y01715
X0364Y0229
X03645Y0237
X0355Y0236
X03505Y023
X03425Y0236
X03295
X03175Y02355
X0307
X0189Y03115
X00935Y0289
X0091Y02845
X0086Y02795
X00915Y02725
X0092Y0262
X00815Y02515
X00735Y02555
X0075Y0245
X0077Y0276
X0075Y0305
X00755Y03165
Y03275
Y0341
Y0356
X0063Y0357
Y03115
X00855Y02165
X00905
X00885Y0212
X01025Y02165
X0108Y0214
X0112Y0217
X00365Y0219
X00225Y02165
Y02235
X00245Y0236
X0036Y0238
X0051Y02375
X0052Y0245
X0043Y02515
X00415Y0264
X00435Y02825
X00525Y02815
X0052Y0277
Y029
X00525Y03045
X004Y03105
X00245Y03075
Y0288
Y02695
Y02515
Y0329
X0024Y0346
X0034Y0356
X0005Y03585
X00495Y0334
X00455Y03675
X00575Y0379
X00565Y04085
X0051Y0414
X0043Y0406
Y0397
X00305Y0411
X0021Y0402
X0006Y04015
X00115Y0388
X0023Y0378
X0014Y03685
X00755Y03695
Y03795
Y039
X0068Y03905
X00715Y0413
X0075Y0415
X0394Y04125
T03
X0379921Y0046122
X0158Y0152
Y0162
Y0172
Y0182
Y0192
X00665Y01495
Y01395
Y01295
Y01195
X0379921Y0116102
Y0106024
Y0095945
Y0085866
Y006628
Y0056201
Y0135689
Y0145768
Y0155846
Y0263445
Y0273524
Y0283602
Y0303189
Y0313268
Y0323346
Y0333425
Y0353012
Y0363091
Y0373169
T04
X0199157Y0097
X0218843
X0275748Y0248
Y0266898
Y0280283
Y0299181
Y0319
Y0337898
Y0351283
Y0370181
T05
X026Y0248
Y0266898
Y0280283
Y0299181
Y0319
Y0337898
Y0351283
X0308819Y0360732
Y0328449
Y0289732
Y0257449
X026Y0370181
T06
X0365748Y0048819
Y0068504
Y0133465
Y015315
Y0266142
Y0285827
Y0350787
Y0370472
M30
