%FSLAX25Y25*%
%MOIN*%
G70*
G01*
G75*
G04 Layer_Physical_Order=1*
G04 Layer_Color=255*
%ADD10C,0.01000*%
%ADD11R,0.10799X0.08500*%
%ADD12O,0.02756X0.07480*%
%ADD13O,0.02756X0.08268*%
%ADD14O,0.07874X0.13780*%
%ADD15R,0.07087X0.10236*%
%ADD16R,0.04921X0.02756*%
%ADD17R,0.02756X0.04921*%
%ADD18R,0.07087X0.04449*%
%ADD19R,0.04449X0.07087*%
%ADD20R,0.10512X0.04724*%
%ADD21O,0.02756X0.07087*%
%ADD22R,0.01654X0.03937*%
%ADD23R,0.04921X0.13465*%
%ADD24R,0.03661X0.03858*%
%ADD25R,0.03858X0.03661*%
%ADD26O,0.07087X0.01102*%
%ADD27O,0.01102X0.07087*%
%ADD28R,0.10709X0.04567*%
%ADD29C,0.03937*%
%ADD30R,0.02362X0.05906*%
%ADD31R,0.07874X0.07874*%
%ADD32C,0.03150*%
%ADD33C,0.01969*%
%ADD34C,0.01181*%
%ADD35C,0.04724*%
%ADD36R,0.20500X1.22000*%
%ADD37R,0.44000X0.15500*%
%ADD38R,0.15000X0.07000*%
%ADD39R,0.23000X0.15000*%
%ADD40R,0.25000X0.15000*%
%ADD41C,0.05906*%
%ADD42C,0.12598*%
%ADD43O,0.10236X0.11811*%
%ADD44O,0.10236X0.11024*%
%ADD45C,0.07087*%
%ADD46C,0.11811*%
%ADD47R,0.05906X0.05906*%
%ADD48C,0.03000*%
%ADD49C,0.04000*%
%ADD50C,0.02756*%
G36*
X397884Y2115D02*
X19832D01*
Y11811D01*
X19671Y12621D01*
X19212Y13307D01*
X18526Y13765D01*
X17717Y13926D01*
X2115D01*
Y405365D01*
X17717D01*
X18526Y405526D01*
X19212Y405984D01*
X19671Y406671D01*
X19832Y407480D01*
X19832Y407480D01*
X19832Y407480D01*
Y407480D01*
Y417176D01*
X397884D01*
Y2115D01*
D02*
G37*
%LPC*%
G36*
X366748Y160386D02*
Y154150D01*
X372984D01*
X372942Y154580D01*
X372524Y155956D01*
X371846Y157225D01*
X370934Y158336D01*
X369823Y159248D01*
X368555Y159926D01*
X367179Y160343D01*
X366748Y160386D01*
D02*
G37*
G36*
X364748D02*
X364317Y160343D01*
X362941Y159926D01*
X361673Y159248D01*
X360562Y158336D01*
X359650Y157225D01*
X358972Y155956D01*
X358554Y154580D01*
X358512Y154150D01*
X364748D01*
Y160386D01*
D02*
G37*
G36*
X378921Y159702D02*
X378889Y159697D01*
X377928Y159299D01*
X377102Y158666D01*
X376468Y157840D01*
X376070Y156878D01*
X376066Y156846D01*
X378921D01*
Y159702D01*
D02*
G37*
G36*
X209949Y159500D02*
X206406D01*
Y154382D01*
X209949D01*
Y159500D01*
D02*
G37*
G36*
X204406D02*
X200862D01*
Y154382D01*
X204406D01*
Y159500D01*
D02*
G37*
G36*
X383776Y154846D02*
X380921D01*
Y151991D01*
X380953Y151995D01*
X381915Y152394D01*
X382740Y153027D01*
X383374Y153853D01*
X383772Y154815D01*
X383776Y154846D01*
D02*
G37*
G36*
X372984Y152150D02*
X366748D01*
Y145914D01*
X367179Y145956D01*
X368555Y146373D01*
X369823Y147051D01*
X370934Y147963D01*
X371846Y149075D01*
X372524Y150343D01*
X372942Y151719D01*
X372984Y152150D01*
D02*
G37*
G36*
X364748D02*
X358512D01*
X358554Y151719D01*
X358972Y150343D01*
X359650Y149075D01*
X360562Y147963D01*
X361673Y147051D01*
X362941Y146373D01*
X364317Y145956D01*
X364748Y145914D01*
Y152150D01*
D02*
G37*
G36*
X379921Y150334D02*
X378739Y150179D01*
X377638Y149723D01*
X376692Y148997D01*
X375966Y148051D01*
X375510Y146950D01*
X375355Y145768D01*
X375510Y144586D01*
X375966Y143484D01*
X376692Y142539D01*
X377638Y141813D01*
X378739Y141357D01*
X379921Y141201D01*
X381103Y141357D01*
X382205Y141813D01*
X383150Y142539D01*
X383876Y143484D01*
X384332Y144586D01*
X384488Y145768D01*
X384332Y146950D01*
X383876Y148051D01*
X383150Y148997D01*
X382205Y149723D01*
X381103Y150179D01*
X379921Y150334D01*
D02*
G37*
G36*
X378921Y154846D02*
X376066D01*
X376070Y154815D01*
X376468Y153853D01*
X377102Y153027D01*
X377928Y152394D01*
X378889Y151995D01*
X378921Y151991D01*
Y154846D01*
D02*
G37*
G36*
X205906Y151554D02*
Y148000D01*
X207330D01*
Y149362D01*
X207146Y150290D01*
X206620Y151077D01*
X205906Y151554D01*
D02*
G37*
G36*
X203906D02*
X203191Y151077D01*
X202665Y150290D01*
X202481Y149362D01*
Y148000D01*
X203906D01*
Y151554D01*
D02*
G37*
G36*
X380921Y159702D02*
Y156846D01*
X383776D01*
X383772Y156878D01*
X383374Y157840D01*
X382740Y158666D01*
X381915Y159299D01*
X380953Y159697D01*
X380921Y159702D01*
D02*
G37*
G36*
X221000Y72451D02*
X215600D01*
Y68201D01*
X221000D01*
Y72451D01*
D02*
G37*
G36*
X228400D02*
X223000D01*
Y68201D01*
X228400D01*
Y72451D01*
D02*
G37*
G36*
X142362Y174500D02*
X140532D01*
Y172571D01*
X142362D01*
Y174500D01*
D02*
G37*
G36*
X246886Y66339D02*
X246059D01*
Y64370D01*
X246886D01*
Y66339D01*
D02*
G37*
G36*
X44969Y69929D02*
X43138D01*
Y68000D01*
X44969D01*
Y69929D01*
D02*
G37*
G36*
X75862D02*
X74031D01*
Y68000D01*
X75862D01*
Y69929D01*
D02*
G37*
G36*
Y74000D02*
X74031D01*
Y72071D01*
X75862D01*
Y74000D01*
D02*
G37*
G36*
X209949Y166618D02*
X206406D01*
Y161500D01*
X209949D01*
Y166618D01*
D02*
G37*
G36*
X204406D02*
X200862D01*
Y161500D01*
X204406D01*
Y166618D01*
D02*
G37*
G36*
X44969Y74000D02*
X43138D01*
Y72071D01*
X44969D01*
Y74000D01*
D02*
G37*
G36*
X186429Y169362D02*
X184500D01*
Y167532D01*
X186429D01*
Y169362D01*
D02*
G37*
G36*
X182500D02*
X180571D01*
Y167532D01*
X182500D01*
Y169362D01*
D02*
G37*
G36*
X44969Y77929D02*
X43138D01*
Y76000D01*
X44969D01*
Y77929D01*
D02*
G37*
G36*
X217843Y101451D02*
X217657Y101426D01*
X216551Y100969D01*
X215602Y100240D01*
X214874Y99291D01*
X214416Y98186D01*
X214392Y98000D01*
X217843D01*
Y101451D01*
D02*
G37*
G36*
X208862Y123000D02*
X207032D01*
Y121071D01*
X208862D01*
Y123000D01*
D02*
G37*
G36*
X379921Y120669D02*
X378739Y120513D01*
X377638Y120057D01*
X376692Y119332D01*
X375966Y118386D01*
X375510Y117284D01*
X375355Y116102D01*
X375510Y114920D01*
X375966Y113819D01*
X376692Y112873D01*
X377638Y112148D01*
X378739Y111691D01*
X379921Y111536D01*
X381103Y111691D01*
X382205Y112148D01*
X383150Y112873D01*
X383876Y113819D01*
X384332Y114920D01*
X384488Y116102D01*
X384332Y117284D01*
X383876Y118386D01*
X383150Y119332D01*
X382205Y120057D01*
X381103Y120513D01*
X379921Y120669D01*
D02*
G37*
G36*
X364748Y132465D02*
X358512D01*
X358554Y132034D01*
X358972Y130658D01*
X359650Y129390D01*
X360562Y128278D01*
X361673Y127366D01*
X362941Y126688D01*
X364317Y126271D01*
X364748Y126229D01*
Y132465D01*
D02*
G37*
G36*
X208862Y126929D02*
X207032D01*
Y125000D01*
X208862D01*
Y126929D01*
D02*
G37*
G36*
X156862Y98929D02*
X155031D01*
Y97000D01*
X156862D01*
Y98929D01*
D02*
G37*
G36*
X219843Y101451D02*
Y98000D01*
X223293D01*
X223269Y98186D01*
X222811Y99291D01*
X222083Y100240D01*
X221134Y100969D01*
X220029Y101426D01*
X219843Y101451D01*
D02*
G37*
G36*
X174862Y103000D02*
X173031D01*
Y101071D01*
X174862D01*
Y103000D01*
D02*
G37*
G36*
X379921Y110590D02*
X378739Y110435D01*
X377638Y109978D01*
X376692Y109253D01*
X375966Y108307D01*
X375510Y107205D01*
X375355Y106024D01*
X375510Y104842D01*
X375966Y103740D01*
X376692Y102795D01*
X377638Y102069D01*
X378739Y101613D01*
X379921Y101457D01*
X381103Y101613D01*
X382205Y102069D01*
X383150Y102795D01*
X383876Y103740D01*
X384332Y104842D01*
X384488Y106024D01*
X384332Y107205D01*
X383876Y108307D01*
X383150Y109253D01*
X382205Y109978D01*
X381103Y110435D01*
X379921Y110590D01*
D02*
G37*
G36*
X100929Y112862D02*
X99000D01*
Y111032D01*
X100929D01*
Y112862D01*
D02*
G37*
G36*
X97000D02*
X95071D01*
Y111032D01*
X97000D01*
Y112862D01*
D02*
G37*
G36*
X174862Y106929D02*
X173031D01*
Y105000D01*
X174862D01*
Y106929D01*
D02*
G37*
G36*
X372984Y132465D02*
X366748D01*
Y126229D01*
X367179Y126271D01*
X368555Y126688D01*
X369823Y127366D01*
X370934Y128278D01*
X371846Y129390D01*
X372524Y130658D01*
X372942Y132034D01*
X372984Y132465D01*
D02*
G37*
G36*
X50500Y85469D02*
X48571D01*
Y83638D01*
X50500D01*
Y85469D01*
D02*
G37*
G36*
X54429D02*
X52500D01*
Y83638D01*
X54429D01*
Y85469D01*
D02*
G37*
G36*
X379921Y100511D02*
X378739Y100356D01*
X377638Y99900D01*
X376692Y99174D01*
X375966Y98228D01*
X375510Y97127D01*
X375355Y95945D01*
X375510Y94763D01*
X375966Y93661D01*
X376692Y92716D01*
X377638Y91990D01*
X378739Y91534D01*
X379921Y91378D01*
X381103Y91534D01*
X382205Y91990D01*
X383150Y92716D01*
X383876Y93661D01*
X384332Y94763D01*
X384488Y95945D01*
X384332Y97127D01*
X383876Y98228D01*
X383150Y99174D01*
X382205Y99900D01*
X381103Y100356D01*
X379921Y100511D01*
D02*
G37*
G36*
X75862Y77929D02*
X74031D01*
Y76000D01*
X75862D01*
Y77929D01*
D02*
G37*
G36*
X41500Y85469D02*
X39571D01*
Y83638D01*
X41500D01*
Y85469D01*
D02*
G37*
G36*
X45429D02*
X43500D01*
Y83638D01*
X45429D01*
Y85469D01*
D02*
G37*
G36*
X223293Y96000D02*
X219843D01*
Y92549D01*
X220029Y92574D01*
X221134Y93031D01*
X222083Y93760D01*
X222811Y94709D01*
X223269Y95814D01*
X223293Y96000D01*
D02*
G37*
G36*
X379921Y140256D02*
X378739Y140100D01*
X377638Y139644D01*
X376692Y138918D01*
X375966Y137972D01*
X375510Y136871D01*
X375355Y135689D01*
X375510Y134507D01*
X375966Y133406D01*
X376692Y132460D01*
X377638Y131734D01*
X378739Y131278D01*
X379921Y131122D01*
X381103Y131278D01*
X382205Y131734D01*
X383150Y132460D01*
X383876Y133406D01*
X384332Y134507D01*
X384488Y135689D01*
X384332Y136871D01*
X383876Y137972D01*
X383150Y138918D01*
X382205Y139644D01*
X381103Y140100D01*
X379921Y140256D01*
D02*
G37*
G36*
X156862Y95000D02*
X155031D01*
Y93071D01*
X156862D01*
Y95000D01*
D02*
G37*
G36*
X366748Y140701D02*
Y134465D01*
X372984D01*
X372942Y134896D01*
X372524Y136271D01*
X371846Y137540D01*
X370934Y138651D01*
X369823Y139563D01*
X368555Y140241D01*
X367179Y140658D01*
X366748Y140701D01*
D02*
G37*
G36*
X364748D02*
X364317Y140658D01*
X362941Y140241D01*
X361673Y139563D01*
X360562Y138651D01*
X359650Y137540D01*
X358972Y136271D01*
X358554Y134896D01*
X358512Y134465D01*
X364748D01*
Y140701D01*
D02*
G37*
G36*
X217843Y96000D02*
X214392D01*
X214416Y95814D01*
X214874Y94709D01*
X215602Y93760D01*
X216551Y93031D01*
X217657Y92574D01*
X217843Y92549D01*
Y96000D01*
D02*
G37*
G36*
X75862Y66000D02*
X74031D01*
Y64071D01*
X75862D01*
Y66000D01*
D02*
G37*
G36*
X368969Y230929D02*
X367138D01*
Y229000D01*
X368969D01*
Y230929D01*
D02*
G37*
G36*
X325429Y25469D02*
X323500D01*
Y23638D01*
X325429D01*
Y25469D01*
D02*
G37*
G36*
X321500D02*
X319571D01*
Y23638D01*
X321500D01*
Y25469D01*
D02*
G37*
G36*
X69933Y51118D02*
X62335D01*
Y49177D01*
X61172D01*
X60433Y49483D01*
X59500Y49606D01*
X58567Y49483D01*
X57828Y49177D01*
X55665D01*
Y51118D01*
X48067D01*
Y40882D01*
X55665D01*
Y42823D01*
X57828D01*
X58567Y42517D01*
X59500Y42394D01*
X60433Y42517D01*
X61172Y42823D01*
X62335D01*
Y40882D01*
X69933D01*
Y51118D01*
D02*
G37*
G36*
X80500Y415478D02*
X79729Y415377D01*
X79011Y415079D01*
X78394Y414606D01*
X77921Y413989D01*
X77623Y413271D01*
X77522Y412500D01*
X77623Y411729D01*
X77921Y411011D01*
X78394Y410394D01*
X79011Y409921D01*
X79729Y409623D01*
X80500Y409522D01*
X81271Y409623D01*
X81989Y409921D01*
X82594Y410385D01*
X110120D01*
X110449Y410009D01*
X110422Y409800D01*
X110499Y409216D01*
X110169Y408840D01*
X61030D01*
X60220Y408679D01*
X59534Y408220D01*
X5567Y354253D01*
X5109Y353567D01*
X4947Y352757D01*
Y97437D01*
X4947Y97437D01*
X4947D01*
X5109Y96627D01*
X5567Y95941D01*
X16536Y84973D01*
X16536Y84973D01*
X16536D01*
X16536Y84973D01*
X16536D01*
X16536Y84973D01*
Y84973D01*
Y84973D01*
D01*
D01*
X16536D01*
Y84973D01*
X17222Y84514D01*
X18032Y84353D01*
X29996D01*
Y83063D01*
X37004D01*
Y89126D01*
Y90416D01*
X38996D01*
Y89126D01*
X39571D01*
Y87468D01*
X45429D01*
Y89126D01*
X46004D01*
Y90416D01*
X47996D01*
Y89126D01*
X48571D01*
Y87468D01*
X54429D01*
Y89126D01*
X55004D01*
Y90416D01*
X60031D01*
X60841Y90577D01*
X61527Y91036D01*
X62604Y92112D01*
X63065Y91921D01*
Y82557D01*
X57624Y77115D01*
X55437D01*
Y78504D01*
X48626D01*
Y77929D01*
X46969D01*
Y75000D01*
Y72071D01*
X48626D01*
Y71496D01*
X49916D01*
Y70504D01*
X48626D01*
Y69929D01*
X46969D01*
Y67000D01*
Y64071D01*
X48626D01*
Y63496D01*
X49916D01*
Y60504D01*
X42563D01*
Y59115D01*
X42000D01*
X41190Y58954D01*
X40504Y58496D01*
X38638Y56630D01*
X38179Y55943D01*
X38018Y55134D01*
Y51118D01*
X36335D01*
Y40882D01*
X38018D01*
Y39173D01*
X37920Y38678D01*
X37908Y38616D01*
X37894Y38606D01*
X37421Y37989D01*
X37123Y37271D01*
X37022Y36500D01*
X37123Y35729D01*
X37421Y35011D01*
X37894Y34394D01*
X38511Y33921D01*
X39229Y33623D01*
X40000Y33522D01*
X40771Y33623D01*
X41489Y33921D01*
X42106Y34394D01*
X42579Y35011D01*
X42877Y35729D01*
X42978Y36500D01*
X42877Y37271D01*
X42579Y37989D01*
X42215Y38463D01*
X42249Y38634D01*
Y40882D01*
X43933D01*
Y51118D01*
X42249D01*
Y53496D01*
X42563D01*
Y53496D01*
X55437D01*
Y60504D01*
X54147D01*
Y63496D01*
X55437D01*
Y70504D01*
X54147D01*
Y71496D01*
X55437D01*
Y72885D01*
X58500D01*
X59310Y73046D01*
X59996Y73504D01*
X63101Y76609D01*
X63563Y76418D01*
Y71496D01*
X64853D01*
Y70504D01*
X63563D01*
Y63496D01*
X64853D01*
Y60504D01*
X63563D01*
Y53496D01*
X75885D01*
Y51118D01*
X74067D01*
Y40882D01*
X75751D01*
Y34419D01*
X75421Y33989D01*
X75123Y33271D01*
X75022Y32500D01*
X75123Y31729D01*
X75421Y31011D01*
X75894Y30394D01*
X76511Y29921D01*
X77229Y29623D01*
X78000Y29522D01*
X78771Y29623D01*
X79489Y29921D01*
X80106Y30394D01*
X80579Y31011D01*
X80877Y31729D01*
X80978Y32500D01*
X80877Y33271D01*
X80579Y33989D01*
X80106Y34606D01*
X79982Y34701D01*
Y40882D01*
X81665D01*
Y51118D01*
X80115D01*
Y56000D01*
X79954Y56810D01*
X79496Y57496D01*
X78496Y58496D01*
X77810Y58954D01*
X77000Y59115D01*
X76437D01*
Y60504D01*
X69084D01*
Y63496D01*
X70374D01*
Y64071D01*
X72031D01*
Y67000D01*
Y69929D01*
X70374D01*
Y70504D01*
X69084D01*
Y71496D01*
X70374D01*
Y72071D01*
X72031D01*
Y75000D01*
Y77929D01*
X70374D01*
Y78504D01*
X69084D01*
Y100592D01*
X88876Y120385D01*
X90407D01*
X91011Y119921D01*
X91729Y119623D01*
X92500Y119522D01*
X93271Y119623D01*
X93989Y119921D01*
X94606Y120394D01*
X95079Y121011D01*
X95377Y121729D01*
X95478Y122500D01*
X95377Y123271D01*
X95079Y123989D01*
X94606Y124606D01*
X93989Y125079D01*
X93577Y125250D01*
Y125750D01*
X93989Y125921D01*
X94606Y126394D01*
X95060Y126986D01*
X95240Y126944D01*
X95559Y126812D01*
X95593Y126643D01*
X96051Y125957D01*
X103384Y118624D01*
Y117995D01*
X102921Y117391D01*
X102623Y116672D01*
X102522Y115902D01*
Y111571D01*
X102623Y110800D01*
X102921Y110082D01*
X103394Y109465D01*
X104011Y108992D01*
X104729Y108694D01*
X105500Y108593D01*
X106271Y108694D01*
X106989Y108992D01*
X107470Y109361D01*
X107919Y109140D01*
Y106581D01*
X101504D01*
Y107374D01*
X100929D01*
Y109032D01*
X95071D01*
Y107374D01*
X94496D01*
Y106581D01*
X81485D01*
X80771Y106877D01*
X80000Y106978D01*
X79229Y106877D01*
X78511Y106579D01*
X77894Y106106D01*
X77421Y105489D01*
X77123Y104771D01*
X77022Y104000D01*
X77123Y103229D01*
X77421Y102511D01*
X77894Y101894D01*
X78511Y101421D01*
X79229Y101123D01*
X80000Y101022D01*
X80771Y101123D01*
X81485Y101419D01*
X94496D01*
Y100563D01*
X96418D01*
X96609Y100101D01*
X93504Y96996D01*
X93046Y96310D01*
X92885Y95500D01*
Y87937D01*
X91496D01*
Y81126D01*
Y75063D01*
X92885D01*
Y59114D01*
X92307D01*
Y51043D01*
X92885D01*
Y49504D01*
X91563D01*
Y42496D01*
X92853D01*
Y23031D01*
X92853Y23031D01*
X92853D01*
X93014Y22222D01*
X93473Y21536D01*
X102504Y12504D01*
X102504Y12504D01*
X102504D01*
X102504Y12504D01*
X102504D01*
X102504Y12504D01*
Y12504D01*
Y12504D01*
D01*
D01*
X102504D01*
Y12504D01*
X103191Y12046D01*
X104000Y11885D01*
X374500D01*
X375309Y12046D01*
X375996Y12504D01*
X389040Y25548D01*
X389498Y26235D01*
X389660Y27044D01*
X389660Y27044D01*
X389660Y27044D01*
Y27044D01*
Y78556D01*
X389498Y79365D01*
X389040Y80052D01*
X384341Y84751D01*
X384488Y85866D01*
X384332Y87048D01*
X383876Y88149D01*
X383150Y89095D01*
X382205Y89821D01*
X381103Y90277D01*
X379921Y90433D01*
X378739Y90277D01*
X377638Y89821D01*
X376692Y89095D01*
X375966Y88149D01*
X375510Y87048D01*
X375355Y85866D01*
X375510Y84684D01*
X375966Y83583D01*
X376692Y82637D01*
X377638Y81911D01*
X378739Y81455D01*
X379921Y81300D01*
X381103Y81455D01*
X381492Y81616D01*
X385429Y77680D01*
Y64730D01*
X384967Y64538D01*
X384341Y65164D01*
X384488Y66280D01*
X384332Y67462D01*
X383876Y68563D01*
X383150Y69509D01*
X382205Y70234D01*
X381103Y70691D01*
X379921Y70846D01*
X378739Y70691D01*
X377638Y70234D01*
X376692Y69509D01*
X376079Y68710D01*
X375606Y68871D01*
Y77500D01*
X375483Y78114D01*
X375135Y78635D01*
X374615Y78983D01*
X374000Y79106D01*
X352500D01*
X351886Y78983D01*
X351365Y78635D01*
X351017Y78114D01*
X350894Y77500D01*
Y58106D01*
X247461D01*
Y63205D01*
X237539D01*
Y58106D01*
X194000D01*
X193386Y57983D01*
X192865Y57635D01*
X192517Y57114D01*
X192394Y56500D01*
Y44500D01*
X192517Y43885D01*
X192865Y43365D01*
X193178Y43155D01*
X193033Y42677D01*
X175316D01*
X169177Y48816D01*
Y65350D01*
X172831D01*
Y73224D01*
X159169D01*
Y65350D01*
X162823D01*
Y47500D01*
X162823Y47500D01*
X162823D01*
X162932Y46678D01*
X163249Y45912D01*
X163754Y45254D01*
X169930Y39077D01*
X169739Y38615D01*
X146093D01*
X145489Y39079D01*
X144771Y39377D01*
X144000Y39478D01*
X143229Y39377D01*
X142511Y39079D01*
X141894Y38606D01*
X141421Y37989D01*
X141123Y37271D01*
X141022Y36500D01*
X141123Y35730D01*
X140770Y35377D01*
X140000Y35478D01*
X139229Y35377D01*
X138511Y35079D01*
X137894Y34606D01*
X137421Y33989D01*
X137123Y33271D01*
X137022Y32500D01*
X137123Y31729D01*
X137421Y31011D01*
X137894Y30394D01*
X138511Y29921D01*
X139229Y29623D01*
X140000Y29522D01*
X140771Y29623D01*
X141489Y29921D01*
X142094Y30385D01*
X295496D01*
Y29126D01*
X296071D01*
Y27469D01*
X301929D01*
Y29126D01*
X302504D01*
Y29474D01*
X302920Y29751D01*
X303229Y29623D01*
X304000Y29522D01*
X304771Y29623D01*
X305489Y29921D01*
X306106Y30394D01*
X306523Y30937D01*
X306996Y30776D01*
Y29126D01*
X307571D01*
Y27469D01*
X313429D01*
Y28236D01*
X313894Y28394D01*
X314511Y27921D01*
X315229Y27623D01*
X316000Y27522D01*
X316771Y27623D01*
X317489Y27921D01*
X318106Y28394D01*
X318579Y29011D01*
X318627Y29126D01*
X318996D01*
Y29126D01*
X319571D01*
Y27469D01*
X325429D01*
Y29126D01*
X326004D01*
Y29355D01*
X373532D01*
X374354Y29463D01*
X375120Y29780D01*
X375778Y30285D01*
X375778Y30285D01*
X375778Y30285D01*
X382168Y36675D01*
X382672Y37333D01*
X382990Y38099D01*
X382990Y38099D01*
X382990Y38099D01*
Y38099D01*
X383098Y38921D01*
Y42510D01*
X383504Y42801D01*
X383641Y42755D01*
Y28661D01*
X372883Y17903D01*
X138089D01*
X132147Y23845D01*
Y42996D01*
X133437D01*
Y50004D01*
X132115D01*
Y51043D01*
X133193D01*
Y59114D01*
X132115D01*
Y75063D01*
X133504D01*
Y81126D01*
Y87937D01*
X126496D01*
Y86647D01*
X115345D01*
X113998Y87994D01*
X114276Y88410D01*
X114729Y88222D01*
X115500Y88120D01*
X116271Y88222D01*
X116989Y88519D01*
X117606Y88993D01*
X117750Y89180D01*
X118250D01*
X118394Y88993D01*
X119011Y88519D01*
X119729Y88222D01*
X120500Y88120D01*
X121271Y88222D01*
X121989Y88519D01*
X122606Y88993D01*
X123079Y89609D01*
X123377Y90328D01*
X123478Y91098D01*
Y91148D01*
X127764D01*
X128573Y91309D01*
X129260Y91768D01*
X129260Y91768D01*
X129260Y91768D01*
X131996Y94504D01*
X132454Y95191D01*
X132615Y96000D01*
X132615Y96000D01*
X132615Y96000D01*
Y96000D01*
Y97063D01*
X134004D01*
Y103126D01*
Y109937D01*
X132615D01*
Y116500D01*
X132454Y117309D01*
X131996Y117996D01*
X128496Y121496D01*
X127810Y121954D01*
X127000Y122116D01*
X122904D01*
X118736Y126283D01*
X118050Y126742D01*
X117240Y126903D01*
X108117D01*
X103600Y131420D01*
Y137434D01*
X104015Y137712D01*
X104229Y137623D01*
X105000Y137522D01*
X105771Y137623D01*
X106489Y137921D01*
X107106Y138394D01*
X107413Y138794D01*
X107912Y138827D01*
X108089Y138650D01*
X108188Y137894D01*
X108486Y137176D01*
X108959Y136559D01*
X109576Y136086D01*
X110294Y135789D01*
X111065Y135687D01*
X111836Y135789D01*
X112554Y136086D01*
X113171Y136559D01*
X113278Y136699D01*
X113777Y136731D01*
X114524Y135985D01*
X114623Y135229D01*
X114921Y134511D01*
X115394Y133894D01*
X116011Y133421D01*
X116729Y133123D01*
X117500Y133022D01*
X118271Y133123D01*
X118989Y133421D01*
X119125Y133525D01*
X119558Y133275D01*
X119522Y133000D01*
X119623Y132229D01*
X119921Y131511D01*
X120394Y130894D01*
X121011Y130421D01*
X121729Y130123D01*
X122500Y130022D01*
X123271Y130123D01*
X123469Y130205D01*
X123750Y130017D01*
X123831Y129524D01*
X123421Y128989D01*
X123123Y128271D01*
X123022Y127500D01*
X123123Y126729D01*
X123421Y126011D01*
X123894Y125394D01*
X124511Y124921D01*
X125229Y124623D01*
X126000Y124522D01*
X126771Y124623D01*
X127489Y124921D01*
X128106Y125394D01*
X128579Y126011D01*
X128877Y126729D01*
X128906Y126949D01*
X129000Y127022D01*
X129771Y127123D01*
X130489Y127421D01*
X131106Y127894D01*
X131364Y128231D01*
X131864Y128214D01*
X132004Y128004D01*
X145853Y114155D01*
Y107504D01*
X144563D01*
Y100496D01*
X145853D01*
Y99504D01*
X144563D01*
Y92496D01*
X151374D01*
Y93071D01*
X153031D01*
Y96000D01*
Y98929D01*
X151374D01*
Y99504D01*
X150084D01*
Y100496D01*
X157437D01*
Y100823D01*
X162563D01*
Y100496D01*
X162792D01*
Y91650D01*
X159169D01*
Y90889D01*
X148659D01*
X148433Y90983D01*
X147500Y91106D01*
X146567Y90983D01*
X145697Y90623D01*
X144950Y90050D01*
X144377Y89303D01*
X144017Y88433D01*
X143894Y87500D01*
X144017Y86567D01*
X144377Y85697D01*
X144950Y84950D01*
X145697Y84377D01*
X146567Y84017D01*
X147500Y83894D01*
X148433Y84017D01*
X149303Y84377D01*
X149509Y84536D01*
X159169D01*
Y83776D01*
X172831D01*
Y91650D01*
X169145D01*
Y100496D01*
X169374D01*
Y101071D01*
X171031D01*
Y104000D01*
Y106929D01*
X169374D01*
Y107504D01*
X169256D01*
Y116599D01*
X169718Y116791D01*
X170744Y115764D01*
X171431Y115305D01*
X171886Y115215D01*
Y114307D01*
X179957D01*
Y115853D01*
X180996D01*
Y114563D01*
X188004D01*
Y120533D01*
X195186D01*
Y100232D01*
X194687Y99581D01*
X194171Y98336D01*
X193995Y97000D01*
X194171Y95664D01*
X194687Y94419D01*
X195029Y93973D01*
Y71780D01*
X193488D01*
Y60756D01*
X204512D01*
Y71780D01*
X202971D01*
Y93563D01*
X203628Y94419D01*
X204144Y95664D01*
X204320Y97000D01*
X204144Y98336D01*
X203628Y99581D01*
X203128Y100232D01*
Y120496D01*
X203374D01*
Y121071D01*
X205032D01*
Y124000D01*
Y126929D01*
X203374D01*
Y127504D01*
X203128D01*
Y129000D01*
Y130531D01*
X203815Y131425D01*
X204370Y132766D01*
X204559Y134205D01*
Y140110D01*
X204370Y141549D01*
X204225Y141899D01*
X204542Y142286D01*
X204906Y142213D01*
X205833Y142398D01*
X206620Y142923D01*
X207146Y143710D01*
X207330Y144638D01*
Y146000D01*
X202481D01*
Y144952D01*
X202403Y144913D01*
X201978Y145177D01*
Y149362D01*
X201877Y150133D01*
X201579Y150851D01*
X201106Y151468D01*
X200489Y151941D01*
X199771Y152239D01*
X199000Y152340D01*
X198229Y152239D01*
X197511Y151941D01*
X196894Y151468D01*
X196745Y151274D01*
X196271Y151434D01*
Y153807D01*
X198713D01*
Y167193D01*
X188477D01*
Y163677D01*
X187004D01*
Y163874D01*
X186429D01*
Y165532D01*
X180571D01*
Y163874D01*
X179996D01*
Y163677D01*
X178504D01*
Y169937D01*
X171496D01*
Y169113D01*
X171032D01*
X170363Y169025D01*
X169971Y168862D01*
X169741Y168767D01*
X169206Y168357D01*
X167175Y166325D01*
X166765Y165791D01*
X166636Y165479D01*
X166507Y165168D01*
X166419Y164500D01*
Y156569D01*
X164431Y154581D01*
X162528D01*
Y156527D01*
X153472D01*
Y149116D01*
X152376D01*
X149616Y151876D01*
Y159000D01*
X149454Y159810D01*
X148996Y160496D01*
X146022Y163470D01*
X146148Y163773D01*
X146638Y163871D01*
X150004Y160504D01*
X150690Y160046D01*
X151500Y159885D01*
X153976D01*
X154045Y159717D01*
X154771Y158771D01*
X155717Y158045D01*
X156818Y157589D01*
X158000Y157433D01*
X159182Y157589D01*
X160283Y158045D01*
X161229Y158771D01*
X161955Y159717D01*
X162411Y160818D01*
X162567Y162000D01*
X162411Y163182D01*
X161955Y164283D01*
X161229Y165229D01*
X160283Y165955D01*
X159182Y166411D01*
X158000Y166567D01*
X156818Y166411D01*
X155717Y165955D01*
X154771Y165229D01*
X154045Y164283D01*
X153976Y164116D01*
X152376D01*
X149734Y166758D01*
X152860Y169885D01*
X153976D01*
X154045Y169717D01*
X154771Y168771D01*
X155717Y168045D01*
X156818Y167589D01*
X158000Y167433D01*
X159182Y167589D01*
X160283Y168045D01*
X161229Y168771D01*
X161955Y169717D01*
X162411Y170818D01*
X162567Y172000D01*
X162411Y173182D01*
X161955Y174283D01*
X161229Y175229D01*
X160283Y175955D01*
X159182Y176411D01*
X158000Y176567D01*
X156818Y176411D01*
X155717Y175955D01*
X154771Y175229D01*
X154045Y174283D01*
X153976Y174116D01*
X151984D01*
X151175Y173954D01*
X150488Y173496D01*
X147124Y170131D01*
X136743D01*
X136413Y170507D01*
X136478Y171000D01*
X136397Y171620D01*
X136726Y171996D01*
X136874D01*
Y172571D01*
X138532D01*
Y175500D01*
Y178429D01*
X136874D01*
Y179004D01*
X130115D01*
Y179996D01*
X136874D01*
Y180571D01*
X138532D01*
Y183500D01*
Y186429D01*
X136874D01*
Y187004D01*
X135584D01*
Y187592D01*
X144876Y196885D01*
X160624D01*
X188004Y169504D01*
X188690Y169046D01*
X189500Y168885D01*
X215624D01*
X227885Y156624D01*
Y96500D01*
X227885Y96500D01*
X227885D01*
X228046Y95690D01*
X228504Y95004D01*
X231536Y91973D01*
X232222Y91514D01*
X233032Y91353D01*
X236496D01*
Y90063D01*
X237884D01*
Y84437D01*
X236496D01*
Y77626D01*
Y71563D01*
X237884D01*
Y70882D01*
X237539D01*
Y63795D01*
X244902D01*
Y64370D01*
X244902D01*
Y67339D01*
X245059D01*
Y68339D01*
X246886D01*
Y70307D01*
X245452D01*
X245261Y70769D01*
X249996Y75504D01*
X250454Y76190D01*
X250616Y77000D01*
X250616Y77000D01*
X250616Y77000D01*
Y77000D01*
Y90063D01*
X252004D01*
Y96126D01*
Y102937D01*
X250616D01*
Y108000D01*
X250454Y108809D01*
X249996Y109496D01*
X241059Y118432D01*
X241251Y118894D01*
X341000D01*
X341615Y119017D01*
X342135Y119365D01*
X342483Y119886D01*
X342606Y120500D01*
Y224500D01*
X342483Y225114D01*
X342135Y225635D01*
X341615Y225983D01*
X341000Y226106D01*
X299751D01*
X299559Y226568D01*
X299996Y227004D01*
X300454Y227691D01*
X300616Y228500D01*
Y238500D01*
X300514Y239008D01*
X300832Y239394D01*
X367138D01*
Y238000D01*
X369969D01*
Y237000D01*
X370969D01*
Y234071D01*
X372626D01*
Y233496D01*
X373984D01*
X374220Y233055D01*
X374077Y232841D01*
X373916Y232032D01*
Y231504D01*
X372626D01*
Y230929D01*
X370969D01*
Y228000D01*
Y225071D01*
X372626D01*
Y224496D01*
X379437D01*
Y225885D01*
X386150D01*
X386959Y226046D01*
X387645Y226504D01*
X396645Y235504D01*
X397104Y236191D01*
X397265Y237000D01*
Y402906D01*
X397104Y403716D01*
X396645Y404402D01*
X387051Y413996D01*
X386365Y414454D01*
X385556Y414615D01*
X82594D01*
X81989Y415079D01*
X81271Y415377D01*
X80500Y415478D01*
D02*
G37*
G36*
X368969Y227000D02*
X367138D01*
Y225071D01*
X368969D01*
Y227000D01*
D02*
G37*
G36*
X313429Y25469D02*
X311500D01*
Y23638D01*
X313429D01*
Y25469D01*
D02*
G37*
G36*
X298000D02*
X296071D01*
Y23638D01*
X298000D01*
Y25469D01*
D02*
G37*
G36*
X30000Y35048D02*
X28430Y34893D01*
X26920Y34435D01*
X25529Y33691D01*
X24309Y32691D01*
X23309Y31471D01*
X22565Y30080D01*
X22107Y28570D01*
X21952Y27000D01*
X22107Y25430D01*
X22565Y23920D01*
X23309Y22529D01*
X24309Y21309D01*
X25529Y20309D01*
X26920Y19565D01*
X28430Y19107D01*
X30000Y18952D01*
X31570Y19107D01*
X33080Y19565D01*
X34471Y20309D01*
X35691Y21309D01*
X36691Y22529D01*
X37435Y23920D01*
X37893Y25430D01*
X38048Y27000D01*
X37893Y28570D01*
X37435Y30080D01*
X36691Y31471D01*
X35691Y32691D01*
X34471Y33691D01*
X33080Y34435D01*
X31570Y34893D01*
X30000Y35048D01*
D02*
G37*
G36*
Y400548D02*
X28430Y400393D01*
X26920Y399935D01*
X25529Y399191D01*
X24309Y398190D01*
X23309Y396971D01*
X22565Y395580D01*
X22107Y394070D01*
X21952Y392500D01*
X22107Y390930D01*
X22565Y389420D01*
X23309Y388029D01*
X24309Y386809D01*
X25529Y385809D01*
X26920Y385065D01*
X28430Y384607D01*
X30000Y384452D01*
X31570Y384607D01*
X33080Y385065D01*
X34471Y385809D01*
X35691Y386809D01*
X36691Y388029D01*
X37435Y389420D01*
X37893Y390930D01*
X38048Y392500D01*
X37893Y394070D01*
X37435Y395580D01*
X36691Y396971D01*
X35691Y398190D01*
X34471Y399191D01*
X33080Y399935D01*
X31570Y400393D01*
X30000Y400548D01*
D02*
G37*
G36*
X309500Y25469D02*
X307571D01*
Y23638D01*
X309500D01*
Y25469D01*
D02*
G37*
G36*
X301929D02*
X300000D01*
Y23638D01*
X301929D01*
Y25469D01*
D02*
G37*
G36*
X368969Y236000D02*
X367138D01*
Y234071D01*
X368969D01*
Y236000D01*
D02*
G37*
G36*
X228400Y66201D02*
X223000D01*
Y61951D01*
X228400D01*
Y66201D01*
D02*
G37*
G36*
X44969Y66000D02*
X43138D01*
Y64071D01*
X44969D01*
Y66000D01*
D02*
G37*
G36*
X157000Y195855D02*
X156968Y195851D01*
X156007Y195453D01*
X155181Y194819D01*
X154547Y193993D01*
X154149Y193032D01*
X154145Y193000D01*
X157000D01*
Y195855D01*
D02*
G37*
G36*
X221000Y66201D02*
X215600D01*
Y61951D01*
X221000D01*
Y66201D01*
D02*
G37*
G36*
X159000Y195855D02*
Y193000D01*
X161855D01*
X161851Y193032D01*
X161453Y193993D01*
X160819Y194819D01*
X159993Y195453D01*
X159032Y195851D01*
X159000Y195855D01*
D02*
G37*
G36*
X161855Y191000D02*
X159000D01*
Y188145D01*
X159032Y188149D01*
X159993Y188547D01*
X160819Y189181D01*
X161453Y190007D01*
X161851Y190968D01*
X161855Y191000D01*
D02*
G37*
G36*
X158000Y186567D02*
X156818Y186411D01*
X155717Y185955D01*
X154771Y185229D01*
X154045Y184283D01*
X153589Y183182D01*
X153433Y182000D01*
X153589Y180818D01*
X154045Y179717D01*
X154771Y178771D01*
X155717Y178045D01*
X156818Y177589D01*
X158000Y177433D01*
X159182Y177589D01*
X160283Y178045D01*
X161229Y178771D01*
X161955Y179717D01*
X162411Y180818D01*
X162567Y182000D01*
X162411Y183182D01*
X161955Y184283D01*
X161229Y185229D01*
X160283Y185955D01*
X159182Y186411D01*
X158000Y186567D01*
D02*
G37*
G36*
X142362Y178429D02*
X140532D01*
Y176500D01*
X142362D01*
Y178429D01*
D02*
G37*
G36*
Y182500D02*
X140532D01*
Y180571D01*
X142362D01*
Y182500D01*
D02*
G37*
G36*
X157000Y191000D02*
X154145D01*
X154149Y190968D01*
X154547Y190007D01*
X155181Y189181D01*
X156007Y188547D01*
X156968Y188149D01*
X157000Y188145D01*
Y191000D01*
D02*
G37*
G36*
X142362Y186429D02*
X140532D01*
Y184500D01*
X142362D01*
Y186429D01*
D02*
G37*
%LPD*%
G36*
X375000Y287500D02*
X372500Y285000D01*
Y276000D01*
X350000D01*
Y283000D01*
X325000D01*
Y279000D01*
X300000D01*
Y310000D01*
X375000D01*
Y287500D01*
D02*
G37*
G36*
X91910Y287871D02*
X92046Y287191D01*
X92504Y286504D01*
X93190Y286046D01*
X93496Y285985D01*
Y279595D01*
Y273532D01*
X94885D01*
Y261876D01*
X74077Y241069D01*
X73615Y241260D01*
Y252000D01*
X73454Y252810D01*
X72996Y253496D01*
X69458Y257034D01*
X69649Y257496D01*
X70374D01*
Y258071D01*
X72031D01*
Y261000D01*
Y263929D01*
X70374D01*
Y264504D01*
X63563D01*
Y263084D01*
X60504D01*
Y263626D01*
Y270437D01*
X53496D01*
Y269147D01*
X51504D01*
Y270437D01*
X50115D01*
Y281624D01*
X52215Y283723D01*
X64039D01*
Y282295D01*
X69271D01*
X69528Y281866D01*
X69441Y281705D01*
X66598D01*
Y281130D01*
X66598D01*
Y278161D01*
X66441D01*
Y277161D01*
X64614D01*
Y275193D01*
X65548D01*
X65739Y274731D01*
X65473Y274464D01*
X65014Y273778D01*
X64853Y272968D01*
Y272504D01*
X63563D01*
Y265496D01*
X76437D01*
Y272504D01*
X75147D01*
Y272969D01*
X74986Y273778D01*
X74527Y274464D01*
X73961Y275031D01*
Y281394D01*
X86000D01*
X86615Y281517D01*
X87135Y281865D01*
X87483Y282385D01*
X87606Y283000D01*
Y285019D01*
X87956Y285065D01*
X88722Y285383D01*
X89380Y285888D01*
X91246Y287754D01*
X91423Y287984D01*
X91910Y287871D01*
D02*
G37*
G36*
X20036Y122973D02*
X20036D01*
X20036Y122973D01*
X20036D01*
X20036Y122973D01*
Y122973D01*
X20036Y122973D01*
Y122973D01*
X20722Y122514D01*
X21531Y122353D01*
X29996D01*
Y121063D01*
X37004D01*
Y127126D01*
Y128416D01*
X38996D01*
Y127126D01*
X39571D01*
Y125469D01*
X45429D01*
Y127126D01*
X46004D01*
Y128416D01*
X47996D01*
Y127126D01*
X48571D01*
Y125469D01*
X51500D01*
Y124469D01*
X52500D01*
Y121638D01*
X54429D01*
Y127126D01*
X55004D01*
Y127126D01*
X55031D01*
X55385Y126772D01*
Y116500D01*
X55384Y116500D01*
X55385D01*
X55546Y115691D01*
X56004Y115004D01*
X56899Y114109D01*
X56708Y113647D01*
X55004D01*
Y114937D01*
X47996D01*
Y113647D01*
X46004D01*
Y114937D01*
X38996D01*
Y113647D01*
X37004D01*
Y114937D01*
X29996D01*
Y108126D01*
Y107584D01*
X18758D01*
X10966Y115376D01*
Y131389D01*
X11428Y131580D01*
X20036Y122973D01*
D02*
G37*
G36*
X102300Y299800D02*
X98800D01*
Y305300D01*
X89800D01*
Y309300D01*
X102300D01*
Y299800D01*
D02*
G37*
G36*
X325000Y265000D02*
X350000D01*
Y274000D01*
X375000D01*
Y241000D01*
X300000D01*
Y278000D01*
X325000D01*
Y265000D01*
D02*
G37*
G36*
X266500Y273500D02*
X253000D01*
Y260000D01*
X266500D01*
Y235000D01*
X222500D01*
Y292000D01*
X266500D01*
Y273500D01*
D02*
G37*
G36*
X16386Y103973D02*
X16386D01*
X16386Y103973D01*
X16386D01*
X16386Y103973D01*
Y103973D01*
X16386Y103973D01*
Y103973D01*
X17072Y103514D01*
X17882Y103353D01*
X29996D01*
Y102063D01*
X37004D01*
Y108126D01*
Y109416D01*
X38996D01*
Y108126D01*
X39571D01*
Y106468D01*
X45429D01*
Y108126D01*
X46004D01*
Y109416D01*
X47996D01*
Y108126D01*
X48571D01*
Y106468D01*
X54429D01*
Y108126D01*
X55004D01*
Y109416D01*
X65771D01*
X65962Y108954D01*
X61504Y104496D01*
X61046Y103809D01*
X60885Y103000D01*
Y96376D01*
X59155Y94647D01*
X55004D01*
Y95937D01*
X47996D01*
Y94647D01*
X46004D01*
Y95937D01*
X38996D01*
Y94647D01*
X37004D01*
Y95937D01*
X29996D01*
Y89126D01*
Y88584D01*
X18908D01*
X9178Y98313D01*
Y110527D01*
X9640Y110718D01*
X16386Y103973D01*
D02*
G37*
G36*
X138884Y157624D02*
Y144000D01*
X139046Y143191D01*
X139504Y142504D01*
X141504Y140504D01*
X141504Y140504D01*
X141504D01*
X141504Y140504D01*
X141504D01*
X141504Y140504D01*
Y140504D01*
Y140504D01*
D01*
D01*
X141504D01*
Y140504D01*
X142191Y140046D01*
X143000Y139884D01*
X144563D01*
Y138496D01*
X151916D01*
Y137504D01*
X150626D01*
Y136929D01*
X148968D01*
Y134000D01*
Y131071D01*
X150626D01*
Y130496D01*
X157437D01*
Y137504D01*
X156147D01*
Y138496D01*
X157437D01*
Y139971D01*
X157809Y140046D01*
X158496Y140504D01*
X159116Y141125D01*
X162043D01*
Y140287D01*
X170114D01*
Y144885D01*
X180996D01*
Y144041D01*
X180722Y143986D01*
X180036Y143527D01*
X178961Y142453D01*
X171886D01*
Y136547D01*
X176402D01*
X176594Y136085D01*
X174624Y134116D01*
X173500D01*
X172690Y133954D01*
X172004Y133496D01*
X169004Y130496D01*
X168546Y129809D01*
X168385Y129000D01*
Y123953D01*
X167181D01*
X166901Y124068D01*
X166079Y124177D01*
X165257Y124068D01*
X164977Y123953D01*
X162043D01*
Y118047D01*
X162902D01*
Y107504D01*
X162563D01*
Y107177D01*
X157437D01*
Y107504D01*
X150084D01*
Y115031D01*
X149923Y115841D01*
X149464Y116527D01*
X135616Y130376D01*
Y144906D01*
X136079Y145511D01*
X136377Y146229D01*
X136478Y147000D01*
X136377Y147771D01*
X136079Y148489D01*
X135606Y149106D01*
X134989Y149579D01*
X134271Y149877D01*
X133500Y149978D01*
X132729Y149877D01*
X132011Y149579D01*
X131564Y149236D01*
X131115Y149457D01*
Y156000D01*
X130954Y156809D01*
X130496Y157496D01*
X128459Y159533D01*
X128650Y159995D01*
X136514D01*
X138884Y157624D01*
D02*
G37*
G36*
X375000Y312000D02*
X300000D01*
Y345000D01*
X325000D01*
Y336000D01*
X352000D01*
Y360000D01*
X375000D01*
Y312000D01*
D02*
G37*
G36*
X220000Y339000D02*
X212500Y331500D01*
Y326500D01*
X188000D01*
Y333000D01*
X183500Y337500D01*
X170000D01*
X167500Y335000D01*
Y305500D01*
X221500D01*
Y286500D01*
X216000D01*
Y295500D01*
X167500D01*
Y265000D01*
X170000Y262500D01*
X182500D01*
X188500Y268500D01*
Y275000D01*
X213500D01*
Y269000D01*
X220000Y262500D01*
Y236000D01*
X223500Y232500D01*
X266500D01*
X274500Y224500D01*
X341000D01*
Y120500D01*
X238500D01*
Y151000D01*
X217000Y172500D01*
X190000D01*
X161000Y201500D01*
X140000D01*
X128500Y213000D01*
Y217500D01*
X115500Y230500D01*
Y372000D01*
X123500Y380000D01*
X220000D01*
Y339000D01*
D02*
G37*
G36*
X188477Y153807D02*
X189918D01*
Y147000D01*
X190026Y146178D01*
X190116Y145960D01*
Y144638D01*
X190218Y143867D01*
X190515Y143149D01*
X190989Y142532D01*
X191605Y142059D01*
X192324Y141761D01*
X193095Y141660D01*
X193247Y141680D01*
X193601Y141326D01*
X193441Y140110D01*
Y134205D01*
X193630Y132766D01*
X194185Y131425D01*
X195069Y130274D01*
X195186Y130183D01*
Y129000D01*
Y128475D01*
X176157D01*
X175130Y128340D01*
X174172Y127943D01*
X173846Y127693D01*
X172838D01*
X172647Y128155D01*
X174376Y129885D01*
X175500D01*
X176310Y130046D01*
X176996Y130504D01*
X180345Y133853D01*
X180996D01*
Y132563D01*
X188004D01*
Y138626D01*
Y145437D01*
X187499D01*
X187221Y145853D01*
X187377Y146229D01*
X187478Y147000D01*
X187377Y147771D01*
X187079Y148489D01*
X186606Y149106D01*
X185989Y149579D01*
X185271Y149877D01*
X184500Y149978D01*
X183729Y149877D01*
X183011Y149579D01*
X182406Y149116D01*
X178539D01*
X178261Y149531D01*
X178483Y150067D01*
X178606Y151000D01*
X178483Y151933D01*
X178177Y152672D01*
Y157063D01*
X178504D01*
Y157323D01*
X179996D01*
Y157063D01*
X187004D01*
Y157323D01*
X188477D01*
Y153807D01*
D02*
G37*
G36*
X375000Y362000D02*
X350000D01*
Y354000D01*
X325000D01*
Y347000D01*
X300000D01*
Y385000D01*
X375000D01*
Y362000D01*
D02*
G37*
G36*
X266500Y345000D02*
X253000D01*
Y331000D01*
X266500D01*
Y306500D01*
X222500D01*
Y363000D01*
X266500D01*
Y345000D01*
D02*
G37*
G36*
X77617Y391721D02*
X77522Y391000D01*
X77623Y390229D01*
X77921Y389511D01*
X78385Y388907D01*
Y303665D01*
X75382D01*
Y302147D01*
X72504D01*
Y303437D01*
X65496D01*
Y296626D01*
Y290563D01*
X66885D01*
Y289382D01*
X64039D01*
Y287954D01*
X51338D01*
X50529Y287793D01*
X49843Y287334D01*
X46504Y283996D01*
X46046Y283310D01*
X45885Y282500D01*
Y270437D01*
X44496D01*
Y263626D01*
Y257563D01*
X45419D01*
Y253500D01*
X45507Y252832D01*
X45636Y252521D01*
X45765Y252209D01*
X46175Y251675D01*
X49675Y248175D01*
X50209Y247765D01*
X50650Y247582D01*
X50832Y247507D01*
X51500Y247419D01*
X65016D01*
X65729Y247123D01*
X66500Y247022D01*
X67271Y247123D01*
X67989Y247421D01*
X68606Y247894D01*
X68911Y248292D01*
X69385Y248131D01*
Y238904D01*
X65473Y234992D01*
X65014Y234306D01*
X64853Y233496D01*
Y229756D01*
X64044Y228947D01*
X59964Y233027D01*
X59278Y233486D01*
X58469Y233647D01*
X58004D01*
Y234937D01*
X50996D01*
Y228126D01*
Y227372D01*
X49004D01*
Y228874D01*
X48429D01*
Y230532D01*
X42571D01*
Y228874D01*
X41996D01*
Y227372D01*
X39457D01*
Y228209D01*
X31386D01*
Y222303D01*
X39457D01*
Y223141D01*
X41996D01*
Y222063D01*
X49004D01*
Y223141D01*
X50996D01*
Y222063D01*
X58004D01*
Y228126D01*
Y228351D01*
X58466Y228542D01*
X61186Y225822D01*
Y212473D01*
X60724Y212282D01*
X58978Y214027D01*
X58292Y214486D01*
X58004Y214543D01*
Y215937D01*
X50996D01*
Y209126D01*
Y208371D01*
X49004D01*
Y209874D01*
X48429D01*
Y211531D01*
X42571D01*
Y209874D01*
X41996D01*
Y208371D01*
X39457D01*
Y209209D01*
X31386D01*
Y203303D01*
X39457D01*
Y204141D01*
X41996D01*
Y203063D01*
X49004D01*
Y204141D01*
X50996D01*
Y203063D01*
X58004D01*
Y208365D01*
X58466Y208556D01*
X59398Y207624D01*
Y195456D01*
X59012Y195138D01*
X58969Y195147D01*
X58004D01*
Y196437D01*
X50996D01*
Y189626D01*
Y189096D01*
X49004D01*
Y190374D01*
X48429D01*
Y192032D01*
X42571D01*
Y190374D01*
X41996D01*
Y189096D01*
X39382D01*
Y189933D01*
X31311D01*
Y184028D01*
X39382D01*
Y184865D01*
X41996D01*
Y183563D01*
X49004D01*
Y184865D01*
X50996D01*
Y183563D01*
X58004D01*
Y189626D01*
Y190351D01*
X58466Y190542D01*
X60885Y188124D01*
Y181140D01*
X60884Y181140D01*
X60885D01*
X61046Y180330D01*
X61504Y179644D01*
X64539Y176609D01*
X64348Y176147D01*
X58004D01*
Y177437D01*
X50996D01*
Y170626D01*
Y170096D01*
X49004D01*
Y171374D01*
X48429D01*
Y173031D01*
X42571D01*
Y171374D01*
X41996D01*
Y170096D01*
X38882D01*
Y170933D01*
X30811D01*
Y165028D01*
X38882D01*
Y165865D01*
X41996D01*
Y164563D01*
X49004D01*
Y165865D01*
X50996D01*
Y164563D01*
X58004D01*
Y170626D01*
Y171916D01*
X66704D01*
X67154Y171466D01*
X66963Y171004D01*
X65126D01*
Y170429D01*
X63468D01*
Y167500D01*
Y164571D01*
X65126D01*
Y163996D01*
X71937D01*
X71937Y163996D01*
Y163996D01*
X71990Y164018D01*
X73465Y162543D01*
X73274Y162081D01*
X71937D01*
Y163004D01*
X65126D01*
Y162429D01*
X63469D01*
Y159500D01*
Y156571D01*
X65126D01*
Y155996D01*
X65126Y155996D01*
X65126D01*
X65190Y155841D01*
X64675Y155325D01*
X64265Y154791D01*
X64136Y154479D01*
X64007Y154168D01*
X63988Y154027D01*
X61972D01*
Y144973D01*
X71027D01*
Y154027D01*
X71028D01*
X70767Y154241D01*
X70767Y154241D01*
X70862Y154471D01*
X71025Y154864D01*
X71113Y155532D01*
Y155996D01*
X71937D01*
Y156919D01*
X78000D01*
X78668Y157007D01*
X79291Y157265D01*
X79326Y157292D01*
X80000D01*
X80253Y157343D01*
X80445Y157055D01*
X80958Y156712D01*
X81563Y156592D01*
X82440D01*
Y154945D01*
X82601Y154135D01*
X83059Y153449D01*
X83504Y153004D01*
X84190Y152546D01*
X85000Y152384D01*
X85809Y152546D01*
X86496Y153004D01*
X86954Y153691D01*
X87008Y153960D01*
X87506Y153911D01*
Y150063D01*
X87558Y149801D01*
Y148049D01*
X81124Y141615D01*
X70524D01*
X70455Y141783D01*
X69729Y142729D01*
X68783Y143455D01*
X67682Y143911D01*
X66500Y144067D01*
X65318Y143911D01*
X64217Y143455D01*
X63271Y142729D01*
X62545Y141783D01*
X62089Y140682D01*
X61933Y139500D01*
X62089Y138318D01*
X62545Y137217D01*
X63271Y136271D01*
X64217Y135545D01*
X65318Y135089D01*
X66500Y134933D01*
X67682Y135089D01*
X68783Y135545D01*
X69729Y136271D01*
X70455Y137217D01*
X70524Y137384D01*
X80740D01*
X80931Y136923D01*
X75624Y131615D01*
X70524D01*
X70455Y131783D01*
X69729Y132729D01*
X68783Y133455D01*
X67682Y133911D01*
X66500Y134067D01*
X65318Y133911D01*
X64217Y133455D01*
X63271Y132729D01*
X62545Y131783D01*
X62089Y130682D01*
X61933Y129500D01*
X62089Y128318D01*
X62545Y127217D01*
X62662Y127064D01*
X62610Y126957D01*
X62116Y126875D01*
X61419Y127573D01*
Y130559D01*
X61258Y131369D01*
X60799Y132055D01*
X60115Y132739D01*
Y147000D01*
X59954Y147810D01*
X59496Y148496D01*
X57964Y150027D01*
X57278Y150486D01*
X56468Y150647D01*
X55004D01*
Y151937D01*
X47996D01*
Y150647D01*
X46004D01*
Y151937D01*
X38996D01*
Y150647D01*
X37004D01*
Y151937D01*
X29996D01*
Y145126D01*
Y144584D01*
X22833D01*
X14541Y152876D01*
Y172814D01*
X15003Y173006D01*
X17784Y170225D01*
X17784Y170225D01*
X17784D01*
X17784Y170224D01*
X17784D01*
X17784Y170224D01*
Y170224D01*
Y170224D01*
D01*
D01*
X17784D01*
Y170224D01*
X18470Y169766D01*
X19280Y169605D01*
X20969D01*
Y168768D01*
X29039D01*
Y174673D01*
X20969D01*
Y173836D01*
X20156D01*
X16328Y177664D01*
Y190027D01*
X16790Y190218D01*
X17784Y189225D01*
X17784Y189225D01*
X17784D01*
X17784Y189225D01*
X17784D01*
X17784Y189225D01*
Y189225D01*
Y189225D01*
D01*
D01*
X17784D01*
Y189225D01*
X18470Y188766D01*
X19280Y188605D01*
X21469D01*
Y187768D01*
X29539D01*
Y193673D01*
X21469D01*
Y192836D01*
X20156D01*
X18328Y194664D01*
Y209527D01*
X18790Y209718D01*
X20008Y208500D01*
X20695Y208042D01*
X21504Y207880D01*
X21543D01*
Y207043D01*
X29614D01*
Y212949D01*
X21543D01*
X21543Y212949D01*
Y212949D01*
X21543Y212949D01*
X20116Y214376D01*
Y227527D01*
X20577Y227718D01*
X20796Y227500D01*
D01*
D01*
X20796D01*
X20796Y227500D01*
Y227500D01*
Y227500D01*
D01*
D01*
X20796D01*
Y227500D01*
X21482Y227042D01*
X21543Y227029D01*
Y226043D01*
X29614D01*
Y231949D01*
X22330D01*
X21903Y232376D01*
Y346911D01*
X67089Y392097D01*
X77287D01*
X77617Y391721D01*
D02*
G37*
G36*
X128384Y115624D02*
Y109937D01*
X126996D01*
Y103126D01*
Y97063D01*
X127918D01*
X128109Y96601D01*
X126888Y95379D01*
X123478D01*
Y95429D01*
X123377Y96200D01*
X123079Y96918D01*
X122606Y97535D01*
X121989Y98008D01*
X121271Y98306D01*
X120500Y98407D01*
X119729Y98306D01*
X119011Y98008D01*
X118394Y97535D01*
X118250Y97347D01*
X117750D01*
X117615Y97523D01*
Y98000D01*
X117454Y98810D01*
X116996Y99496D01*
X115496Y100996D01*
X114810Y101454D01*
X114000Y101615D01*
X110874D01*
X110713Y102089D01*
X110825Y102175D01*
X112325Y103675D01*
X112735Y104209D01*
X112864Y104521D01*
X112993Y104832D01*
X113081Y105500D01*
Y110049D01*
X113350Y110131D01*
X113587Y110154D01*
X113786Y109856D01*
X114500Y109379D01*
Y113736D01*
X116500D01*
Y109379D01*
X117214Y109856D01*
X117413Y110154D01*
X117911Y110105D01*
X117921Y110082D01*
X118394Y109465D01*
X119011Y108992D01*
X119729Y108694D01*
X120500Y108593D01*
X121271Y108694D01*
X121989Y108992D01*
X122606Y109465D01*
X123079Y110082D01*
X123377Y110800D01*
X123478Y111571D01*
Y115902D01*
X123377Y116672D01*
X123079Y117391D01*
X123044Y117436D01*
X123266Y117885D01*
X126124D01*
X128384Y115624D01*
D02*
G37*
G36*
X206000Y307000D02*
X187000D01*
Y315000D01*
X206000D01*
Y307000D01*
D02*
G37*
G36*
X120042Y205534D02*
X117536Y203027D01*
X117077Y202341D01*
X116916Y201532D01*
Y201004D01*
X115626D01*
Y200429D01*
X113969D01*
Y197500D01*
Y194571D01*
X115626D01*
Y193996D01*
X116916D01*
Y192468D01*
X117077Y191659D01*
X117536Y190973D01*
X121385Y187124D01*
Y181613D01*
X120944Y181377D01*
X120266Y181829D01*
X119437Y181994D01*
X113494D01*
Y187937D01*
X113329Y188766D01*
X112859Y189470D01*
X112156Y189940D01*
X111327Y190104D01*
X110497Y189940D01*
X110343Y189836D01*
X110188Y189940D01*
X109358Y190104D01*
X108529Y189940D01*
X108474Y189903D01*
X107989Y190025D01*
X107777Y190422D01*
X107914Y190753D01*
X108002Y191421D01*
Y204352D01*
X109646Y205996D01*
X119851D01*
X120042Y205534D01*
D02*
G37*
G36*
X102935Y96936D02*
X102921Y96918D01*
X102623Y96200D01*
X102522Y95429D01*
Y91098D01*
X102623Y90328D01*
X102921Y89609D01*
X103394Y88993D01*
X104011Y88519D01*
X104729Y88222D01*
X105500Y88120D01*
X106271Y88222D01*
X106989Y88519D01*
X107606Y88993D01*
X107750Y89180D01*
X108250D01*
X108385Y89005D01*
Y88500D01*
X108546Y87690D01*
X109004Y87004D01*
X112973Y83036D01*
X112973Y83036D01*
X112973D01*
X112973Y83035D01*
X112973D01*
X112973Y83035D01*
Y83035D01*
Y83035D01*
D01*
D01*
X112973D01*
Y83035D01*
X113659Y82577D01*
X114469Y82416D01*
X115067D01*
Y73382D01*
X122665D01*
Y76385D01*
X126496D01*
Y75063D01*
X127884D01*
Y68957D01*
X123547D01*
Y60886D01*
X127884D01*
Y59114D01*
X127287D01*
Y51043D01*
X127884D01*
Y50004D01*
X126626D01*
Y49429D01*
X124969D01*
Y46500D01*
Y43571D01*
X126626D01*
Y42996D01*
X127916D01*
Y22968D01*
X128077Y22159D01*
X128536Y21473D01*
X133431Y16577D01*
X133240Y16116D01*
X104876D01*
X97084Y23908D01*
Y42496D01*
X98374D01*
Y43071D01*
X100032D01*
Y46000D01*
Y48929D01*
X98374D01*
Y49504D01*
X97115D01*
Y51043D01*
X98212D01*
Y59114D01*
X97115D01*
Y60886D01*
X101953D01*
Y68957D01*
X97115D01*
Y75063D01*
X98504D01*
Y76385D01*
X103335D01*
Y73382D01*
X110933D01*
Y83618D01*
X103335D01*
Y80615D01*
X98504D01*
Y81126D01*
Y87937D01*
X97115D01*
Y94624D01*
X99876Y97385D01*
X102713D01*
X102935Y96936D01*
D02*
G37*
G36*
X138865Y200365D02*
X139385Y200017D01*
X139488Y199996D01*
X140000Y199894D01*
X140000Y199894D01*
X141249D01*
X141441Y199432D01*
X138824Y196816D01*
X138362Y197007D01*
Y199929D01*
X136532D01*
Y197000D01*
X134532D01*
Y199929D01*
X132874D01*
Y200504D01*
X131584D01*
Y201031D01*
X131423Y201841D01*
X130965Y202527D01*
X128615Y204876D01*
Y209961D01*
X129077Y210152D01*
X138865Y200365D01*
D02*
G37*
G36*
X374000Y40000D02*
X352500D01*
Y44500D01*
X194000D01*
Y56500D01*
X352500D01*
Y77500D01*
X374000D01*
Y40000D01*
D02*
G37*
G36*
X232885Y144906D02*
Y133000D01*
X233046Y132191D01*
X233504Y131504D01*
X234672Y130336D01*
Y119713D01*
X234833Y118903D01*
X235292Y118217D01*
X246385Y107124D01*
Y102937D01*
X244996D01*
Y96126D01*
Y90063D01*
X246385D01*
Y77876D01*
X243966Y75458D01*
X243504Y75649D01*
Y77626D01*
Y84437D01*
X242115D01*
Y90063D01*
X243504D01*
Y96874D01*
X242929D01*
Y98531D01*
X237071D01*
Y96874D01*
X236496D01*
Y95584D01*
X233908D01*
X232116Y97376D01*
Y145131D01*
X232589Y145292D01*
X232885Y144906D01*
D02*
G37*
G36*
X20461Y140973D02*
X21147Y140514D01*
X21957Y140353D01*
X29996D01*
Y139063D01*
X37004D01*
Y145126D01*
Y146416D01*
X38996D01*
Y145126D01*
X39571D01*
Y143468D01*
X45429D01*
Y145126D01*
X46004D01*
Y146416D01*
X47996D01*
Y145126D01*
X48571D01*
Y143468D01*
X54429D01*
Y145126D01*
X55004D01*
Y146416D01*
X55592D01*
X55885Y146124D01*
Y132963D01*
X55500Y132647D01*
X55004D01*
Y133937D01*
X47996D01*
Y132647D01*
X46004D01*
Y133937D01*
X38996D01*
Y132647D01*
X37004D01*
Y133937D01*
X29996D01*
Y127126D01*
Y126584D01*
X22408D01*
X12753Y136238D01*
Y148027D01*
X13215Y148218D01*
X20461Y140973D01*
D02*
G37*
G36*
X116451Y216899D02*
Y213004D01*
X109563D01*
Y212081D01*
X109500D01*
X108832Y211993D01*
X108209Y211735D01*
X107675Y211325D01*
X103596Y207246D01*
X103410Y207004D01*
X102937Y207165D01*
Y213004D01*
X90063D01*
Y205996D01*
X90851D01*
X91042Y205534D01*
X90280Y204771D01*
X89821Y204085D01*
X89660Y203276D01*
Y203028D01*
X89020D01*
Y195615D01*
X83406D01*
Y197004D01*
X76053D01*
Y197996D01*
X77342D01*
Y198571D01*
X79000D01*
Y201500D01*
Y204429D01*
X77342D01*
Y205004D01*
X76053D01*
Y205996D01*
X83406D01*
Y213004D01*
X82581D01*
Y218919D01*
X114431D01*
X116451Y216899D01*
D02*
G37*
%LPC*%
G36*
X122969Y45500D02*
X121138D01*
Y43571D01*
X122969D01*
Y45500D01*
D02*
G37*
G36*
X103862Y48929D02*
X102032D01*
Y47000D01*
X103862D01*
Y48929D01*
D02*
G37*
G36*
X242929Y102362D02*
X241000D01*
Y100531D01*
X242929D01*
Y102362D01*
D02*
G37*
G36*
X101740Y54079D02*
X100362D01*
Y51618D01*
X101740D01*
Y54079D01*
D02*
G37*
G36*
X122969Y49429D02*
X121138D01*
Y47500D01*
X122969D01*
Y49429D01*
D02*
G37*
G36*
X239000Y102362D02*
X237071D01*
Y100531D01*
X239000D01*
Y102362D01*
D02*
G37*
G36*
X103862Y45000D02*
X102032D01*
Y43071D01*
X103862D01*
Y45000D01*
D02*
G37*
G36*
X105118Y58539D02*
X103740D01*
Y56079D01*
X105118D01*
Y58539D01*
D02*
G37*
G36*
X125138D02*
X123760D01*
Y56079D01*
X125138D01*
Y58539D01*
D02*
G37*
G36*
X121760D02*
X120382D01*
Y56079D01*
X121760D01*
Y58539D01*
D02*
G37*
G36*
X101740D02*
X100362D01*
Y56079D01*
X101740D01*
Y58539D01*
D02*
G37*
G36*
X105118Y54079D02*
X103740D01*
Y51618D01*
X105118D01*
Y54079D01*
D02*
G37*
G36*
X121760D02*
X120382D01*
Y51618D01*
X121760D01*
Y54079D01*
D02*
G37*
G36*
X125138D02*
X123760D01*
Y51618D01*
X125138D01*
Y54079D01*
D02*
G37*
G36*
X82831Y200500D02*
X81000D01*
Y198571D01*
X82831D01*
Y200500D01*
D02*
G37*
G36*
X111969Y200429D02*
X110138D01*
Y198500D01*
X111969D01*
Y200429D01*
D02*
G37*
G36*
X38807Y196839D02*
X36346D01*
Y195461D01*
X38807D01*
Y196839D01*
D02*
G37*
G36*
X38882Y212736D02*
X36421D01*
Y211358D01*
X38882D01*
Y212736D01*
D02*
G37*
G36*
X34421D02*
X31961D01*
Y211358D01*
X34421D01*
Y212736D01*
D02*
G37*
G36*
X82831Y204429D02*
X81000D01*
Y202500D01*
X82831D01*
Y204429D01*
D02*
G37*
G36*
X34346Y196839D02*
X31886D01*
Y195461D01*
X34346D01*
Y196839D01*
D02*
G37*
G36*
X38807Y193461D02*
X36346D01*
Y192083D01*
X38807D01*
Y193461D01*
D02*
G37*
G36*
X34346D02*
X31886D01*
Y192083D01*
X34346D01*
Y193461D01*
D02*
G37*
G36*
X38307Y177839D02*
X35846D01*
Y176461D01*
X38307D01*
Y177839D01*
D02*
G37*
G36*
X111969Y196500D02*
X110138D01*
Y194571D01*
X111969D01*
Y196500D01*
D02*
G37*
G36*
X48429Y195862D02*
X46500D01*
Y194032D01*
X48429D01*
Y195862D01*
D02*
G37*
G36*
X44500D02*
X42571D01*
Y194032D01*
X44500D01*
Y195862D01*
D02*
G37*
G36*
X38882Y235114D02*
X36421D01*
Y233736D01*
X38882D01*
Y235114D01*
D02*
G37*
G36*
X34421D02*
X31961D01*
Y233736D01*
X34421D01*
Y235114D01*
D02*
G37*
G36*
X48429Y234362D02*
X46500D01*
Y232531D01*
X48429D01*
Y234362D01*
D02*
G37*
G36*
X65441Y281130D02*
X64614D01*
Y279161D01*
X65441D01*
Y281130D01*
D02*
G37*
G36*
X75862Y263929D02*
X74031D01*
Y262000D01*
X75862D01*
Y263929D01*
D02*
G37*
G36*
Y260000D02*
X74031D01*
Y258071D01*
X75862D01*
Y260000D01*
D02*
G37*
G36*
X44500Y234362D02*
X42571D01*
Y232531D01*
X44500D01*
Y234362D01*
D02*
G37*
G36*
X34421Y216114D02*
X31961D01*
Y214736D01*
X34421D01*
Y216114D01*
D02*
G37*
G36*
X48429Y215362D02*
X46500D01*
Y213531D01*
X48429D01*
Y215362D01*
D02*
G37*
G36*
X44500D02*
X42571D01*
Y213531D01*
X44500D01*
Y215362D01*
D02*
G37*
G36*
X38882Y231736D02*
X36421D01*
Y230358D01*
X38882D01*
Y231736D01*
D02*
G37*
G36*
X34421D02*
X31961D01*
Y230358D01*
X34421D01*
Y231736D01*
D02*
G37*
G36*
X38882Y216114D02*
X36421D01*
Y214736D01*
X38882D01*
Y216114D01*
D02*
G37*
G36*
X169539Y134760D02*
X167079D01*
Y133382D01*
X169539D01*
Y134760D01*
D02*
G37*
G36*
X165079D02*
X162618D01*
Y133382D01*
X165079D01*
Y134760D01*
D02*
G37*
G36*
X146968Y133000D02*
X145138D01*
Y131071D01*
X146968D01*
Y133000D01*
D02*
G37*
G36*
X169539Y138138D02*
X167079D01*
Y136760D01*
X169539D01*
Y138138D01*
D02*
G37*
G36*
X165079D02*
X162618D01*
Y136760D01*
X165079D01*
Y138138D01*
D02*
G37*
G36*
X146968Y136929D02*
X145138D01*
Y135000D01*
X146968D01*
Y136929D01*
D02*
G37*
G36*
X50500Y123468D02*
X48571D01*
Y121638D01*
X50500D01*
Y123468D01*
D02*
G37*
G36*
Y104469D02*
X48571D01*
Y102638D01*
X50500D01*
Y104469D01*
D02*
G37*
G36*
X45429D02*
X43500D01*
Y102638D01*
X45429D01*
Y104469D01*
D02*
G37*
G36*
X41500D02*
X39571D01*
Y102638D01*
X41500D01*
Y104469D01*
D02*
G37*
G36*
X45429Y123468D02*
X43500D01*
Y121638D01*
X45429D01*
Y123468D01*
D02*
G37*
G36*
X41500D02*
X39571D01*
Y121638D01*
X41500D01*
Y123468D01*
D02*
G37*
G36*
X54429Y104469D02*
X52500D01*
Y102638D01*
X54429D01*
Y104469D01*
D02*
G37*
G36*
X38307Y174461D02*
X35846D01*
Y173083D01*
X38307D01*
Y174461D01*
D02*
G37*
G36*
X33846D02*
X31386D01*
Y173083D01*
X33846D01*
Y174461D01*
D02*
G37*
G36*
X61468Y170429D02*
X59638D01*
Y168500D01*
X61468D01*
Y170429D01*
D02*
G37*
G36*
X33846Y177839D02*
X31386D01*
Y176461D01*
X33846D01*
Y177839D01*
D02*
G37*
G36*
X48429Y176862D02*
X46500D01*
Y175031D01*
X48429D01*
Y176862D01*
D02*
G37*
G36*
X44500D02*
X42571D01*
Y175031D01*
X44500D01*
Y176862D01*
D02*
G37*
G36*
X61468Y166500D02*
X59638D01*
Y164571D01*
X61468D01*
Y166500D01*
D02*
G37*
G36*
X50500Y141469D02*
X48571D01*
Y139638D01*
X50500D01*
Y141469D01*
D02*
G37*
G36*
X45429D02*
X43500D01*
Y139638D01*
X45429D01*
Y141469D01*
D02*
G37*
G36*
X41500D02*
X39571D01*
Y139638D01*
X41500D01*
Y141469D01*
D02*
G37*
G36*
X61469Y162429D02*
X59638D01*
Y160500D01*
X61469D01*
Y162429D01*
D02*
G37*
G36*
Y158500D02*
X59638D01*
Y156571D01*
X61469D01*
Y158500D01*
D02*
G37*
G36*
X54429Y141469D02*
X52500D01*
Y139638D01*
X54429D01*
Y141469D01*
D02*
G37*
%LPD*%
D10*
X35934Y27000D02*
X35849Y28003D01*
X35595Y28977D01*
X35181Y29894D01*
X34617Y30728D01*
X33920Y31455D01*
X33111Y32053D01*
X32213Y32506D01*
X31250Y32801D01*
X30252Y32929D01*
X29246Y32886D01*
X28262Y32674D01*
X27329Y32299D01*
X26471Y31771D01*
X25716Y31106D01*
X25084Y30323D01*
X24593Y29444D01*
X24257Y28495D01*
X24087Y27503D01*
Y26497D01*
X24257Y25505D01*
X24593Y24556D01*
X25084Y23677D01*
X25716Y22894D01*
X26471Y22229D01*
X27329Y21701D01*
X28262Y21326D01*
X29246Y21114D01*
X30252Y21071D01*
X31250Y21199D01*
X32213Y21494D01*
X33111Y21947D01*
X33920Y22546D01*
X34617Y23272D01*
X35181Y24106D01*
X35595Y25023D01*
X35849Y25997D01*
X35934Y27000D01*
Y392500D02*
X35849Y393503D01*
X35595Y394477D01*
X35181Y395394D01*
X34617Y396228D01*
X33920Y396955D01*
X33111Y397553D01*
X32213Y398006D01*
X31250Y398301D01*
X30252Y398429D01*
X29246Y398386D01*
X28262Y398174D01*
X27329Y397799D01*
X26471Y397271D01*
X25716Y396606D01*
X25084Y395823D01*
X24593Y394944D01*
X24257Y393995D01*
X24087Y393003D01*
Y391997D01*
X24257Y391005D01*
X24593Y390056D01*
X25084Y389177D01*
X25716Y388394D01*
X26471Y387729D01*
X27329Y387201D01*
X28262Y386826D01*
X29246Y386614D01*
X30252Y386571D01*
X31250Y386699D01*
X32213Y386994D01*
X33111Y387447D01*
X33920Y388046D01*
X34617Y388772D01*
X35181Y389606D01*
X35595Y390523D01*
X35849Y391497D01*
X35934Y392500D01*
X378934D02*
X378849Y393503D01*
X378595Y394477D01*
X378181Y395394D01*
X377617Y396228D01*
X376921Y396955D01*
X376111Y397553D01*
X375213Y398006D01*
X374250Y398301D01*
X373252Y398429D01*
X372246Y398386D01*
X371262Y398174D01*
X370328Y397799D01*
X369471Y397271D01*
X368716Y396606D01*
X368084Y395823D01*
X367593Y394944D01*
X367257Y393995D01*
X367087Y393003D01*
Y391997D01*
X367257Y391005D01*
X367593Y390056D01*
X368084Y389177D01*
X368716Y388394D01*
X369471Y387729D01*
X370328Y387201D01*
X371262Y386826D01*
X372246Y386614D01*
X373252Y386571D01*
X374250Y386699D01*
X375213Y386994D01*
X376111Y387447D01*
X376921Y388046D01*
X377617Y388772D01*
X378181Y389606D01*
X378595Y390523D01*
X378849Y391497D01*
X378934Y392500D01*
X151500Y147000D02*
X184500D01*
X109000Y231213D02*
Y317500D01*
Y231213D02*
X123000Y217213D01*
X112000Y230740D02*
Y285000D01*
Y230740D02*
X126500Y216240D01*
X248500Y99531D02*
Y108000D01*
X236787Y119713D02*
X248500Y108000D01*
X236787Y119713D02*
Y131213D01*
X235000Y133000D02*
X236787Y131213D01*
X235000Y133000D02*
Y147000D01*
X126500Y204000D02*
Y216240D01*
X123000Y205500D02*
Y217213D01*
X99559Y294161D02*
X103161D01*
X105500Y296500D01*
Y310500D01*
X103500Y312500D02*
X105500Y310500D01*
X101000Y312500D02*
X103500D01*
X99000Y314500D02*
X101000Y312500D01*
X99000Y314500D02*
Y319787D01*
X113500Y382900D02*
X113600Y383000D01*
X108000D02*
X113400D01*
X99000Y374000D02*
X108000Y383000D01*
X99000Y338213D02*
Y374000D01*
X230000Y96500D02*
Y157500D01*
X216500Y171000D02*
X230000Y157500D01*
X189500Y171000D02*
X216500D01*
X161500Y199000D02*
X189500Y171000D01*
X200000Y322468D02*
X200000Y322469D01*
X190500Y322468D02*
X200000D01*
X115500Y113736D02*
Y119500D01*
X94000Y288000D02*
X94441Y288441D01*
Y294161D01*
X80500Y412500D02*
X385556D01*
X69000Y300032D02*
X80500D01*
Y391000D01*
Y299866D02*
Y300032D01*
X109000Y170000D02*
X109016Y169984D01*
X116445D01*
X93610Y179610D02*
Y184945D01*
X93500Y179500D02*
X93610Y179610D01*
X86225Y189776D02*
X90435D01*
X86000Y190000D02*
X86225Y189776D01*
X90435D02*
X91642Y188568D01*
Y184945D02*
Y188568D01*
X84555Y154945D02*
X85000Y154500D01*
X84555Y154945D02*
Y158173D01*
X96500Y193500D02*
Y198500D01*
Y203500D01*
X377783Y233784D02*
X382784D01*
X383000Y234000D01*
X376032Y232032D02*
X377783Y233784D01*
X376032Y228000D02*
Y232032D01*
X383000Y246000D02*
Y260366D01*
X379921Y263445D02*
X383000Y260366D01*
X376287Y241287D02*
X377000Y242000D01*
X387000D01*
X379921Y283602D02*
X380398D01*
X391000Y273000D01*
Y246000D02*
Y273000D01*
X387000Y242000D02*
X391000Y246000D01*
X376287Y237256D02*
Y241287D01*
X376032Y237000D02*
X376287Y237256D01*
X376032Y228000D02*
X386150D01*
X376032Y237000D02*
X386362D01*
X395150D02*
Y402906D01*
X386150Y228000D02*
X395150Y237000D01*
X393362Y244000D02*
Y402166D01*
X386362Y237000D02*
X393362Y244000D01*
X385556Y412500D02*
X395150Y402906D01*
X385728Y409800D02*
X393362Y402166D01*
X113400Y409800D02*
X385728D01*
X113400Y383000D02*
X113600D01*
X66968Y228880D02*
Y233496D01*
X71500Y238028D01*
Y252000D01*
X66968Y256532D02*
X71500Y252000D01*
X66968Y256532D02*
Y261000D01*
X105421Y184945D02*
Y191421D01*
X97000Y283000D02*
Y294161D01*
X51338Y285839D02*
X66441D01*
X48000Y282500D02*
X51338Y285839D01*
X48000Y267032D02*
Y282500D01*
X69000Y285839D02*
Y293969D01*
X73031Y269000D02*
Y272969D01*
X71559Y274441D02*
X73031Y272969D01*
X71559Y274441D02*
Y278161D01*
X66968Y269000D02*
Y272968D01*
X69000Y275000D01*
Y278161D01*
X57000Y267032D02*
X57000Y267032D01*
X48000Y267032D02*
X57000D01*
X68756Y228139D02*
Y232756D01*
X67000Y226384D02*
X68756Y228139D01*
Y232756D02*
X97000Y261000D01*
Y276937D01*
X70150Y184101D02*
Y191961D01*
X67000Y195111D02*
Y226384D01*
Y195111D02*
X70150Y191961D01*
Y184101D02*
X80330Y173921D01*
X84555D01*
X68362Y183361D02*
Y191221D01*
Y183361D02*
X79770Y171953D01*
X84555D01*
X65089Y194495D02*
X68362Y191221D01*
X65089Y194495D02*
Y227000D01*
X66968Y228880D01*
X66937Y260968D02*
X66968Y261000D01*
X57000Y260968D02*
X66937D01*
X66575Y182620D02*
Y190481D01*
Y182620D02*
X79211Y169984D01*
X84555D01*
X63301Y193754D02*
X66575Y190481D01*
X63301Y193754D02*
Y226699D01*
X58469Y231532D02*
X63301Y226699D01*
X54500Y231532D02*
X58469D01*
X61514Y193014D02*
Y208500D01*
X57482Y212532D02*
X61514Y208500D01*
X54500Y212532D02*
X57482D01*
X63000Y181140D02*
X75000Y169140D01*
Y169055D02*
X78008Y166047D01*
X75000Y169055D02*
Y169140D01*
X61514Y193014D02*
X64787Y189740D01*
Y181880D02*
Y189740D01*
Y181880D02*
X78652Y168016D01*
X84555D01*
X63000Y181140D02*
Y189000D01*
X58969Y193032D02*
X63000Y189000D01*
X54500Y193032D02*
X58969D01*
X78008Y166047D02*
X84555D01*
X54500Y174032D02*
X67580D01*
X71649Y169962D01*
Y169878D02*
Y169962D01*
Y169878D02*
X77449Y164079D01*
X84555D01*
X76890Y162110D02*
X84555D01*
X71500Y167500D02*
X76890Y162110D01*
X68531Y167500D02*
X71500D01*
X66500Y139500D02*
X82000D01*
X89673Y147173D01*
Y153055D01*
X91642Y144642D02*
Y153055D01*
X76500Y129500D02*
X91642Y144642D01*
X66500Y129500D02*
X76500D01*
X87500Y137500D02*
X90000D01*
X58000Y131862D02*
X59303Y130559D01*
Y126697D02*
Y130559D01*
Y126697D02*
X61500Y124500D01*
X74500D01*
X87500Y137500D01*
X57500Y116500D02*
Y128500D01*
X57516Y128516D01*
X55500Y130532D02*
X57516Y128516D01*
X87500Y134165D02*
X92165D01*
X57500Y116500D02*
X60500Y113500D01*
X66997D01*
X87500Y134003D01*
Y134165D01*
X88000Y131500D02*
X90000D01*
X51500Y111531D02*
X68032D01*
X88000Y131500D01*
X88500Y128500D02*
X92500D01*
X63000Y95500D02*
Y103000D01*
X88500Y128500D01*
X65181Y102209D02*
X88472Y125500D01*
X90000D01*
X65181Y81681D02*
Y102209D01*
X88000Y122500D02*
X92500D01*
X66968Y67000D02*
Y101468D01*
X88000Y122500D01*
X56468Y148531D02*
X58000Y147000D01*
Y131862D02*
Y147000D01*
X51500Y130532D02*
X55500D01*
X51500Y148531D02*
X56468D01*
X92165Y134165D02*
X92500Y134500D01*
X105000Y140500D02*
X105421Y140921D01*
Y153055D01*
X107390Y142341D02*
X111065Y138665D01*
X107390Y142341D02*
Y153055D01*
X109358Y146142D02*
X112000Y143500D01*
Y141500D02*
Y143500D01*
Y141500D02*
X117500Y136000D01*
X109358Y146142D02*
Y153055D01*
X122500Y133000D02*
Y150000D01*
X119445Y153055D02*
X122500Y150000D01*
X111327Y153055D02*
X119445D01*
X126000Y127500D02*
Y155000D01*
X122827Y158173D02*
X126000Y155000D01*
X116445Y158173D02*
X122827D01*
X116445Y160142D02*
X124858D01*
X129000Y130000D02*
Y156000D01*
X124858Y160142D02*
X129000Y156000D01*
X60031Y92532D02*
X63000Y95500D01*
X51500Y92532D02*
X60031D01*
X19787Y231500D02*
Y347787D01*
Y231500D02*
X22291Y228996D01*
X25579D01*
X18000Y213500D02*
Y348528D01*
Y213500D02*
X21504Y209996D01*
X25579D01*
X16213Y193787D02*
X19280Y190720D01*
X16213Y193787D02*
Y349268D01*
X19280Y190720D02*
X25504D01*
X14213Y176787D02*
Y349796D01*
X19280Y171720D02*
X25004D01*
X14213Y176787D02*
X19280Y171720D01*
X12425Y152000D02*
Y350536D01*
Y152000D02*
X21957Y142469D01*
X33500D01*
X10638Y135362D02*
Y351277D01*
Y135362D02*
X21531Y124469D01*
X33500D01*
X8850Y114500D02*
X17882Y105468D01*
X33500D01*
X8850Y114500D02*
Y352017D01*
X7063Y97437D02*
Y352757D01*
X18032Y86468D02*
X33500D01*
X7063Y97437D02*
X18032Y86468D01*
X130500Y106532D02*
Y116500D01*
X127000Y120000D02*
X130500Y116500D01*
X122028Y120000D02*
X127000D01*
X117240Y124787D02*
X122028Y120000D01*
X107240Y124787D02*
X117240D01*
X101484Y130544D02*
X107240Y124787D01*
X120500Y93264D02*
X127764D01*
X130500Y96000D01*
Y100469D01*
X58500Y75000D02*
X65181Y81681D01*
X52032Y75000D02*
X58500D01*
X66968Y57000D02*
Y67000D01*
X52032Y67472D02*
X52268Y67236D01*
X52032Y57472D02*
X52504Y57000D01*
X52032Y57472D02*
Y67000D01*
X52032Y67472D02*
Y75000D01*
X307500Y33032D02*
X310500D01*
Y32532D02*
X313968D01*
X316000Y30500D01*
X303968Y32532D02*
X304000Y32500D01*
X299000Y32532D02*
X303968D01*
X144000Y36500D02*
X304032D01*
X307500Y33032D01*
X298968Y32500D02*
X299000Y32532D01*
X140000Y32500D02*
X298968D01*
X77866Y32634D02*
Y46000D01*
Y32634D02*
X78000Y32500D01*
X104000Y14000D02*
X374500D01*
X94969Y23031D02*
Y46000D01*
Y23031D02*
X104000Y14000D01*
X385757Y27784D02*
Y60757D01*
X373760Y15787D02*
X385757Y27784D01*
X137213Y15787D02*
X373760D01*
X130032Y22968D02*
X137213Y15787D01*
X387544Y27044D02*
Y78556D01*
X374500Y14000D02*
X387544Y27044D01*
X40000Y36500D02*
Y38500D01*
X40134Y38634D01*
Y46000D01*
X379899Y86201D02*
X387544Y78556D01*
X130032Y22968D02*
Y46500D01*
X379899Y66614D02*
X385757Y60757D01*
X147500Y151000D02*
Y159000D01*
Y151000D02*
X151500Y147000D01*
X179000Y139500D02*
X181532Y142032D01*
X184500D01*
X175921Y139500D02*
X179000D01*
X157000Y142000D02*
X158250Y143250D01*
X158260Y143240D01*
X166079D01*
X173500Y132000D02*
X175500D01*
X170500Y119000D02*
Y129000D01*
X173500Y132000D01*
X175500D02*
X179469Y135969D01*
X184000D01*
X172240Y117260D02*
X175921D01*
X170500Y119000D02*
X172240Y117260D01*
X175921D02*
X176630Y117968D01*
X184500D01*
X154031Y142000D02*
X157000D01*
X154031Y134000D02*
Y142000D01*
X143000D02*
X147968D01*
X141000Y144000D02*
X143000Y142000D01*
X141000Y144000D02*
Y158500D01*
X137390Y162110D02*
X141000Y158500D01*
X116445Y162110D02*
X137390D01*
X133500Y129500D02*
Y147000D01*
X133469Y171031D02*
X133500Y171000D01*
X133469Y171031D02*
Y175500D01*
X116445Y171953D02*
X126559D01*
X130107Y175500D01*
X133469D01*
X142421Y164079D02*
X147500Y159000D01*
X116445Y164079D02*
X142421D01*
X133500Y129500D02*
X147969Y115031D01*
Y104000D02*
Y115031D01*
X147968Y96000D02*
X147969Y96000D01*
Y104000D01*
X101484Y130544D02*
Y153055D01*
X99516Y129984D02*
X106500Y123000D01*
X116500D01*
X120500Y119000D01*
Y113736D02*
Y119000D01*
X99516Y129984D02*
Y153055D01*
X97547Y127453D02*
Y153055D01*
Y127453D02*
X105500Y119500D01*
Y113736D02*
Y119500D01*
X114469Y84531D02*
X130000D01*
X110500Y88500D02*
X114469Y84531D01*
X110500Y88500D02*
Y93264D01*
X95000Y84531D02*
Y95500D01*
X115500Y93264D02*
Y98000D01*
X95000Y95500D02*
X99000Y99500D01*
X114000D01*
X115500Y98000D01*
X130000Y47004D02*
Y77996D01*
Y47004D02*
X130504Y46500D01*
X173500Y279532D02*
Y285000D01*
X126500Y204000D02*
X129469Y201031D01*
Y197000D02*
Y201031D01*
X173000Y317500D02*
Y322468D01*
X119032Y201532D02*
X123000Y205500D01*
X119032Y197500D02*
Y201532D01*
Y192468D02*
Y197500D01*
Y192468D02*
X123500Y188000D01*
Y179500D02*
Y188000D01*
X121858Y177858D02*
X123500Y179500D01*
X116445Y177858D02*
X121858D01*
X116445Y175890D02*
X124890D01*
X126213Y177213D01*
Y184213D01*
X129469Y187469D01*
Y197000D01*
X133469Y188469D02*
X144000Y199000D01*
X161500D01*
X133469Y183500D02*
Y188469D01*
X126000Y173921D02*
X128000Y175921D01*
X130000Y183500D02*
X133469D01*
X128000Y175921D02*
Y181500D01*
X130000Y183500D01*
X116445Y173921D02*
X126000D01*
X151984Y172000D02*
X158000D01*
X151500Y162000D02*
X158000D01*
X230000Y96500D02*
X233032Y93468D01*
X240000D01*
Y81031D02*
Y93468D01*
X248500Y77000D02*
Y93468D01*
X242500Y71000D02*
X248500Y77000D01*
X242500Y67339D02*
Y71000D01*
Y59661D02*
X245059D01*
X239941Y53059D02*
X240000Y53000D01*
X239941Y53059D02*
Y59661D01*
Y67339D02*
X240000Y67398D01*
Y74968D01*
X147453Y166047D02*
X151500Y162000D01*
X116445Y166047D02*
X147453D01*
X116445Y168016D02*
X148000D01*
X151984Y172000D01*
X101224Y198500D02*
Y203276D01*
X99531Y204969D02*
X101224Y203276D01*
X99531Y204969D02*
Y209500D01*
X91776Y198500D02*
Y203276D01*
X93468Y204968D01*
Y209500D01*
X101224Y193724D02*
Y198500D01*
X97547Y190047D02*
X101224Y193724D01*
X97547Y184945D02*
Y190047D01*
X91776Y193752D02*
Y198500D01*
Y193752D02*
X95579Y189949D01*
Y184945D02*
Y189949D01*
X93610Y184945D02*
Y189390D01*
X89500Y193500D02*
X93610Y189390D01*
X80000Y193500D02*
X89500D01*
X73937Y193500D02*
Y209500D01*
X73937Y193500D02*
X73937Y193500D01*
X35421Y225256D02*
X54287D01*
X54500Y225468D01*
X35421Y206256D02*
X54287D01*
X54500Y206469D01*
X35346Y186980D02*
X54488D01*
X54500Y186969D01*
X34846Y167980D02*
X54488D01*
X54500Y167969D01*
X42500Y148531D02*
X51500D01*
X33500D02*
X42500D01*
Y130532D02*
X51500D01*
X33500D02*
X42500D01*
Y111531D02*
X51500D01*
X33500D02*
X42500D01*
Y92532D02*
X51500D01*
X33500D02*
X42500D01*
X33468Y142500D02*
X33500Y142469D01*
X226531Y273469D02*
X227000Y273000D01*
X218000Y273469D02*
X226531D01*
X227969Y328531D02*
X228500Y328000D01*
X218500Y328531D02*
X227969D01*
X182000Y279532D02*
Y286500D01*
X185764Y290264D01*
X203500D01*
X188032Y279532D02*
X191000D01*
X186000Y277500D02*
X188032Y279532D01*
X186000Y274000D02*
Y277500D01*
X185469Y273469D02*
X186000Y274000D01*
X182000Y273469D02*
X185469D01*
X178532Y279532D02*
X182000D01*
X177500Y278500D02*
X178532Y279532D01*
X177500Y274000D02*
Y278500D01*
X176969Y273469D02*
X177500Y274000D01*
X173500Y273469D02*
X176969D01*
X208500Y310736D02*
Y315500D01*
X207287Y316713D02*
X208500Y315500D01*
X184287Y316713D02*
X207287D01*
X182000Y319000D02*
X184287Y316713D01*
X182000Y319000D02*
Y322468D01*
X190468Y322500D02*
X190500Y322468D01*
X186500Y322500D02*
X190468D01*
X185500Y323500D02*
X186500Y322500D01*
X185500Y323500D02*
Y327500D01*
X184469Y328531D02*
X185500Y327500D01*
X182000Y328531D02*
X184469D01*
X178032Y322468D02*
X182000D01*
X177500Y323000D02*
X178032Y322468D01*
X177500Y323000D02*
Y327000D01*
X175969Y328531D02*
X177500Y327000D01*
X173000Y328531D02*
X175969D01*
X208500Y285500D02*
Y290264D01*
X207500Y284500D02*
X208500Y285500D01*
X202500Y284500D02*
X207500D01*
X200500Y282500D02*
X202500Y284500D01*
X200500Y279532D02*
Y282500D01*
X191000Y279532D02*
X200500D01*
X213500D02*
X218000D01*
X209000D02*
X213500D01*
Y290264D01*
Y310736D02*
Y315000D01*
X210000Y318500D02*
X213500Y315000D01*
X201500Y318500D02*
X210000D01*
X200000Y320000D02*
X201500Y318500D01*
X200000Y320000D02*
Y322469D01*
X218500D02*
X218500Y322468D01*
X209000Y322469D02*
X218500D01*
X218500Y310736D02*
Y322468D01*
X308819Y360732D02*
Y389681D01*
X297138Y401362D02*
X308819Y389681D01*
X63251Y401362D02*
X297138D01*
X388000Y349000D02*
Y398000D01*
X382850Y403150D02*
X388000Y398000D01*
X62511Y403150D02*
X382850D01*
X389787Y299000D02*
Y399713D01*
X384563Y404937D02*
X389787Y399713D01*
X61770Y404937D02*
X384563D01*
X391575Y297000D02*
Y401425D01*
X386276Y406724D02*
X391575Y401425D01*
X61030Y406724D02*
X386276D01*
X374500Y285000D02*
X378500Y289000D01*
X374500Y273000D02*
Y285000D01*
X378500Y289000D02*
X383575D01*
X94441Y301839D02*
X97000D01*
X95504Y78500D02*
X107134D01*
X118866D02*
X129496D01*
X7063Y352757D02*
X61030Y406724D01*
X8850Y352017D02*
X61770Y404937D01*
X10638Y351277D02*
X62511Y403150D01*
X12425Y350536D02*
X63251Y401362D01*
X14213Y349796D02*
X63992Y399575D01*
X293787Y310213D02*
X294000Y310000D01*
X16213Y349268D02*
X64732Y397787D01*
X18000Y348528D02*
X65472Y396000D01*
X19787Y347787D02*
X66213Y394213D01*
X63992Y399575D02*
X288425D01*
X295787Y392213D01*
X64732Y397787D02*
X286213D01*
X293787Y390213D01*
Y310213D02*
Y390213D01*
X65472Y396000D02*
X278000D01*
X66213Y394213D02*
X276787D01*
X278000Y393000D01*
X275748Y266898D02*
X282646Y260000D01*
X275748Y280283D02*
X285921Y270110D01*
X282898Y337898D02*
X292000Y347000D01*
X275748Y337898D02*
X282898D01*
X275748Y280283D02*
X285283D01*
X294000Y289000D01*
Y310000D01*
X382000Y343000D02*
X388000Y349000D01*
X371000Y343000D02*
X382000D01*
X383787Y293000D02*
X389787Y299000D01*
X373000Y293000D02*
X383787D01*
X383575Y289000D02*
X391575Y297000D01*
X275748Y351283D02*
X282921Y358457D01*
X42000Y57000D02*
X45496D01*
X40134Y46000D02*
Y55134D01*
X42000Y57000D01*
X73504D02*
X77000D01*
X78000Y56000D01*
Y46134D02*
Y56000D01*
X77866Y46000D02*
X78000Y46134D01*
X95000Y54260D02*
X95260Y54000D01*
X95000Y46496D02*
Y54260D01*
X282646Y247248D02*
Y260000D01*
X285921Y250079D02*
Y270110D01*
X287500Y230000D02*
X290240Y227260D01*
X287500Y230000D02*
Y242394D01*
X282646Y247248D02*
X287500Y242394D01*
X290240Y227260D02*
X292921D01*
Y234740D02*
Y243079D01*
X285921Y250079D02*
X292921Y243079D01*
Y227260D02*
X297260D01*
X298500Y228500D01*
Y238500D01*
X295787Y241213D02*
X298500Y238500D01*
X295787Y241213D02*
Y392213D01*
X279260Y394740D02*
X282921D01*
X278000Y396000D02*
X279260Y394740D01*
X282921D02*
X285760D01*
X292000Y388500D01*
Y347000D02*
Y388500D01*
X282921Y377579D02*
X283500Y377000D01*
X282921Y377579D02*
Y387260D01*
Y358457D02*
Y377579D01*
X280240Y387260D02*
X282921D01*
X278000Y389500D02*
X280240Y387260D01*
X278000Y389500D02*
Y393000D01*
X95000Y77996D02*
X95504Y78500D01*
X95000Y54260D02*
Y77996D01*
X129496Y78500D02*
X130000Y77996D01*
D11*
X222000Y67201D02*
D03*
Y49799D02*
D03*
D12*
X204906Y147000D02*
D03*
X193095D02*
D03*
D13*
X199000Y146606D02*
D03*
D14*
Y137157D02*
D03*
D15*
X205406Y160500D02*
D03*
X193595D02*
D03*
D16*
X273079Y391000D02*
D03*
X282921Y394740D02*
D03*
Y387260D02*
D03*
X283079Y231000D02*
D03*
X292921Y234740D02*
D03*
Y227260D02*
D03*
X25579Y228996D02*
D03*
X35421Y232736D02*
D03*
Y225256D02*
D03*
X25579Y209996D02*
D03*
X35421Y213736D02*
D03*
Y206256D02*
D03*
X25504Y190720D02*
D03*
X35346Y194461D02*
D03*
Y186980D02*
D03*
X25004Y171720D02*
D03*
X34846Y175461D02*
D03*
Y167980D02*
D03*
X166079Y121000D02*
D03*
X175921Y124740D02*
D03*
Y117260D02*
D03*
Y139500D02*
D03*
X166079Y135760D02*
D03*
Y143240D02*
D03*
D17*
X99000Y64921D02*
D03*
X102740Y55079D02*
D03*
X95260D02*
D03*
X126500Y64921D02*
D03*
X130240Y55079D02*
D03*
X122760D02*
D03*
D18*
X336000Y360866D02*
D03*
Y349134D02*
D03*
Y289866D02*
D03*
Y278134D02*
D03*
X80500Y299866D02*
D03*
Y288134D02*
D03*
D19*
X107134Y78500D02*
D03*
X118866D02*
D03*
X51866Y46000D02*
D03*
X40134D02*
D03*
X66134D02*
D03*
X77866D02*
D03*
D20*
X166000Y69287D02*
D03*
Y87713D02*
D03*
X99000Y319787D02*
D03*
Y338213D02*
D03*
D21*
X105500Y93264D02*
D03*
X110500Y93264D02*
D03*
X115500D02*
D03*
X120500Y93264D02*
D03*
X105500Y113736D02*
D03*
X110500Y113736D02*
D03*
X115500D02*
D03*
X120500Y113736D02*
D03*
X218500Y310736D02*
D03*
X213500D02*
D03*
X208500D02*
D03*
X203500D02*
D03*
X218500Y290264D02*
D03*
X213500D02*
D03*
X208500D02*
D03*
X203500D02*
D03*
D22*
X245059Y67339D02*
D03*
X242500D02*
D03*
X239941D02*
D03*
Y59661D02*
D03*
X245059D02*
D03*
X242500D02*
D03*
X94441Y294161D02*
D03*
X97000D02*
D03*
X99559D02*
D03*
Y301839D02*
D03*
X94441D02*
D03*
X97000D02*
D03*
X66441Y278161D02*
D03*
X69000D02*
D03*
X71559D02*
D03*
Y285839D02*
D03*
X66441D02*
D03*
X69000D02*
D03*
D23*
X206795Y351500D02*
D03*
X231205D02*
D03*
Y248000D02*
D03*
X206795D02*
D03*
D24*
X199969Y124000D02*
D03*
X206032D02*
D03*
X62468Y167500D02*
D03*
X68531D02*
D03*
X62469Y159500D02*
D03*
X68532D02*
D03*
X80000Y201500D02*
D03*
X73937D02*
D03*
X94969Y46000D02*
D03*
X101032D02*
D03*
X135532Y197000D02*
D03*
X129469D02*
D03*
X123969Y46500D02*
D03*
X130032D02*
D03*
X112969Y197500D02*
D03*
X119032D02*
D03*
X45969Y75000D02*
D03*
X52032D02*
D03*
X73031D02*
D03*
X66968D02*
D03*
X139532Y183500D02*
D03*
X133469D02*
D03*
X73031Y261000D02*
D03*
X66968D02*
D03*
X172031Y104000D02*
D03*
X165968D02*
D03*
X139532Y175500D02*
D03*
X133469D02*
D03*
X369969Y237000D02*
D03*
X376032D02*
D03*
X369969Y228000D02*
D03*
X376032D02*
D03*
X73937Y193500D02*
D03*
X80000D02*
D03*
X52032Y57000D02*
D03*
X45969D02*
D03*
X66968D02*
D03*
X73031D02*
D03*
X52032Y67000D02*
D03*
X45969D02*
D03*
X66968D02*
D03*
X73031D02*
D03*
X154032Y104000D02*
D03*
X147969D02*
D03*
X147968Y142000D02*
D03*
X154031D02*
D03*
X147968Y134000D02*
D03*
X154031D02*
D03*
X147968Y96000D02*
D03*
X154031D02*
D03*
X66968Y269000D02*
D03*
X73031D02*
D03*
X93468Y209500D02*
D03*
X99531D02*
D03*
X112969D02*
D03*
X119032D02*
D03*
X80000D02*
D03*
X73937D02*
D03*
D25*
X183500Y160469D02*
D03*
Y166532D02*
D03*
X51500Y142469D02*
D03*
Y148531D02*
D03*
Y105468D02*
D03*
Y111531D02*
D03*
X200500Y273469D02*
D03*
Y279532D02*
D03*
X209000D02*
D03*
Y273469D02*
D03*
X51500Y124469D02*
D03*
Y130532D02*
D03*
Y86468D02*
D03*
Y92532D02*
D03*
X98000Y110032D02*
D03*
Y103969D02*
D03*
X200000Y328532D02*
D03*
Y322469D02*
D03*
X209000D02*
D03*
Y328532D02*
D03*
X322500Y26469D02*
D03*
Y32532D02*
D03*
X310500D02*
D03*
Y26469D02*
D03*
X299000D02*
D03*
Y32532D02*
D03*
X195000Y303468D02*
D03*
Y309531D02*
D03*
X54500Y225468D02*
D03*
Y231532D02*
D03*
X54500Y206469D02*
D03*
Y212532D02*
D03*
Y186969D02*
D03*
Y193032D02*
D03*
Y167969D02*
D03*
Y174032D02*
D03*
X45500Y225468D02*
D03*
Y231532D02*
D03*
Y206469D02*
D03*
Y212531D02*
D03*
X45500Y186969D02*
D03*
Y193032D02*
D03*
Y167968D02*
D03*
Y174031D02*
D03*
X33500Y148531D02*
D03*
Y142469D02*
D03*
Y111531D02*
D03*
Y105468D02*
D03*
X182000Y279532D02*
D03*
Y273469D02*
D03*
X42500Y148531D02*
D03*
Y142469D02*
D03*
Y111531D02*
D03*
Y105468D02*
D03*
X130500Y106532D02*
D03*
Y100469D02*
D03*
X95000Y78468D02*
D03*
Y84531D02*
D03*
X191000Y279532D02*
D03*
Y273469D02*
D03*
X173500Y279532D02*
D03*
Y273469D02*
D03*
X130000Y78468D02*
D03*
Y84531D02*
D03*
X218000Y279532D02*
D03*
Y273469D02*
D03*
X33500Y130532D02*
D03*
Y124469D02*
D03*
Y92532D02*
D03*
Y86468D02*
D03*
X42500Y130532D02*
D03*
Y124469D02*
D03*
Y92532D02*
D03*
Y86468D02*
D03*
X182000Y322468D02*
D03*
Y328531D02*
D03*
X190500Y322468D02*
D03*
Y328531D02*
D03*
X173000Y322468D02*
D03*
Y328531D02*
D03*
X218500Y322468D02*
D03*
Y328531D02*
D03*
X184500Y117968D02*
D03*
Y124031D02*
D03*
X248500Y93468D02*
D03*
Y99531D02*
D03*
X184500Y142032D02*
D03*
Y135969D02*
D03*
X240000Y93468D02*
D03*
Y99531D02*
D03*
Y74968D02*
D03*
Y81031D02*
D03*
X57000Y267032D02*
D03*
Y260968D02*
D03*
X48000Y267032D02*
D03*
Y260968D02*
D03*
X97000Y283000D02*
D03*
Y276937D02*
D03*
X69000Y300032D02*
D03*
Y293969D02*
D03*
X175000Y166532D02*
D03*
Y160469D02*
D03*
D26*
X84555Y179827D02*
D03*
Y177858D02*
D03*
Y175890D02*
D03*
Y173921D02*
D03*
Y171953D02*
D03*
Y169984D02*
D03*
Y168016D02*
D03*
Y166047D02*
D03*
Y164079D02*
D03*
Y162110D02*
D03*
Y160142D02*
D03*
Y158173D02*
D03*
X116445D02*
D03*
Y160142D02*
D03*
Y162110D02*
D03*
Y164079D02*
D03*
Y166047D02*
D03*
Y168016D02*
D03*
Y169984D02*
D03*
Y171953D02*
D03*
Y173921D02*
D03*
Y175890D02*
D03*
Y177858D02*
D03*
Y179827D02*
D03*
D27*
X89673Y153055D02*
D03*
X91642D02*
D03*
X93610D02*
D03*
X95579D02*
D03*
X97547D02*
D03*
X99516D02*
D03*
X101484D02*
D03*
X103453D02*
D03*
X105421D02*
D03*
X107390D02*
D03*
X109358D02*
D03*
X111327D02*
D03*
Y184945D02*
D03*
X109358D02*
D03*
X107390D02*
D03*
X105421D02*
D03*
X103453D02*
D03*
X101484D02*
D03*
X99516D02*
D03*
X97547D02*
D03*
X95579D02*
D03*
X93610D02*
D03*
X91642D02*
D03*
X89673D02*
D03*
D28*
X336000Y329193D02*
D03*
Y340807D02*
D03*
Y258193D02*
D03*
Y269807D02*
D03*
D29*
X30000Y27000D02*
D03*
Y392500D02*
D03*
X373000D02*
D03*
D30*
X91776Y198500D02*
D03*
X101224D02*
D03*
X96500D02*
D03*
D31*
X233000Y371232D02*
D03*
Y387768D02*
D03*
X199000Y49732D02*
D03*
Y66268D02*
D03*
D32*
X175000Y151000D02*
Y160469D01*
X175031Y160500D02*
X193595D01*
X175000Y160469D02*
X175031Y160500D01*
X193095Y160000D02*
X193595Y160500D01*
X193095Y147000D02*
Y160000D01*
X97768Y387768D02*
X233000D01*
X89000Y379000D02*
X97768Y387768D01*
X89000Y290000D02*
Y379000D01*
X87134Y288134D02*
X89000Y290000D01*
X82000Y288134D02*
X87134D01*
X373532Y32532D02*
X379921Y38921D01*
X322500Y32532D02*
X373532D01*
X319468D02*
X322500D01*
X312500Y39500D02*
X319468Y32532D01*
X174000Y39500D02*
X312500D01*
X166000Y47500D02*
X174000Y39500D01*
X166000Y69287D02*
Y69787D01*
Y47500D02*
Y69287D01*
X165968Y89244D02*
X167000Y88213D01*
X147500Y87500D02*
X147713Y87713D01*
X166000D01*
X165968Y89244D02*
Y104000D01*
Y87744D02*
Y89244D01*
Y87744D02*
X166000Y87713D01*
X154032Y104000D02*
X165968D01*
X379921Y38921D02*
Y46122D01*
X165968Y104000D02*
X166079Y104110D01*
Y121000D01*
X269000Y388035D02*
X271965Y391000D01*
X268732Y387768D02*
X269000Y388035D01*
Y370000D02*
Y388035D01*
X271965Y391000D02*
X273079D01*
X233000Y387768D02*
X268732D01*
X269000Y234500D02*
Y248500D01*
X269500Y248000D01*
X275748D01*
X269000Y234500D02*
X272500Y231000D01*
X269000Y319000D02*
Y370000D01*
X269181Y370181D01*
X275748D01*
X269000Y299000D02*
Y319000D01*
X275748D01*
X269000Y248500D02*
Y299000D01*
X269181Y299181D01*
X275748D01*
X272500Y231000D02*
X283079D01*
X51866Y46000D02*
X59500D01*
X66134D01*
D33*
X169000Y164500D02*
X171032Y166532D01*
X175000D01*
X80000Y104000D02*
X109000D01*
X110500Y105500D02*
Y113736D01*
X109000Y104000D02*
X110500Y105500D01*
X80000Y221500D02*
X115500D01*
X80000Y209500D02*
Y221500D01*
X80000Y221500D02*
X80000Y221500D01*
X51500Y250000D02*
X66500D01*
X48000Y253500D02*
Y260968D01*
Y253500D02*
X51500Y250000D01*
X169000Y155500D02*
Y164500D01*
X165500Y152000D02*
X169000Y155500D01*
X158000Y152000D02*
X165500D01*
X105421Y205421D02*
X109500Y209500D01*
X105421Y191421D02*
Y205421D01*
X109500Y209500D02*
X112969D01*
X119032D02*
Y217968D01*
X115500Y221500D02*
X119032Y217968D01*
X68532Y159500D02*
X78000D01*
X68532Y155532D02*
Y159500D01*
X66500Y153500D02*
X68532Y155532D01*
X66500Y149500D02*
Y153500D01*
X199157Y129000D02*
X200157Y128000D01*
D34*
X78000Y159500D02*
X80000D01*
X80642Y160142D01*
X84555D01*
X84516Y160102D02*
X84555Y160142D01*
D35*
X199000Y94843D02*
X199157Y95000D01*
X199000Y124504D02*
X199157Y124661D01*
Y129000D01*
Y133843D01*
Y95000D02*
Y124661D01*
X199496Y125000D01*
X176157Y124504D02*
X199000D01*
Y68000D02*
Y94843D01*
D36*
X333750Y172000D02*
D03*
D37*
X244500Y371750D02*
D03*
D38*
X78500Y286500D02*
D03*
D39*
X337500Y273500D02*
D03*
D40*
X338500Y344500D02*
D03*
D41*
X379921Y373169D02*
D03*
Y363091D02*
D03*
Y353012D02*
D03*
Y333425D02*
D03*
Y323346D02*
D03*
Y313268D02*
D03*
Y303189D02*
D03*
Y283602D02*
D03*
Y273524D02*
D03*
Y263445D02*
D03*
Y46122D02*
D03*
Y56201D02*
D03*
Y66280D02*
D03*
Y85866D02*
D03*
Y95945D02*
D03*
Y106024D02*
D03*
Y116102D02*
D03*
Y135689D02*
D03*
Y145768D02*
D03*
Y155846D02*
D03*
X158000Y192000D02*
D03*
Y182000D02*
D03*
Y172000D02*
D03*
Y162000D02*
D03*
X66500Y139500D02*
D03*
Y129500D02*
D03*
Y119500D02*
D03*
D42*
X365748Y285827D02*
D03*
Y266142D02*
D03*
Y350787D02*
D03*
Y370472D02*
D03*
Y153150D02*
D03*
Y133465D02*
D03*
Y48819D02*
D03*
Y68504D02*
D03*
D43*
X260000Y248000D02*
D03*
Y299181D02*
D03*
Y370181D02*
D03*
Y319000D02*
D03*
D44*
Y266898D02*
D03*
Y280283D02*
D03*
Y351283D02*
D03*
Y337898D02*
D03*
D45*
X275748Y299181D02*
D03*
Y280283D02*
D03*
Y248000D02*
D03*
Y266898D02*
D03*
Y337898D02*
D03*
Y319000D02*
D03*
Y351283D02*
D03*
Y370181D02*
D03*
X199157Y97000D02*
D03*
X218843D02*
D03*
D46*
X308819Y289732D02*
D03*
Y257449D02*
D03*
Y328449D02*
D03*
Y360732D02*
D03*
D47*
X158000Y152000D02*
D03*
X66500Y149500D02*
D03*
D48*
X199500Y168000D02*
D03*
X202000Y152500D02*
D03*
X206500Y130000D02*
D03*
X190000Y139500D02*
D03*
X208000D02*
D03*
X192500Y130500D02*
D03*
X186000Y154500D02*
D03*
X181000D02*
D03*
X217500Y152500D02*
D03*
X214500Y167000D02*
D03*
X210000Y151000D02*
D03*
X179000Y130000D02*
D03*
X160500Y125500D02*
D03*
X152000Y109500D02*
D03*
X85000Y109000D02*
D03*
X100000Y119500D02*
D03*
X74500Y135000D02*
D03*
Y144000D02*
D03*
X84000Y205000D02*
D03*
X151000Y187500D02*
D03*
X152000Y167000D02*
D03*
X151000Y158000D02*
D03*
X172500Y182000D02*
D03*
X225000Y156000D02*
D03*
Y151500D02*
D03*
X233500Y116500D02*
D03*
Y129000D02*
D03*
X246000Y117000D02*
D03*
X130500Y206500D02*
D03*
X393500Y150500D02*
D03*
X394000Y126000D02*
D03*
X386000Y127000D02*
D03*
X374500Y124000D02*
D03*
X360500Y123500D02*
D03*
X361000Y143500D02*
D03*
X386500Y140500D02*
D03*
X386000Y151500D02*
D03*
X375000Y151000D02*
D03*
X373000Y142500D02*
D03*
X360000Y162500D02*
D03*
X368500D02*
D03*
X377000D02*
D03*
X385500Y163000D02*
D03*
X394500D02*
D03*
Y171500D02*
D03*
X385500D02*
D03*
X377000D02*
D03*
X368500D02*
D03*
X360000D02*
D03*
X253500Y112500D02*
D03*
X254000Y100500D02*
D03*
X253500Y87000D02*
D03*
X253000Y80000D02*
D03*
X250000Y60000D02*
D03*
X255500Y60500D02*
D03*
X250000Y70500D02*
D03*
X222000Y75000D02*
D03*
X234000Y81000D02*
D03*
X210000Y120000D02*
D03*
X209000Y106000D02*
D03*
X208000Y84000D02*
D03*
X209500Y62000D02*
D03*
X210000Y69000D02*
D03*
X235000Y89500D02*
D03*
X234500Y71500D02*
D03*
X234000Y60000D02*
D03*
X136500Y80500D02*
D03*
Y57500D02*
D03*
X136000Y71500D02*
D03*
X156000D02*
D03*
X175000Y72000D02*
D03*
X190000Y68000D02*
D03*
X189000Y54500D02*
D03*
X176000Y45000D02*
D03*
X188500D02*
D03*
X173500Y49000D02*
D03*
X173000Y61000D02*
D03*
X175000Y86500D02*
D03*
X191500Y77000D02*
D03*
X182500Y111000D02*
D03*
X191500Y97000D02*
D03*
X172500Y96000D02*
D03*
X169000Y78500D02*
D03*
X163500D02*
D03*
X154500Y81500D02*
D03*
X160000Y96000D02*
D03*
Y134500D02*
D03*
X139500Y129500D02*
D03*
X165500Y130500D02*
D03*
X149000Y120000D02*
D03*
X158500Y111000D02*
D03*
X171500Y111500D02*
D03*
X191500Y117000D02*
D03*
X213000Y128000D02*
D03*
X223500D02*
D03*
X224000Y142500D02*
D03*
X224500Y113000D02*
D03*
X243000Y109500D02*
D03*
X235000Y110000D02*
D03*
X234000Y99000D02*
D03*
X233500Y122000D02*
D03*
X40000Y310500D02*
D03*
X49500Y334000D02*
D03*
X63000Y357000D02*
D03*
X56500Y408500D02*
D03*
X75000Y415000D02*
D03*
X394000Y412500D02*
D03*
X364500Y237000D02*
D03*
X364000Y229000D02*
D03*
X350500Y230000D02*
D03*
X355000Y236000D02*
D03*
X342500D02*
D03*
X329500D02*
D03*
X317500Y235500D02*
D03*
X307000D02*
D03*
X393500Y136500D02*
D03*
X395500Y116000D02*
D03*
X396500Y94000D02*
D03*
Y66500D02*
D03*
Y44500D02*
D03*
X395000Y23000D02*
D03*
X384500Y5500D02*
D03*
X394500Y9000D02*
D03*
X384500Y17000D02*
D03*
X373000Y10000D02*
D03*
X357500D02*
D03*
X344500D02*
D03*
X330500Y9500D02*
D03*
X315000D02*
D03*
X298500D02*
D03*
X282500D02*
D03*
X266500Y10000D02*
D03*
X250000Y9500D02*
D03*
X234000Y9000D02*
D03*
X219500D02*
D03*
X203000Y9500D02*
D03*
X185000D02*
D03*
X168000Y9000D02*
D03*
X150500Y10000D02*
D03*
X133500Y9500D02*
D03*
X119000D02*
D03*
X327000Y19500D02*
D03*
X344500D02*
D03*
X359000D02*
D03*
X372000D02*
D03*
X377000Y29000D02*
D03*
X382000Y31500D02*
D03*
X311000Y20000D02*
D03*
X301000D02*
D03*
X291500D02*
D03*
X293500Y28500D02*
D03*
X281000Y20000D02*
D03*
X282500Y28500D02*
D03*
X269500Y20000D02*
D03*
X271000Y28500D02*
D03*
X255500Y19500D02*
D03*
X258000Y28500D02*
D03*
X241000Y19500D02*
D03*
X245500Y29000D02*
D03*
X227500Y19500D02*
D03*
X231500Y29000D02*
D03*
X212500Y20000D02*
D03*
X217000Y28500D02*
D03*
X198500Y20000D02*
D03*
X202500Y28500D02*
D03*
X184500Y19500D02*
D03*
X190000Y28500D02*
D03*
X170000Y20000D02*
D03*
X175000Y28000D02*
D03*
X155000Y20000D02*
D03*
X160000Y28500D02*
D03*
X146500Y21500D02*
D03*
X17500Y73500D02*
D03*
X6500Y83500D02*
D03*
X7500Y74000D02*
D03*
X27000Y74500D02*
D03*
X27500Y59500D02*
D03*
X28000Y43000D02*
D03*
X78500Y11500D02*
D03*
X77500Y22500D02*
D03*
X54500Y25500D02*
D03*
X54000Y12000D02*
D03*
X29500Y12500D02*
D03*
X105500Y9500D02*
D03*
X95000Y16500D02*
D03*
X83500Y50500D02*
D03*
X90000D02*
D03*
X90500Y62000D02*
D03*
X90000Y72000D02*
D03*
X12500Y85500D02*
D03*
X4500Y93000D02*
D03*
X27000Y91000D02*
D03*
X51000Y237500D02*
D03*
X36000Y238000D02*
D03*
X21000Y402000D02*
D03*
X43000Y406000D02*
D03*
X51000Y414000D02*
D03*
X30500Y411000D02*
D03*
X11500Y388000D02*
D03*
X14000Y368500D02*
D03*
X23000Y378000D02*
D03*
X43000Y397000D02*
D03*
X71500Y413000D02*
D03*
X6000Y401500D02*
D03*
X5000Y358500D02*
D03*
X63000Y311500D02*
D03*
X52500Y304500D02*
D03*
X52000Y290000D02*
D03*
X43500Y282500D02*
D03*
X41500Y264000D02*
D03*
X43000Y251500D02*
D03*
X52000Y245000D02*
D03*
X75000Y305000D02*
D03*
X75500Y316500D02*
D03*
Y327500D02*
D03*
Y341000D02*
D03*
Y356000D02*
D03*
Y369500D02*
D03*
Y379500D02*
D03*
Y390000D02*
D03*
X68000Y390500D02*
D03*
X57500Y379000D02*
D03*
X45500Y367500D02*
D03*
X34000Y356000D02*
D03*
X24000Y346000D02*
D03*
X24500Y329000D02*
D03*
Y307500D02*
D03*
Y288000D02*
D03*
Y269500D02*
D03*
Y251500D02*
D03*
Y236000D02*
D03*
X36500Y219000D02*
D03*
X22500Y223500D02*
D03*
Y216500D02*
D03*
X21000Y195500D02*
D03*
X20500Y205500D02*
D03*
X37000Y200500D02*
D03*
X50500Y199500D02*
D03*
X24500Y177000D02*
D03*
X19000Y178000D02*
D03*
Y186500D02*
D03*
X39000Y181500D02*
D03*
X31500Y163500D02*
D03*
X40500Y163000D02*
D03*
X52500Y159000D02*
D03*
X16500Y161000D02*
D03*
X24500Y166000D02*
D03*
X16000Y169000D02*
D03*
X17000Y153000D02*
D03*
X27500Y147000D02*
D03*
Y138000D02*
D03*
X28500Y129000D02*
D03*
X21500Y139000D02*
D03*
X22000Y129500D02*
D03*
X14000Y137500D02*
D03*
Y145000D02*
D03*
X20000Y120500D02*
D03*
X12500Y128000D02*
D03*
X28000Y120500D02*
D03*
Y110000D02*
D03*
X19000D02*
D03*
X12500Y116500D02*
D03*
X17500Y101500D02*
D03*
X27000Y102000D02*
D03*
X19500Y90500D02*
D03*
X11000Y100000D02*
D03*
Y106500D02*
D03*
X23500Y81500D02*
D03*
X37500Y81000D02*
D03*
X42500D02*
D03*
X51500D02*
D03*
X40500Y71000D02*
D03*
X78000D02*
D03*
X77500Y62000D02*
D03*
X41500D02*
D03*
X46000Y51500D02*
D03*
X72000Y51000D02*
D03*
X145500Y28000D02*
D03*
X137000Y23500D02*
D03*
X160500Y57000D02*
D03*
X152000Y41000D02*
D03*
X164000D02*
D03*
X135500Y41500D02*
D03*
X89500Y41000D02*
D03*
X83500D02*
D03*
X90500Y28500D02*
D03*
X106500Y18000D02*
D03*
X129000D02*
D03*
X126000Y22500D02*
D03*
X102000Y21500D02*
D03*
X126000Y28000D02*
D03*
X98500D02*
D03*
X125500Y41000D02*
D03*
X98500D02*
D03*
X117500Y55000D02*
D03*
X104000Y65500D02*
D03*
X121000D02*
D03*
X125000Y71500D02*
D03*
X113000Y76000D02*
D03*
Y80500D02*
D03*
X100500Y82000D02*
D03*
X99500Y72000D02*
D03*
X88000Y81500D02*
D03*
X71000D02*
D03*
Y92500D02*
D03*
X88000Y93000D02*
D03*
X71500Y100000D02*
D03*
X87000Y116000D02*
D03*
X92000Y108500D02*
D03*
X92500Y99000D02*
D03*
X135500Y109000D02*
D03*
X136000Y100000D02*
D03*
X133000Y94500D02*
D03*
X137500Y119500D02*
D03*
X144000Y113500D02*
D03*
X131500Y125500D02*
D03*
X125000Y105500D02*
D03*
X126500Y115500D02*
D03*
X125000Y97500D02*
D03*
X119000Y100500D02*
D03*
X113000Y102500D02*
D03*
X115500Y106000D02*
D03*
Y119500D02*
D03*
X93500Y289000D02*
D03*
X92000Y262000D02*
D03*
X81500Y251500D02*
D03*
X73500Y255500D02*
D03*
X75000Y245000D02*
D03*
X91500Y272500D02*
D03*
X86000Y279500D02*
D03*
X91000Y284500D02*
D03*
X77000Y276000D02*
D03*
X52000Y277000D02*
D03*
X52500Y281500D02*
D03*
X137500Y151500D02*
D03*
Y156500D02*
D03*
X109000Y170000D02*
D03*
X73500Y155000D02*
D03*
X79000D02*
D03*
X85000Y154500D02*
D03*
X165500Y177500D02*
D03*
X168500Y171000D02*
D03*
X177500Y177500D02*
D03*
X167000Y187500D02*
D03*
X146000D02*
D03*
X144500Y172000D02*
D03*
X145500Y195000D02*
D03*
X139500Y188500D02*
D03*
X115500Y189500D02*
D03*
X115000Y183500D02*
D03*
X110500Y192000D02*
D03*
X110000Y203000D02*
D03*
X108000Y214000D02*
D03*
X88000Y206500D02*
D03*
X104500Y211000D02*
D03*
X112000Y217000D02*
D03*
X102500Y216500D02*
D03*
X90500D02*
D03*
X88500Y212000D02*
D03*
X85500Y216500D02*
D03*
X86000Y201500D02*
D03*
X108500Y55000D02*
D03*
D49*
X175000Y151000D02*
D03*
X59500Y46000D02*
D03*
X147500Y87500D02*
D03*
X189000Y311500D02*
D03*
D50*
X184500Y147000D02*
D03*
X112000Y285000D02*
D03*
X109000Y317500D02*
D03*
X80500Y412500D02*
D03*
Y391000D02*
D03*
X93500Y179500D02*
D03*
X86000Y190000D02*
D03*
X96500Y193500D02*
D03*
Y203500D02*
D03*
X80000Y104000D02*
D03*
X383000Y234000D02*
D03*
Y246000D02*
D03*
X113400Y409800D02*
D03*
Y383000D02*
D03*
X80000Y221500D02*
D03*
X66500Y250000D02*
D03*
X90000Y137500D02*
D03*
X105000Y140500D02*
D03*
X111065Y138665D02*
D03*
X117500Y136000D02*
D03*
X122500Y133000D02*
D03*
X126000Y127500D02*
D03*
X129000Y130000D02*
D03*
X92500Y134500D02*
D03*
X90000Y131500D02*
D03*
X92500Y128500D02*
D03*
X90000Y125500D02*
D03*
X92500Y122500D02*
D03*
X316000Y30500D02*
D03*
X304000Y32500D02*
D03*
X140000D02*
D03*
X78000D02*
D03*
X144000Y36500D02*
D03*
X40000D02*
D03*
X133500Y147000D02*
D03*
Y171000D02*
D03*
X173500Y285000D02*
D03*
X173000Y317500D02*
D03*
X235000Y147000D02*
D03*
M02*
