%FSLAX25Y25*%
%MOIN*%
G70*
G01*
G75*
G04 Layer_Physical_Order=2*
G04 Layer_Color=16711680*
%ADD10C,0.01000*%
%ADD11R,0.10799X0.08500*%
%ADD12O,0.02756X0.07480*%
%ADD13O,0.02756X0.08268*%
%ADD14O,0.07874X0.13780*%
%ADD15R,0.07087X0.10236*%
%ADD16R,0.04921X0.02756*%
%ADD17R,0.02756X0.04921*%
%ADD18R,0.07087X0.04449*%
%ADD19R,0.04449X0.07087*%
%ADD20R,0.10512X0.04724*%
%ADD21O,0.02756X0.07087*%
%ADD22R,0.01654X0.03937*%
%ADD23R,0.04921X0.13465*%
%ADD24R,0.03661X0.03858*%
%ADD25R,0.03858X0.03661*%
%ADD26O,0.07087X0.01102*%
%ADD27O,0.01102X0.07087*%
%ADD28R,0.10709X0.04567*%
%ADD29C,0.03937*%
%ADD30R,0.02362X0.05906*%
%ADD31R,0.07874X0.07874*%
%ADD32C,0.03150*%
%ADD33C,0.01969*%
%ADD34C,0.01181*%
%ADD35C,0.04724*%
%ADD36R,0.20500X1.22000*%
%ADD37R,0.44000X0.15500*%
%ADD38R,0.15000X0.07000*%
%ADD39R,0.23000X0.15000*%
%ADD40R,0.25000X0.15000*%
%ADD41C,0.05906*%
%ADD42C,0.12598*%
%ADD43O,0.10236X0.11811*%
%ADD44O,0.10236X0.11024*%
%ADD45C,0.07087*%
%ADD46C,0.11811*%
%ADD47R,0.05906X0.05906*%
%ADD48C,0.03000*%
%ADD49C,0.04000*%
%ADD50C,0.02756*%
G36*
X397884Y2115D02*
X19832D01*
Y11811D01*
X19671Y12621D01*
X19212Y13307D01*
X18526Y13765D01*
X17717Y13926D01*
X2115D01*
Y405365D01*
X17717D01*
X18526Y405526D01*
X19212Y405984D01*
X19671Y406671D01*
X19832Y407480D01*
X19832Y407480D01*
X19832Y407480D01*
Y407480D01*
Y417176D01*
X397884D01*
Y2115D01*
D02*
G37*
%LPC*%
G36*
X364748Y160386D02*
X364317Y160343D01*
X362941Y159926D01*
X361673Y159248D01*
X360562Y158336D01*
X359650Y157225D01*
X358972Y155956D01*
X358554Y154580D01*
X358512Y154150D01*
X364748D01*
Y160386D01*
D02*
G37*
G36*
X383776Y154846D02*
X380921D01*
Y151991D01*
X380953Y151995D01*
X381915Y152394D01*
X382740Y153027D01*
X383374Y153853D01*
X383772Y154815D01*
X383776Y154846D01*
D02*
G37*
G36*
X378921Y159702D02*
X378889Y159697D01*
X377928Y159299D01*
X377102Y158666D01*
X376468Y157840D01*
X376070Y156878D01*
X376066Y156846D01*
X378921D01*
Y159702D01*
D02*
G37*
G36*
X366748Y160386D02*
Y154150D01*
X372984D01*
X372942Y154580D01*
X372524Y155956D01*
X371846Y157225D01*
X370934Y158336D01*
X369823Y159248D01*
X368555Y159926D01*
X367179Y160343D01*
X366748Y160386D01*
D02*
G37*
G36*
X372984Y152150D02*
X366748D01*
Y145914D01*
X367179Y145956D01*
X368555Y146373D01*
X369823Y147051D01*
X370934Y147963D01*
X371846Y149075D01*
X372524Y150343D01*
X372942Y151719D01*
X372984Y152150D01*
D02*
G37*
G36*
X364748D02*
X358512D01*
X358554Y151719D01*
X358972Y150343D01*
X359650Y149075D01*
X360562Y147963D01*
X361673Y147051D01*
X362941Y146373D01*
X364317Y145956D01*
X364748Y145914D01*
Y152150D01*
D02*
G37*
G36*
X378921Y154846D02*
X376066D01*
X376070Y154815D01*
X376468Y153853D01*
X377102Y153027D01*
X377928Y152394D01*
X378889Y151995D01*
X378921Y151991D01*
Y154846D01*
D02*
G37*
G36*
X162528Y156527D02*
X153472D01*
Y147473D01*
X162528D01*
Y156527D01*
D02*
G37*
G36*
X380921Y159702D02*
Y156846D01*
X383776D01*
X383772Y156878D01*
X383374Y157840D01*
X382740Y158666D01*
X381915Y159299D01*
X380953Y159697D01*
X380921Y159702D01*
D02*
G37*
G36*
X157000Y195855D02*
X156968Y195851D01*
X156007Y195453D01*
X155181Y194819D01*
X154547Y193993D01*
X154149Y193032D01*
X154145Y193000D01*
X157000D01*
Y195855D01*
D02*
G37*
G36*
X161855Y191000D02*
X159000D01*
Y188145D01*
X159032Y188149D01*
X159993Y188547D01*
X160819Y189181D01*
X161453Y190007D01*
X161851Y190968D01*
X161855Y191000D01*
D02*
G37*
G36*
X383000Y248978D02*
X382229Y248877D01*
X381511Y248579D01*
X380894Y248106D01*
X380421Y247489D01*
X380123Y246771D01*
X380022Y246000D01*
X380123Y245229D01*
X380421Y244511D01*
X380885Y243906D01*
Y236093D01*
X380421Y235489D01*
X380123Y234771D01*
X380022Y234000D01*
X380123Y233229D01*
X380421Y232511D01*
X380894Y231894D01*
X381511Y231421D01*
X382229Y231123D01*
X383000Y231022D01*
X383771Y231123D01*
X384489Y231421D01*
X385106Y231894D01*
X385579Y232511D01*
X385877Y233229D01*
X385978Y234000D01*
X385877Y234771D01*
X385579Y235489D01*
X385116Y236093D01*
Y243906D01*
X385579Y244511D01*
X385877Y245229D01*
X385978Y246000D01*
X385877Y246771D01*
X385579Y247489D01*
X385106Y248106D01*
X384489Y248579D01*
X383771Y248877D01*
X383000Y248978D01*
D02*
G37*
G36*
X159000Y195855D02*
Y193000D01*
X161855D01*
X161851Y193032D01*
X161453Y193993D01*
X160819Y194819D01*
X159993Y195453D01*
X159032Y195851D01*
X159000Y195855D01*
D02*
G37*
G36*
X158000Y176567D02*
X156818Y176411D01*
X155717Y175955D01*
X154771Y175229D01*
X154045Y174283D01*
X153589Y173182D01*
X153433Y172000D01*
X153589Y170818D01*
X154045Y169717D01*
X154771Y168771D01*
X155717Y168045D01*
X156818Y167589D01*
X158000Y167433D01*
X159182Y167589D01*
X160283Y168045D01*
X161229Y168771D01*
X161955Y169717D01*
X162411Y170818D01*
X162567Y172000D01*
X162411Y173182D01*
X161955Y174283D01*
X161229Y175229D01*
X160283Y175955D01*
X159182Y176411D01*
X158000Y176567D01*
D02*
G37*
G36*
Y166567D02*
X156818Y166411D01*
X155717Y165955D01*
X154771Y165229D01*
X154045Y164283D01*
X153589Y163182D01*
X153433Y162000D01*
X153589Y160818D01*
X154045Y159717D01*
X154771Y158771D01*
X155717Y158045D01*
X156818Y157589D01*
X158000Y157433D01*
X159182Y157589D01*
X160283Y158045D01*
X161229Y158771D01*
X161955Y159717D01*
X162411Y160818D01*
X162567Y162000D01*
X162411Y163182D01*
X161955Y164283D01*
X161229Y165229D01*
X160283Y165955D01*
X159182Y166411D01*
X158000Y166567D01*
D02*
G37*
G36*
X157000Y191000D02*
X154145D01*
X154149Y190968D01*
X154547Y190007D01*
X155181Y189181D01*
X156007Y188547D01*
X156968Y188149D01*
X157000Y188145D01*
Y191000D01*
D02*
G37*
G36*
X158000Y186567D02*
X156818Y186411D01*
X155717Y185955D01*
X154771Y185229D01*
X154045Y184283D01*
X153976Y184116D01*
X153000D01*
X152190Y183954D01*
X151504Y183496D01*
X149624Y181615D01*
X95594D01*
X94989Y182079D01*
X94271Y182377D01*
X93500Y182478D01*
X92729Y182377D01*
X92011Y182079D01*
X91394Y181606D01*
X90921Y180989D01*
X90623Y180271D01*
X90522Y179500D01*
X90623Y178729D01*
X90921Y178011D01*
X91394Y177394D01*
X92011Y176921D01*
X92729Y176623D01*
X93500Y176522D01*
X94271Y176623D01*
X94989Y176921D01*
X95594Y177384D01*
X150500D01*
X151310Y177546D01*
X151996Y178004D01*
X151996Y178004D01*
X151996Y178004D01*
X153470Y179479D01*
X153827Y179626D01*
X154130Y179606D01*
X154771Y178771D01*
X155717Y178045D01*
X156818Y177589D01*
X158000Y177433D01*
X159182Y177589D01*
X160283Y178045D01*
X161229Y178771D01*
X161955Y179717D01*
X162411Y180818D01*
X162567Y182000D01*
X162411Y183182D01*
X161955Y184283D01*
X161229Y185229D01*
X160283Y185955D01*
X159182Y186411D01*
X158000Y186567D01*
D02*
G37*
G36*
X217843Y101451D02*
X217657Y101426D01*
X216551Y100969D01*
X215602Y100240D01*
X214874Y99291D01*
X214416Y98186D01*
X214392Y98000D01*
X217843D01*
Y101451D01*
D02*
G37*
G36*
X223293Y96000D02*
X219843D01*
Y92549D01*
X220029Y92574D01*
X221134Y93031D01*
X222083Y93760D01*
X222811Y94709D01*
X223269Y95814D01*
X223293Y96000D01*
D02*
G37*
G36*
X70355Y118500D02*
X67500D01*
Y115645D01*
X67532Y115649D01*
X68493Y116047D01*
X69319Y116681D01*
X69953Y117507D01*
X70351Y118468D01*
X70355Y118500D01*
D02*
G37*
G36*
X219843Y101451D02*
Y98000D01*
X223293D01*
X223269Y98186D01*
X222811Y99291D01*
X222083Y100240D01*
X221134Y100969D01*
X220029Y101426D01*
X219843Y101451D01*
D02*
G37*
G36*
X144000Y39478D02*
X143229Y39377D01*
X142511Y39079D01*
X141894Y38606D01*
X141774Y38450D01*
X42226D01*
X42106Y38606D01*
X41489Y39079D01*
X40771Y39377D01*
X40000Y39478D01*
X39229Y39377D01*
X38511Y39079D01*
X37894Y38606D01*
X37421Y37989D01*
X37123Y37271D01*
X37022Y36500D01*
X37123Y35729D01*
X37421Y35011D01*
X37894Y34394D01*
X38511Y33921D01*
X39229Y33623D01*
X40000Y33522D01*
X40771Y33623D01*
X41489Y33921D01*
X41878Y34219D01*
X75066D01*
X75344Y33803D01*
X75123Y33271D01*
X75022Y32500D01*
X75123Y31729D01*
X75421Y31011D01*
X75894Y30394D01*
X76511Y29921D01*
X77229Y29623D01*
X78000Y29522D01*
X78771Y29623D01*
X79489Y29921D01*
X80093Y30385D01*
X137907D01*
X138511Y29921D01*
X139229Y29623D01*
X140000Y29522D01*
X140771Y29623D01*
X141489Y29921D01*
X142106Y30394D01*
X142579Y31011D01*
X142877Y31729D01*
X142978Y32500D01*
X142877Y33270D01*
X143230Y33623D01*
X144000Y33522D01*
X144771Y33623D01*
X145489Y33921D01*
X146106Y34394D01*
X146579Y35011D01*
X146877Y35729D01*
X146978Y36500D01*
X146877Y37271D01*
X146579Y37989D01*
X146106Y38606D01*
X145489Y39079D01*
X144771Y39377D01*
X144000Y39478D01*
D02*
G37*
G36*
X17573Y66561D02*
X5426D01*
Y17425D01*
X17573D01*
Y66561D01*
D02*
G37*
G36*
X217843Y96000D02*
X214392D01*
X214416Y95814D01*
X214874Y94709D01*
X215602Y93760D01*
X216551Y93031D01*
X217657Y92574D01*
X217843Y92549D01*
Y96000D01*
D02*
G37*
G36*
X199157Y102162D02*
X197821Y101986D01*
X196576Y101471D01*
X195507Y100650D01*
X194687Y99581D01*
X194171Y98336D01*
X193995Y97000D01*
X194171Y95664D01*
X194687Y94419D01*
X195507Y93350D01*
X196576Y92529D01*
X197821Y92014D01*
X199157Y91838D01*
X200494Y92014D01*
X201739Y92529D01*
X202808Y93350D01*
X203628Y94419D01*
X204144Y95664D01*
X204320Y97000D01*
X204144Y98336D01*
X203628Y99581D01*
X202808Y100650D01*
X201739Y101471D01*
X200494Y101986D01*
X199157Y102162D01*
D02*
G37*
G36*
X67500Y123355D02*
Y120500D01*
X70355D01*
X70351Y120532D01*
X69953Y121493D01*
X69319Y122319D01*
X68493Y122953D01*
X67532Y123351D01*
X67500Y123355D01*
D02*
G37*
G36*
X105000Y143478D02*
X104229Y143377D01*
X103511Y143079D01*
X102894Y142606D01*
X102421Y141989D01*
X102297Y141690D01*
X99019D01*
X98210Y141529D01*
X97523Y141071D01*
X96068Y139615D01*
X92093D01*
X91489Y140079D01*
X90771Y140377D01*
X90000Y140478D01*
X89229Y140377D01*
X88511Y140079D01*
X87894Y139606D01*
X87421Y138989D01*
X87123Y138271D01*
X87022Y137500D01*
X87123Y136729D01*
X87421Y136011D01*
X87894Y135394D01*
X88511Y134921D01*
X88923Y134750D01*
Y134250D01*
X88511Y134079D01*
X87894Y133606D01*
X87421Y132989D01*
X87123Y132271D01*
X87022Y131500D01*
X87123Y130729D01*
X87421Y130011D01*
X87894Y129394D01*
X88511Y128921D01*
X88923Y128750D01*
Y128250D01*
X88511Y128079D01*
X87894Y127606D01*
X87421Y126989D01*
X87123Y126271D01*
X87022Y125500D01*
X87123Y124729D01*
X87421Y124011D01*
X87894Y123394D01*
X88511Y122921D01*
X89229Y122623D01*
X89449Y122594D01*
X89522Y122500D01*
X89623Y121729D01*
X89921Y121011D01*
X90394Y120394D01*
X91011Y119921D01*
X91729Y119623D01*
X92500Y119522D01*
X93271Y119623D01*
X93989Y119921D01*
X94594Y120385D01*
X97000D01*
X97810Y120546D01*
X98496Y121004D01*
X102876Y125384D01*
X123907D01*
X124511Y124921D01*
X125229Y124623D01*
X126000Y124522D01*
X126771Y124623D01*
X127489Y124921D01*
X128106Y125394D01*
X128579Y126011D01*
X128877Y126729D01*
X128906Y126949D01*
X129000Y127022D01*
X129771Y127123D01*
X130489Y127421D01*
X131106Y127894D01*
X131579Y128511D01*
X131877Y129229D01*
X131978Y130000D01*
X131877Y130771D01*
X131579Y131489D01*
X131106Y132106D01*
X130489Y132579D01*
X129771Y132877D01*
X129000Y132978D01*
X128229Y132877D01*
X127511Y132579D01*
X127122Y132281D01*
X125763D01*
X125433Y132657D01*
X125478Y133000D01*
X125377Y133771D01*
X125079Y134489D01*
X124606Y135106D01*
X123989Y135579D01*
X123271Y135877D01*
X122500Y135978D01*
X121729Y135877D01*
X121011Y135579D01*
X120875Y135475D01*
X120442Y135725D01*
X120478Y136000D01*
X120377Y136771D01*
X120079Y137489D01*
X119606Y138106D01*
X118989Y138579D01*
X118271Y138877D01*
X117500Y138978D01*
X116729Y138877D01*
X116011Y138579D01*
X115407Y138116D01*
X114350D01*
X114021Y138491D01*
X114043Y138665D01*
X113942Y139436D01*
X113645Y140155D01*
X113171Y140771D01*
X112554Y141245D01*
X111836Y141542D01*
X111065Y141644D01*
X110294Y141542D01*
X109576Y141245D01*
X108959Y140771D01*
X108526Y140207D01*
X108027Y140190D01*
X107949Y140279D01*
X107978Y140500D01*
X107877Y141271D01*
X107579Y141989D01*
X107106Y142606D01*
X106489Y143079D01*
X105771Y143377D01*
X105000Y143478D01*
D02*
G37*
G36*
X366748Y140701D02*
Y134465D01*
X372984D01*
X372942Y134896D01*
X372524Y136271D01*
X371846Y137540D01*
X370934Y138651D01*
X369823Y139563D01*
X368555Y140241D01*
X367179Y140658D01*
X366748Y140701D01*
D02*
G37*
G36*
X133500Y173978D02*
X132729Y173877D01*
X132011Y173579D01*
X131394Y173106D01*
X130921Y172489D01*
X130623Y171771D01*
X130522Y171000D01*
X130623Y170229D01*
X130921Y169511D01*
X131385Y168906D01*
Y149093D01*
X130921Y148489D01*
X130623Y147771D01*
X130522Y147000D01*
X130623Y146229D01*
X130921Y145511D01*
X131394Y144894D01*
X132011Y144421D01*
X132729Y144123D01*
X133500Y144022D01*
X134271Y144123D01*
X134989Y144421D01*
X135606Y144894D01*
X136079Y145511D01*
X136377Y146229D01*
X136478Y147000D01*
X136377Y147771D01*
X136079Y148489D01*
X135616Y149093D01*
Y168906D01*
X136079Y169511D01*
X136377Y170229D01*
X136478Y171000D01*
X136377Y171771D01*
X136079Y172489D01*
X135606Y173106D01*
X134989Y173579D01*
X134271Y173877D01*
X133500Y173978D01*
D02*
G37*
G36*
X379921Y150334D02*
X378739Y150179D01*
X377638Y149723D01*
X376692Y148997D01*
X375966Y148051D01*
X375510Y146950D01*
X375355Y145768D01*
X375510Y144586D01*
X375966Y143484D01*
X376692Y142539D01*
X377638Y141813D01*
X378739Y141357D01*
X379921Y141201D01*
X381103Y141357D01*
X382205Y141813D01*
X383150Y142539D01*
X383876Y143484D01*
X384332Y144586D01*
X384488Y145768D01*
X384332Y146950D01*
X383876Y148051D01*
X383150Y148997D01*
X382205Y149723D01*
X381103Y150179D01*
X379921Y150334D01*
D02*
G37*
G36*
X372984Y132465D02*
X366748D01*
Y126229D01*
X367179Y126271D01*
X368555Y126688D01*
X369823Y127366D01*
X370934Y128278D01*
X371846Y129390D01*
X372524Y130658D01*
X372942Y132034D01*
X372984Y132465D01*
D02*
G37*
G36*
X364748D02*
X358512D01*
X358554Y132034D01*
X358972Y130658D01*
X359650Y129390D01*
X360562Y128278D01*
X361673Y127366D01*
X362941Y126688D01*
X364317Y126271D01*
X364748Y126229D01*
Y132465D01*
D02*
G37*
G36*
Y140701D02*
X364317Y140658D01*
X362941Y140241D01*
X361673Y139563D01*
X360562Y138651D01*
X359650Y137540D01*
X358972Y136271D01*
X358554Y134896D01*
X358512Y134465D01*
X364748D01*
Y140701D01*
D02*
G37*
G36*
X379921Y140256D02*
X378739Y140100D01*
X377638Y139644D01*
X376692Y138918D01*
X375966Y137972D01*
X375510Y136871D01*
X375355Y135689D01*
X375510Y134507D01*
X375966Y133406D01*
X376692Y132460D01*
X377638Y131734D01*
X378739Y131278D01*
X379921Y131122D01*
X381103Y131278D01*
X382205Y131734D01*
X383150Y132460D01*
X383876Y133406D01*
X384332Y134507D01*
X384488Y135689D01*
X384332Y136871D01*
X383876Y137972D01*
X383150Y138918D01*
X382205Y139644D01*
X381103Y140100D01*
X379921Y140256D01*
D02*
G37*
G36*
Y307756D02*
X378739Y307600D01*
X377638Y307144D01*
X377111Y306739D01*
X376651Y306648D01*
X376438Y306683D01*
X376135Y307135D01*
X375615Y307483D01*
X375000Y307606D01*
X300000D01*
X299385Y307483D01*
X298865Y307135D01*
X298517Y306614D01*
X298394Y306000D01*
Y276000D01*
X298494Y275500D01*
X298394Y275000D01*
Y241000D01*
X298517Y240386D01*
X298865Y239865D01*
X299385Y239517D01*
X300000Y239394D01*
X375000D01*
X375615Y239517D01*
X376135Y239865D01*
X376483Y240386D01*
X376606Y241000D01*
Y259717D01*
X377054Y259938D01*
X377638Y259490D01*
X378739Y259034D01*
X379921Y258878D01*
X381103Y259034D01*
X382205Y259490D01*
X383150Y260216D01*
X383876Y261161D01*
X384332Y262263D01*
X384488Y263445D01*
X384332Y264627D01*
X383876Y265728D01*
X383150Y266674D01*
X382205Y267400D01*
X381103Y267856D01*
X379921Y268011D01*
X378739Y267856D01*
X377638Y267400D01*
X377054Y266952D01*
X376606Y267173D01*
Y269796D01*
X377054Y270017D01*
X377638Y269569D01*
X378739Y269113D01*
X379921Y268957D01*
X381103Y269113D01*
X382205Y269569D01*
X383150Y270294D01*
X383876Y271240D01*
X384332Y272342D01*
X384488Y273524D01*
X384332Y274706D01*
X383876Y275807D01*
X383150Y276753D01*
X382205Y277478D01*
X381103Y277935D01*
X379921Y278090D01*
X378739Y277935D01*
X377638Y277478D01*
X377054Y277030D01*
X376606Y277252D01*
Y279874D01*
X377054Y280096D01*
X377638Y279648D01*
X378739Y279191D01*
X379921Y279036D01*
X381103Y279191D01*
X382205Y279648D01*
X383150Y280373D01*
X383876Y281319D01*
X384332Y282420D01*
X384488Y283602D01*
X384332Y284784D01*
X383876Y285886D01*
X383150Y286831D01*
X382205Y287557D01*
X381103Y288013D01*
X379921Y288169D01*
X378739Y288013D01*
X377638Y287557D01*
X377054Y287109D01*
X376606Y287330D01*
Y299461D01*
X377054Y299682D01*
X377638Y299234D01*
X378739Y298778D01*
X379921Y298622D01*
X381103Y298778D01*
X382205Y299234D01*
X383150Y299960D01*
X383876Y300906D01*
X384332Y302007D01*
X384488Y303189D01*
X384332Y304371D01*
X383876Y305472D01*
X383150Y306418D01*
X382205Y307144D01*
X381103Y307600D01*
X379921Y307756D01*
D02*
G37*
G36*
X203000Y396606D02*
X202487Y396504D01*
X202385Y396483D01*
X201865Y396135D01*
X190865Y385135D01*
X190517Y384614D01*
X190496Y384512D01*
X190394Y384000D01*
X190394Y384000D01*
Y315242D01*
X189979Y314964D01*
X189933Y314983D01*
X189000Y315106D01*
X188067Y314983D01*
X187328Y314677D01*
X174949D01*
X174788Y315150D01*
X175106Y315394D01*
X175579Y316011D01*
X175877Y316729D01*
X175978Y317500D01*
X175877Y318271D01*
X175579Y318989D01*
X175106Y319606D01*
X174489Y320079D01*
X173771Y320377D01*
X173000Y320478D01*
X172229Y320377D01*
X171511Y320079D01*
X170906Y319616D01*
X111093D01*
X110489Y320079D01*
X109771Y320377D01*
X109000Y320478D01*
X108229Y320377D01*
X107511Y320079D01*
X106894Y319606D01*
X106421Y318989D01*
X106123Y318271D01*
X106022Y317500D01*
X106123Y316729D01*
X106421Y316011D01*
X106894Y315394D01*
X107212Y315150D01*
X107051Y314677D01*
X73000D01*
X72178Y314568D01*
X71412Y314251D01*
X70754Y313746D01*
X57254Y300246D01*
X56749Y299588D01*
X56432Y298822D01*
X56323Y298000D01*
Y87500D01*
Y47672D01*
X56017Y46933D01*
X55894Y46000D01*
X56017Y45067D01*
X56377Y44197D01*
X56950Y43450D01*
X57697Y42877D01*
X58567Y42517D01*
X59500Y42394D01*
X60433Y42517D01*
X61303Y42877D01*
X62050Y43450D01*
X62623Y44197D01*
X62983Y45067D01*
X63106Y46000D01*
X62983Y46933D01*
X62677Y47672D01*
Y84323D01*
X145828D01*
X146567Y84017D01*
X147500Y83894D01*
X148433Y84017D01*
X149303Y84377D01*
X150050Y84950D01*
X150623Y85697D01*
X150983Y86567D01*
X151106Y87500D01*
X150983Y88433D01*
X150623Y89303D01*
X150050Y90050D01*
X149303Y90623D01*
X148433Y90983D01*
X147500Y91106D01*
X146567Y90983D01*
X145828Y90677D01*
X62677D01*
Y117212D01*
X63150Y117372D01*
X63681Y116681D01*
X64507Y116047D01*
X65468Y115649D01*
X65500Y115645D01*
Y119500D01*
Y123355D01*
X65468Y123351D01*
X64507Y122953D01*
X63681Y122319D01*
X63150Y121628D01*
X62677Y121788D01*
Y126267D01*
X63150Y126428D01*
X63271Y126271D01*
X64217Y125545D01*
X65318Y125089D01*
X66500Y124933D01*
X67682Y125089D01*
X68783Y125545D01*
X69729Y126271D01*
X70455Y127217D01*
X70911Y128318D01*
X71067Y129500D01*
X70911Y130682D01*
X70455Y131783D01*
X69729Y132729D01*
X68783Y133455D01*
X67682Y133911D01*
X66500Y134067D01*
X65318Y133911D01*
X64217Y133455D01*
X63271Y132729D01*
X63150Y132572D01*
X62677Y132732D01*
Y136267D01*
X63150Y136428D01*
X63271Y136271D01*
X64217Y135545D01*
X65318Y135089D01*
X66500Y134933D01*
X67682Y135089D01*
X68783Y135545D01*
X69729Y136271D01*
X70455Y137217D01*
X70911Y138318D01*
X71067Y139500D01*
X70911Y140682D01*
X70455Y141783D01*
X69729Y142729D01*
X68783Y143455D01*
X67682Y143911D01*
X66500Y144067D01*
X65318Y143911D01*
X64217Y143455D01*
X63271Y142729D01*
X63150Y142572D01*
X62677Y142733D01*
Y144973D01*
X71027D01*
Y146919D01*
X77419D01*
Y105484D01*
X77123Y104771D01*
X77022Y104000D01*
X77123Y103229D01*
X77421Y102511D01*
X77894Y101894D01*
X78511Y101421D01*
X79229Y101123D01*
X80000Y101022D01*
X80771Y101123D01*
X81489Y101421D01*
X82106Y101894D01*
X82579Y102511D01*
X82877Y103229D01*
X82978Y104000D01*
X82877Y104771D01*
X82581Y105484D01*
Y146919D01*
X112431D01*
X121675Y137675D01*
X122209Y137265D01*
X122650Y137082D01*
X122832Y137007D01*
X123500Y136919D01*
X171000D01*
X171668Y137007D01*
X171979Y137136D01*
X172291Y137265D01*
X172825Y137675D01*
X176825Y141675D01*
X177235Y142209D01*
X177235Y142209D01*
X177235Y142209D01*
X177493Y142832D01*
X177581Y143500D01*
Y148492D01*
X178123Y149197D01*
X178483Y150067D01*
X178606Y151000D01*
X178483Y151933D01*
X178123Y152803D01*
X177550Y153550D01*
X176803Y154123D01*
X175933Y154483D01*
X175000Y154606D01*
X174067Y154483D01*
X173197Y154123D01*
X172450Y153550D01*
X171877Y152803D01*
X171517Y151933D01*
X171394Y151000D01*
X171517Y150067D01*
X171877Y149197D01*
X172419Y148492D01*
Y144569D01*
X169931Y142081D01*
X124569D01*
X115325Y151325D01*
X114791Y151735D01*
X114479Y151864D01*
X114168Y151993D01*
X113500Y152081D01*
X71027D01*
Y154027D01*
X69081D01*
Y218919D01*
X78515D01*
X79229Y218623D01*
X80000Y218522D01*
X80771Y218623D01*
X81489Y218921D01*
X82106Y219394D01*
X82579Y220011D01*
X82877Y220729D01*
X82978Y221500D01*
X82877Y222271D01*
X82579Y222989D01*
X82106Y223606D01*
X81489Y224079D01*
X80771Y224377D01*
X80000Y224478D01*
X79229Y224377D01*
X78515Y224081D01*
X69081D01*
Y248516D01*
X69377Y249229D01*
X69478Y250000D01*
X69377Y250771D01*
X69079Y251489D01*
X68606Y252106D01*
X67989Y252579D01*
X67271Y252877D01*
X66500Y252978D01*
X65729Y252877D01*
X65011Y252579D01*
X64394Y252106D01*
X63921Y251489D01*
X63623Y250771D01*
X63522Y250000D01*
X63623Y249229D01*
X63919Y248516D01*
Y221500D01*
Y154027D01*
X62677D01*
Y296684D01*
X74316Y308323D01*
X187328D01*
X188067Y308017D01*
X189000Y307894D01*
X189933Y308017D01*
X189979Y308036D01*
X190394Y307758D01*
Y298000D01*
Y182000D01*
X190394Y182000D01*
X190496Y181488D01*
X190517Y181386D01*
X190865Y180865D01*
X190865Y180865D01*
X198865Y172865D01*
X201865Y169865D01*
X202385Y169517D01*
X202487Y169496D01*
X203000Y169394D01*
X203000Y169394D01*
X226335D01*
X235865Y159865D01*
X238394Y157335D01*
Y147662D01*
X237895Y147629D01*
X237877Y147771D01*
X237579Y148489D01*
X237106Y149106D01*
X236489Y149579D01*
X235771Y149877D01*
X235000Y149978D01*
X234229Y149877D01*
X233511Y149579D01*
X232907Y149116D01*
X186593D01*
X185989Y149579D01*
X185271Y149877D01*
X184500Y149978D01*
X183729Y149877D01*
X183011Y149579D01*
X182394Y149106D01*
X181921Y148489D01*
X181623Y147771D01*
X181522Y147000D01*
X181623Y146229D01*
X181921Y145511D01*
X182394Y144894D01*
X183011Y144421D01*
X183729Y144123D01*
X184500Y144022D01*
X185271Y144123D01*
X185989Y144421D01*
X186593Y144885D01*
X232907D01*
X233511Y144421D01*
X234229Y144123D01*
X235000Y144022D01*
X235771Y144123D01*
X236489Y144421D01*
X237106Y144894D01*
X237579Y145511D01*
X237877Y146229D01*
X237895Y146371D01*
X238394Y146338D01*
Y140000D01*
Y133000D01*
X238394Y133000D01*
X238496Y132487D01*
X238517Y132386D01*
X238865Y131865D01*
X238865Y131865D01*
X246865Y123865D01*
X246865Y123865D01*
X256394Y114335D01*
Y88000D01*
Y65000D01*
X256394Y65000D01*
X256496Y64487D01*
X256517Y64385D01*
X256865Y63865D01*
X267865Y52865D01*
X281865Y38865D01*
X282385Y38517D01*
X282488Y38496D01*
X283000Y38394D01*
X283000Y38394D01*
X374000D01*
X374615Y38517D01*
X375135Y38865D01*
X375483Y39386D01*
X375606Y40000D01*
Y43531D01*
X376079Y43692D01*
X376692Y42893D01*
X377638Y42167D01*
X378739Y41711D01*
X379921Y41555D01*
X381103Y41711D01*
X382205Y42167D01*
X383150Y42893D01*
X383876Y43839D01*
X384332Y44940D01*
X384488Y46122D01*
X384332Y47304D01*
X383876Y48405D01*
X383150Y49351D01*
X382205Y50077D01*
X381103Y50533D01*
X379921Y50689D01*
X378739Y50533D01*
X377638Y50077D01*
X376692Y49351D01*
X376079Y48552D01*
X375606Y48713D01*
Y53610D01*
X376079Y53771D01*
X376692Y52972D01*
X377638Y52246D01*
X378739Y51790D01*
X379921Y51634D01*
X381103Y51790D01*
X382205Y52246D01*
X383150Y52972D01*
X383876Y53917D01*
X384332Y55019D01*
X384488Y56201D01*
X384332Y57383D01*
X383876Y58484D01*
X383150Y59430D01*
X382205Y60156D01*
X381103Y60612D01*
X379921Y60767D01*
X378739Y60612D01*
X377638Y60156D01*
X376692Y59430D01*
X376079Y58631D01*
X375606Y58792D01*
Y63689D01*
X376079Y63849D01*
X376692Y63051D01*
X377638Y62325D01*
X378739Y61869D01*
X379921Y61713D01*
X381103Y61869D01*
X382205Y62325D01*
X383150Y63051D01*
X383876Y63996D01*
X384332Y65098D01*
X384488Y66280D01*
X384332Y67462D01*
X383876Y68563D01*
X383150Y69509D01*
X382205Y70234D01*
X381103Y70691D01*
X379921Y70846D01*
X378739Y70691D01*
X377638Y70234D01*
X376692Y69509D01*
X376079Y68710D01*
X375606Y68871D01*
Y83275D01*
X376079Y83436D01*
X376692Y82637D01*
X377638Y81911D01*
X378739Y81455D01*
X379921Y81300D01*
X381103Y81455D01*
X382205Y81911D01*
X383150Y82637D01*
X383876Y83583D01*
X384332Y84684D01*
X384488Y85866D01*
X384332Y87048D01*
X383876Y88149D01*
X383404Y88765D01*
X383780Y89095D01*
X388597Y84277D01*
Y30376D01*
X385124Y26903D01*
X322589D01*
X318976Y30516D01*
X318877Y31271D01*
X318579Y31989D01*
X318106Y32606D01*
X317489Y33079D01*
X316771Y33377D01*
X316000Y33478D01*
X315229Y33377D01*
X314511Y33079D01*
X313894Y32606D01*
X313421Y31989D01*
X313123Y31271D01*
X313022Y30500D01*
X313123Y29729D01*
X313421Y29011D01*
X313894Y28394D01*
X314511Y27921D01*
X315229Y27623D01*
X315985Y27524D01*
X317931Y25577D01*
X317740Y25115D01*
X314376D01*
X306976Y32515D01*
X306877Y33271D01*
X306579Y33989D01*
X306106Y34606D01*
X305489Y35079D01*
X304771Y35377D01*
X304000Y35478D01*
X303229Y35377D01*
X302511Y35079D01*
X301894Y34606D01*
X301421Y33989D01*
X301123Y33271D01*
X301022Y32500D01*
X301123Y31729D01*
X301421Y31011D01*
X301894Y30394D01*
X302511Y29921D01*
X303229Y29623D01*
X303984Y29524D01*
X312004Y21504D01*
X312690Y21046D01*
X313500Y20885D01*
X387500D01*
X388310Y21046D01*
X388996Y21504D01*
X393996Y26504D01*
X394454Y27190D01*
X394616Y28000D01*
Y93445D01*
X394454Y94254D01*
X393996Y94941D01*
X384263Y104674D01*
X384332Y104842D01*
X384488Y106024D01*
X384332Y107205D01*
X383876Y108307D01*
X383150Y109253D01*
X382205Y109978D01*
X381103Y110435D01*
X379921Y110590D01*
X378739Y110435D01*
X377638Y109978D01*
X376692Y109253D01*
X376079Y108454D01*
X375606Y108615D01*
Y113512D01*
X376079Y113672D01*
X376692Y112873D01*
X377638Y112148D01*
X378739Y111691D01*
X379921Y111536D01*
X381103Y111691D01*
X382205Y112148D01*
X383150Y112873D01*
X383876Y113819D01*
X384332Y114920D01*
X384488Y116102D01*
X384332Y117284D01*
X383876Y118386D01*
X383150Y119332D01*
X382205Y120057D01*
X381103Y120513D01*
X379921Y120669D01*
X378739Y120513D01*
X377638Y120057D01*
X376692Y119332D01*
X375966Y118386D01*
X375531Y117336D01*
X375053Y117191D01*
X374615Y117483D01*
X374000Y117606D01*
X356606D01*
Y219000D01*
X356483Y219615D01*
X356135Y220135D01*
X356135Y220135D01*
X344135Y232135D01*
X343615Y232483D01*
X343513Y232504D01*
X343000Y232606D01*
X343000Y232606D01*
X304665D01*
X291606Y245665D01*
Y395000D01*
X291483Y395615D01*
X291135Y396135D01*
X290615Y396483D01*
X290000Y396606D01*
X203000D01*
X203000Y396606D01*
D02*
G37*
G36*
X173500Y287978D02*
X172729Y287877D01*
X172011Y287579D01*
X171406Y287116D01*
X114093D01*
X113489Y287579D01*
X112771Y287877D01*
X112000Y287978D01*
X111229Y287877D01*
X110511Y287579D01*
X109894Y287106D01*
X109421Y286489D01*
X109123Y285771D01*
X109022Y285000D01*
X109123Y284229D01*
X109421Y283511D01*
X109894Y282894D01*
X110511Y282421D01*
X111229Y282123D01*
X112000Y282022D01*
X112771Y282123D01*
X113489Y282421D01*
X114093Y282885D01*
X171406D01*
X172011Y282421D01*
X172729Y282123D01*
X173500Y282022D01*
X174271Y282123D01*
X174989Y282421D01*
X175606Y282894D01*
X176079Y283511D01*
X176377Y284229D01*
X176478Y285000D01*
X176377Y285771D01*
X176079Y286489D01*
X175606Y287106D01*
X174989Y287579D01*
X174271Y287877D01*
X173500Y287978D01*
D02*
G37*
G36*
X375000Y386606D02*
X300000D01*
X299385Y386483D01*
X298865Y386135D01*
X298517Y385614D01*
X298394Y385000D01*
Y347000D01*
X298517Y346386D01*
X298774Y346000D01*
X298517Y345615D01*
X298394Y345000D01*
Y312000D01*
X298517Y311385D01*
X298865Y310865D01*
X299385Y310517D01*
X300000Y310394D01*
X375000D01*
X375615Y310517D01*
X376084Y310831D01*
X376692Y310039D01*
X377638Y309313D01*
X378739Y308857D01*
X379921Y308701D01*
X381103Y308857D01*
X382205Y309313D01*
X383150Y310039D01*
X383876Y310984D01*
X384332Y312086D01*
X384488Y313268D01*
X384332Y314450D01*
X383876Y315551D01*
X383150Y316497D01*
X382205Y317223D01*
X381103Y317679D01*
X379921Y317834D01*
X378739Y317679D01*
X377638Y317223D01*
X377054Y316775D01*
X376606Y316996D01*
Y319618D01*
X377054Y319840D01*
X377638Y319392D01*
X378739Y318935D01*
X379921Y318780D01*
X381103Y318935D01*
X382205Y319392D01*
X383150Y320117D01*
X383876Y321063D01*
X384332Y322165D01*
X384488Y323346D01*
X384332Y324528D01*
X383876Y325630D01*
X383150Y326575D01*
X382205Y327301D01*
X381103Y327757D01*
X379921Y327913D01*
X378739Y327757D01*
X377638Y327301D01*
X377054Y326853D01*
X376606Y327074D01*
Y329697D01*
X377054Y329918D01*
X377638Y329470D01*
X378739Y329014D01*
X379921Y328859D01*
X381103Y329014D01*
X382205Y329470D01*
X383150Y330196D01*
X383876Y331142D01*
X384332Y332243D01*
X384488Y333425D01*
X384332Y334607D01*
X383876Y335708D01*
X383150Y336654D01*
X382205Y337380D01*
X381103Y337836D01*
X379921Y337992D01*
X378739Y337836D01*
X377638Y337380D01*
X377054Y336932D01*
X376606Y337153D01*
Y349284D01*
X377054Y349505D01*
X377638Y349057D01*
X378739Y348601D01*
X379921Y348445D01*
X381103Y348601D01*
X382205Y349057D01*
X383150Y349783D01*
X383876Y350729D01*
X384332Y351830D01*
X384488Y353012D01*
X384332Y354194D01*
X383876Y355295D01*
X383150Y356241D01*
X382205Y356967D01*
X381103Y357423D01*
X379921Y357578D01*
X378739Y357423D01*
X377638Y356967D01*
X377054Y356519D01*
X376606Y356740D01*
Y359363D01*
X377054Y359584D01*
X377638Y359136D01*
X378739Y358680D01*
X379921Y358524D01*
X381103Y358680D01*
X382205Y359136D01*
X383150Y359861D01*
X383876Y360807D01*
X384332Y361909D01*
X384488Y363091D01*
X384332Y364272D01*
X383876Y365374D01*
X383150Y366320D01*
X382205Y367045D01*
X381103Y367502D01*
X379921Y367657D01*
X378739Y367502D01*
X377638Y367045D01*
X377054Y366597D01*
X376606Y366819D01*
Y369441D01*
X377054Y369663D01*
X377638Y369215D01*
X378739Y368758D01*
X379921Y368603D01*
X381103Y368758D01*
X382205Y369215D01*
X383150Y369940D01*
X383876Y370886D01*
X384332Y371988D01*
X384488Y373169D01*
X384332Y374351D01*
X383876Y375453D01*
X383150Y376398D01*
X382205Y377124D01*
X381103Y377580D01*
X379921Y377736D01*
X378739Y377580D01*
X377638Y377124D01*
X377054Y376676D01*
X376606Y376897D01*
Y385000D01*
X376483Y385614D01*
X376135Y386135D01*
X375615Y386483D01*
X375000Y386606D01*
D02*
G37*
G36*
X80500Y415478D02*
X79729Y415377D01*
X79011Y415079D01*
X78394Y414606D01*
X77921Y413989D01*
X77623Y413271D01*
X77522Y412500D01*
X77623Y411729D01*
X77921Y411011D01*
X78385Y410406D01*
Y393093D01*
X77921Y392489D01*
X77623Y391771D01*
X77522Y391000D01*
X77623Y390229D01*
X77921Y389511D01*
X78394Y388894D01*
X79011Y388421D01*
X79729Y388123D01*
X80500Y388022D01*
X81271Y388123D01*
X81989Y388421D01*
X82606Y388894D01*
X83079Y389511D01*
X83377Y390229D01*
X83478Y391000D01*
X83377Y391771D01*
X83079Y392489D01*
X82615Y393093D01*
Y410406D01*
X83079Y411011D01*
X83377Y411729D01*
X83478Y412500D01*
X83377Y413271D01*
X83079Y413989D01*
X82606Y414606D01*
X81989Y415079D01*
X81271Y415377D01*
X80500Y415478D01*
D02*
G37*
G36*
X113400Y412778D02*
X112629Y412677D01*
X111911Y412379D01*
X111294Y411906D01*
X110821Y411289D01*
X110523Y410571D01*
X110422Y409800D01*
X110523Y409029D01*
X110821Y408311D01*
X111284Y407706D01*
Y385093D01*
X110821Y384489D01*
X110523Y383771D01*
X110422Y383000D01*
X110523Y382229D01*
X110821Y381511D01*
X111294Y380894D01*
X111911Y380421D01*
X112629Y380123D01*
X113400Y380022D01*
X114171Y380123D01*
X114889Y380421D01*
X115506Y380894D01*
X115979Y381511D01*
X116277Y382229D01*
X116378Y383000D01*
X116277Y383771D01*
X115979Y384489D01*
X115515Y385093D01*
Y407706D01*
X115979Y408311D01*
X116277Y409029D01*
X116378Y409800D01*
X116277Y410571D01*
X115979Y411289D01*
X115506Y411906D01*
X114889Y412379D01*
X114171Y412677D01*
X113400Y412778D01*
D02*
G37*
%LPD*%
G36*
X375000Y312000D02*
X300000D01*
Y345000D01*
X352000D01*
Y360000D01*
X375000D01*
Y312000D01*
D02*
G37*
G36*
Y276000D02*
X300000D01*
Y306000D01*
X375000D01*
Y276000D01*
D02*
G37*
G36*
Y241000D02*
X300000D01*
Y275000D01*
X375000D01*
Y241000D01*
D02*
G37*
G36*
Y362000D02*
X350000D01*
Y347000D01*
X300000D01*
Y385000D01*
X375000D01*
Y362000D01*
D02*
G37*
G36*
X290000Y245000D02*
X304000Y231000D01*
X343000D01*
X355000Y219000D01*
Y116000D01*
X374000D01*
Y40000D01*
X283000D01*
X269000Y54000D01*
X258000Y65000D01*
Y88000D01*
Y115000D01*
X248000Y125000D01*
X240000Y133000D01*
Y140000D01*
Y158000D01*
X237000Y161000D01*
X227000Y171000D01*
X203000D01*
X200000Y174000D01*
X192000Y182000D01*
Y298000D01*
Y309537D01*
X192123Y309697D01*
X192483Y310567D01*
X192606Y311500D01*
X192483Y312433D01*
X192123Y313303D01*
X192000Y313463D01*
Y384000D01*
X203000Y395000D01*
X290000D01*
Y245000D01*
D02*
G37*
%LPC*%
G36*
X275748Y375343D02*
X274412Y375168D01*
X273167Y374652D01*
X272098Y373832D01*
X271277Y372762D01*
X270762Y371517D01*
X270586Y370181D01*
X270762Y368845D01*
X271277Y367600D01*
X272098Y366531D01*
X273167Y365711D01*
X274412Y365195D01*
X275748Y365019D01*
X277084Y365195D01*
X278329Y365711D01*
X279398Y366531D01*
X280219Y367600D01*
X280734Y368845D01*
X280910Y370181D01*
X280734Y371517D01*
X280219Y372762D01*
X279398Y373832D01*
X278329Y374652D01*
X277084Y375168D01*
X275748Y375343D01*
D02*
G37*
G36*
Y356446D02*
X274412Y356270D01*
X273167Y355754D01*
X272098Y354934D01*
X271277Y353865D01*
X270762Y352620D01*
X270586Y351283D01*
X270762Y349947D01*
X271277Y348702D01*
X272098Y347633D01*
X273167Y346813D01*
X274412Y346297D01*
X275748Y346121D01*
X277084Y346297D01*
X278329Y346813D01*
X279398Y347633D01*
X280219Y348702D01*
X280734Y349947D01*
X280910Y351283D01*
X280734Y352620D01*
X280219Y353865D01*
X279398Y354934D01*
X278329Y355754D01*
X277084Y356270D01*
X275748Y356446D01*
D02*
G37*
G36*
X260000Y358402D02*
X258688Y358273D01*
X257426Y357891D01*
X256264Y357269D01*
X255244Y356433D01*
X254408Y355414D01*
X253787Y354251D01*
X253404Y352989D01*
X253275Y351677D01*
Y350890D01*
X253404Y349578D01*
X253787Y348316D01*
X254408Y347153D01*
X255244Y346134D01*
X256264Y345298D01*
X257426Y344676D01*
X258688Y344294D01*
X260000Y344164D01*
X261312Y344294D01*
X262574Y344676D01*
X263736Y345298D01*
X264756Y346134D01*
X265592Y347153D01*
X266213Y348316D01*
X266596Y349578D01*
X266725Y350890D01*
Y351677D01*
X266596Y352989D01*
X266213Y354251D01*
X265592Y355414D01*
X264756Y356433D01*
X263736Y357269D01*
X262574Y357891D01*
X261312Y358273D01*
X260000Y358402D01*
D02*
G37*
G36*
X265162Y369681D02*
X260500D01*
Y364297D01*
X261336Y364407D01*
X262581Y364923D01*
X263650Y365743D01*
X264471Y366813D01*
X264986Y368058D01*
X265162Y369394D01*
Y369681D01*
D02*
G37*
G36*
X259500D02*
X254838D01*
Y369394D01*
X255014Y368058D01*
X255529Y366813D01*
X256350Y365743D01*
X257419Y364923D01*
X258664Y364407D01*
X259500Y364297D01*
Y369681D01*
D02*
G37*
G36*
X365248Y55099D02*
X364513Y55027D01*
X363326Y54667D01*
X362231Y54082D01*
X361272Y53295D01*
X360485Y52335D01*
X359900Y51241D01*
X359540Y50054D01*
X359468Y49319D01*
X365248D01*
Y55099D01*
D02*
G37*
G36*
X366248D02*
Y49319D01*
X372028D01*
X371956Y50054D01*
X371596Y51241D01*
X371011Y52335D01*
X370224Y53295D01*
X369265Y54082D01*
X368170Y54667D01*
X366983Y55027D01*
X366248Y55099D01*
D02*
G37*
G36*
X372028Y48319D02*
X366248D01*
Y42538D01*
X366983Y42611D01*
X368170Y42971D01*
X369265Y43556D01*
X370224Y44343D01*
X371011Y45302D01*
X371596Y46396D01*
X371956Y47584D01*
X372028Y48319D01*
D02*
G37*
G36*
X260500Y376065D02*
Y370681D01*
X265162D01*
Y370969D01*
X264986Y372305D01*
X264471Y373550D01*
X263650Y374619D01*
X262581Y375439D01*
X261336Y375955D01*
X260500Y376065D01*
D02*
G37*
G36*
X365248Y48319D02*
X359468D01*
X359540Y47584D01*
X359900Y46396D01*
X360485Y45302D01*
X361272Y44343D01*
X362231Y43556D01*
X363326Y42971D01*
X364513Y42611D01*
X365248Y42538D01*
Y48319D01*
D02*
G37*
G36*
X366248Y74784D02*
Y69004D01*
X372028D01*
X371956Y69739D01*
X371596Y70926D01*
X371011Y72021D01*
X370224Y72980D01*
X369265Y73767D01*
X368170Y74352D01*
X366983Y74712D01*
X366248Y74784D01*
D02*
G37*
G36*
X259500Y376065D02*
X258664Y375955D01*
X257419Y375439D01*
X256350Y374619D01*
X255529Y373550D01*
X255014Y372305D01*
X254838Y370969D01*
Y370681D01*
X259500D01*
Y376065D01*
D02*
G37*
G36*
X365248Y74784D02*
X364513Y74712D01*
X363326Y74352D01*
X362231Y73767D01*
X361272Y72980D01*
X360485Y72021D01*
X359900Y70926D01*
X359540Y69739D01*
X359468Y69004D01*
X365248D01*
Y74784D01*
D02*
G37*
G36*
Y68004D02*
X359468D01*
X359540Y67269D01*
X359900Y66082D01*
X360485Y64987D01*
X361272Y64028D01*
X362231Y63241D01*
X363326Y62656D01*
X364513Y62296D01*
X365248Y62224D01*
Y68004D01*
D02*
G37*
G36*
X372028D02*
X366248D01*
Y62224D01*
X366983Y62296D01*
X368170Y62656D01*
X369265Y63241D01*
X370224Y64028D01*
X371011Y64987D01*
X371596Y66082D01*
X371956Y67269D01*
X372028Y68004D01*
D02*
G37*
G36*
X260500Y343388D02*
Y338398D01*
X265148D01*
X264986Y339627D01*
X264471Y340872D01*
X263650Y341942D01*
X262581Y342762D01*
X261336Y343278D01*
X260500Y343388D01*
D02*
G37*
G36*
Y272388D02*
Y267398D01*
X265148D01*
X264986Y268627D01*
X264471Y269872D01*
X263650Y270942D01*
X262581Y271762D01*
X261336Y272278D01*
X260500Y272388D01*
D02*
G37*
G36*
X259500D02*
X258664Y272278D01*
X257419Y271762D01*
X256350Y270942D01*
X255529Y269872D01*
X255014Y268627D01*
X254852Y267398D01*
X259500D01*
Y272388D01*
D02*
G37*
G36*
X260000Y287402D02*
X258688Y287273D01*
X257426Y286891D01*
X256264Y286269D01*
X255244Y285433D01*
X254408Y284414D01*
X253787Y283251D01*
X253404Y281989D01*
X253275Y280677D01*
Y279890D01*
X253404Y278578D01*
X253787Y277316D01*
X254408Y276153D01*
X255244Y275134D01*
X256264Y274298D01*
X257426Y273676D01*
X258688Y273294D01*
X260000Y273164D01*
X261312Y273294D01*
X262574Y273676D01*
X263736Y274298D01*
X264756Y275134D01*
X265592Y276153D01*
X266213Y277316D01*
X266596Y278578D01*
X266725Y279890D01*
Y280677D01*
X266596Y281989D01*
X266213Y283251D01*
X265592Y284414D01*
X264756Y285433D01*
X263736Y286269D01*
X262574Y286891D01*
X261312Y287273D01*
X260000Y287402D01*
D02*
G37*
G36*
X259500Y298681D02*
X254838D01*
Y298394D01*
X255014Y297058D01*
X255529Y295813D01*
X256350Y294743D01*
X257419Y293923D01*
X258664Y293407D01*
X259500Y293297D01*
Y298681D01*
D02*
G37*
G36*
X275748Y285446D02*
X274412Y285270D01*
X273167Y284754D01*
X272098Y283934D01*
X271277Y282864D01*
X270762Y281620D01*
X270586Y280283D01*
X270762Y278947D01*
X271277Y277702D01*
X272098Y276633D01*
X273167Y275813D01*
X274412Y275297D01*
X275748Y275121D01*
X277084Y275297D01*
X278329Y275813D01*
X279398Y276633D01*
X280219Y277702D01*
X280734Y278947D01*
X280910Y280283D01*
X280734Y281620D01*
X280219Y282864D01*
X279398Y283934D01*
X278329Y284754D01*
X277084Y285270D01*
X275748Y285446D01*
D02*
G37*
G36*
X260000Y255513D02*
X258688Y255383D01*
X257426Y255001D01*
X256264Y254379D01*
X255244Y253543D01*
X254408Y252524D01*
X253787Y251361D01*
X253404Y250099D01*
X253275Y248787D01*
Y247213D01*
X253404Y245901D01*
X253787Y244639D01*
X254408Y243476D01*
X255244Y242457D01*
X256264Y241621D01*
X257426Y240999D01*
X258688Y240616D01*
X260000Y240487D01*
X261312Y240616D01*
X262574Y240999D01*
X263736Y241621D01*
X264756Y242457D01*
X265592Y243476D01*
X266213Y244639D01*
X266596Y245901D01*
X266725Y247213D01*
Y248787D01*
X266596Y250099D01*
X266213Y251361D01*
X265592Y252524D01*
X264756Y253543D01*
X263736Y254379D01*
X262574Y255001D01*
X261312Y255383D01*
X260000Y255513D01*
D02*
G37*
G36*
X275748Y253162D02*
X274412Y252986D01*
X273167Y252471D01*
X272098Y251650D01*
X271277Y250581D01*
X270762Y249336D01*
X270586Y248000D01*
X270762Y246664D01*
X271277Y245419D01*
X272098Y244350D01*
X273167Y243529D01*
X274412Y243014D01*
X275748Y242838D01*
X277084Y243014D01*
X278329Y243529D01*
X279398Y244350D01*
X280219Y245419D01*
X280734Y246664D01*
X280910Y248000D01*
X280734Y249336D01*
X280219Y250581D01*
X279398Y251650D01*
X278329Y252471D01*
X277084Y252986D01*
X275748Y253162D01*
D02*
G37*
G36*
X259500Y266398D02*
X254852D01*
X255014Y265168D01*
X255529Y263923D01*
X256350Y262854D01*
X257419Y262033D01*
X258664Y261518D01*
X259500Y261407D01*
Y266398D01*
D02*
G37*
G36*
X275748Y272060D02*
X274412Y271884D01*
X273167Y271368D01*
X272098Y270548D01*
X271277Y269479D01*
X270762Y268234D01*
X270586Y266898D01*
X270762Y265562D01*
X271277Y264317D01*
X272098Y263247D01*
X273167Y262427D01*
X274412Y261911D01*
X275748Y261735D01*
X277084Y261911D01*
X278329Y262427D01*
X279398Y263247D01*
X280219Y264317D01*
X280734Y265562D01*
X280910Y266898D01*
X280734Y268234D01*
X280219Y269479D01*
X279398Y270548D01*
X278329Y271368D01*
X277084Y271884D01*
X275748Y272060D01*
D02*
G37*
G36*
X265148Y266398D02*
X260500D01*
Y261407D01*
X261336Y261518D01*
X262581Y262033D01*
X263650Y262854D01*
X264471Y263923D01*
X264986Y265168D01*
X265148Y266398D01*
D02*
G37*
G36*
X259500Y337398D02*
X254852D01*
X255014Y336168D01*
X255529Y334923D01*
X256350Y333854D01*
X257419Y333033D01*
X258664Y332518D01*
X259500Y332407D01*
Y337398D01*
D02*
G37*
G36*
X275748Y324162D02*
X274412Y323986D01*
X273167Y323471D01*
X272098Y322650D01*
X271277Y321581D01*
X270762Y320336D01*
X270586Y319000D01*
X270762Y317664D01*
X271277Y316419D01*
X272098Y315350D01*
X273167Y314529D01*
X274412Y314014D01*
X275748Y313838D01*
X277084Y314014D01*
X278329Y314529D01*
X279398Y315350D01*
X280219Y316419D01*
X280734Y317664D01*
X280910Y319000D01*
X280734Y320336D01*
X280219Y321581D01*
X279398Y322650D01*
X278329Y323471D01*
X277084Y323986D01*
X275748Y324162D01*
D02*
G37*
G36*
X265148Y337398D02*
X260500D01*
Y332407D01*
X261336Y332518D01*
X262581Y333033D01*
X263650Y333854D01*
X264471Y334923D01*
X264986Y336168D01*
X265148Y337398D01*
D02*
G37*
G36*
X259500Y343388D02*
X258664Y343278D01*
X257419Y342762D01*
X256350Y341942D01*
X255529Y340872D01*
X255014Y339627D01*
X254852Y338398D01*
X259500D01*
Y343388D01*
D02*
G37*
G36*
X275748Y343060D02*
X274412Y342884D01*
X273167Y342368D01*
X272098Y341548D01*
X271277Y340479D01*
X270762Y339234D01*
X270586Y337898D01*
X270762Y336561D01*
X271277Y335316D01*
X272098Y334247D01*
X273167Y333427D01*
X274412Y332911D01*
X275748Y332735D01*
X277084Y332911D01*
X278329Y333427D01*
X279398Y334247D01*
X280219Y335316D01*
X280734Y336561D01*
X280910Y337898D01*
X280734Y339234D01*
X280219Y340479D01*
X279398Y341548D01*
X278329Y342368D01*
X277084Y342884D01*
X275748Y343060D01*
D02*
G37*
G36*
Y304344D02*
X274412Y304168D01*
X273167Y303652D01*
X272098Y302832D01*
X271277Y301762D01*
X270762Y300517D01*
X270586Y299181D01*
X270762Y297845D01*
X271277Y296600D01*
X272098Y295531D01*
X273167Y294711D01*
X274412Y294195D01*
X275748Y294019D01*
X277084Y294195D01*
X278329Y294711D01*
X279398Y295531D01*
X280219Y296600D01*
X280734Y297845D01*
X280910Y299181D01*
X280734Y300517D01*
X280219Y301762D01*
X279398Y302832D01*
X278329Y303652D01*
X277084Y304168D01*
X275748Y304344D01*
D02*
G37*
G36*
X265162Y298681D02*
X260500D01*
Y293297D01*
X261336Y293407D01*
X262581Y293923D01*
X263650Y294743D01*
X264471Y295813D01*
X264986Y297058D01*
X265162Y298394D01*
Y298681D01*
D02*
G37*
G36*
X259500Y305065D02*
X258664Y304955D01*
X257419Y304439D01*
X256350Y303619D01*
X255529Y302550D01*
X255014Y301305D01*
X254838Y299969D01*
Y299681D01*
X259500D01*
Y305065D01*
D02*
G37*
G36*
X260000Y326513D02*
X258688Y326383D01*
X257426Y326001D01*
X256264Y325379D01*
X255244Y324543D01*
X254408Y323524D01*
X253787Y322361D01*
X253404Y321099D01*
X253275Y319787D01*
Y318213D01*
X253404Y316901D01*
X253787Y315639D01*
X254408Y314476D01*
X255244Y313457D01*
X256264Y312621D01*
X257426Y311999D01*
X258688Y311616D01*
X260000Y311487D01*
X261312Y311616D01*
X262574Y311999D01*
X263736Y312621D01*
X264756Y313457D01*
X265592Y314476D01*
X266213Y315639D01*
X266596Y316901D01*
X266725Y318213D01*
Y319787D01*
X266596Y321099D01*
X266213Y322361D01*
X265592Y323524D01*
X264756Y324543D01*
X263736Y325379D01*
X262574Y326001D01*
X261312Y326383D01*
X260000Y326513D01*
D02*
G37*
G36*
X260500Y305065D02*
Y299681D01*
X265162D01*
Y299969D01*
X264986Y301305D01*
X264471Y302550D01*
X263650Y303619D01*
X262581Y304439D01*
X261336Y304955D01*
X260500Y305065D01*
D02*
G37*
%LPD*%
D10*
X184500Y147000D02*
X235000D01*
X112000Y285000D02*
X173000D01*
X109000Y317500D02*
X173000D01*
X80500Y391000D02*
Y412500D01*
X93500Y179500D02*
X150500D01*
X153000Y182000D01*
X158000D01*
X383000Y234000D02*
Y246000D01*
X113400Y383000D02*
Y409800D01*
X90000Y137500D02*
X96944D01*
X99019Y139575D01*
X104075D01*
X105000Y140500D01*
X92500Y134500D02*
X96472D01*
X99760Y137787D01*
X110187D01*
X111065Y138665D01*
X96000Y131500D02*
X100500Y136000D01*
X117500D01*
X101500Y133000D02*
X122500D01*
X102000Y127500D02*
X126000D01*
X101665Y130165D02*
X128835D01*
X129000Y130000D01*
X97000Y128500D02*
X101500Y133000D01*
X97000Y125500D02*
X101665Y130165D01*
X97000Y122500D02*
X102000Y127500D01*
X90000Y131500D02*
X96000D01*
X92500Y128500D02*
X97000D01*
X90000Y125500D02*
X97000D01*
X92500Y122500D02*
X97000D01*
X316000Y30500D02*
X321713Y24787D01*
X386000D01*
X390713Y29500D01*
Y85153D01*
X379921Y95945D02*
X390713Y85153D01*
X379921Y106024D02*
X392500Y93445D01*
Y28000D02*
Y93445D01*
X387500Y23000D02*
X392500Y28000D01*
X313500Y23000D02*
X387500D01*
X304000Y32500D02*
X313500Y23000D01*
X78000Y32500D02*
X140000D01*
X40165Y36335D02*
X143835D01*
X144000Y36500D01*
X40000D02*
X40165Y36335D01*
X133500Y147000D02*
Y171000D01*
X173000Y285000D02*
X173500Y285500D01*
Y285000D02*
Y285500D01*
X9000Y20000D02*
X14998D01*
Y22999D01*
X13998Y23999D01*
X11999D01*
X10999Y22999D01*
Y20000D01*
X9000Y25998D02*
X12999D01*
X14998Y27997D01*
X12999Y29997D01*
X9000D01*
X11999D01*
Y25998D01*
X9000Y31996D02*
X14998D01*
X9000Y35995D01*
X14998D01*
X8000Y37994D02*
Y41993D01*
X14998Y43992D02*
X10999D01*
X9000Y45992D01*
X10999Y47991D01*
X14998D01*
X9000Y49990D02*
Y51990D01*
Y50990D01*
X14998D01*
X13998Y49990D01*
X9000Y54989D02*
X10000D01*
Y55988D01*
X9000D01*
Y54989D01*
Y63986D02*
Y59987D01*
X12999Y63986D01*
X13998D01*
X14998Y62986D01*
Y60987D01*
X13998Y59987D01*
D32*
X59500Y46000D02*
Y87500D01*
Y298000D01*
Y87500D02*
X147500D01*
X73000Y311500D02*
X189000D01*
X59500Y298000D02*
X73000Y311500D01*
D33*
X175000Y143500D02*
Y151000D01*
X123500Y139500D02*
X171000D01*
X175000Y143500D01*
X80000Y149500D02*
X113500D01*
X66500D02*
X80000D01*
Y104000D02*
Y149500D01*
X66500Y221500D02*
Y250000D01*
Y149500D02*
Y221500D01*
X80000D01*
X113500Y149500D02*
X123500Y139500D01*
D41*
X379921Y373169D02*
D03*
Y363091D02*
D03*
Y353012D02*
D03*
Y333425D02*
D03*
Y323346D02*
D03*
Y313268D02*
D03*
Y303189D02*
D03*
Y283602D02*
D03*
Y273524D02*
D03*
Y263445D02*
D03*
Y46122D02*
D03*
Y56201D02*
D03*
Y66280D02*
D03*
Y85866D02*
D03*
Y95945D02*
D03*
Y106024D02*
D03*
Y116102D02*
D03*
Y135689D02*
D03*
Y145768D02*
D03*
Y155846D02*
D03*
X158000Y192000D02*
D03*
Y182000D02*
D03*
Y172000D02*
D03*
Y162000D02*
D03*
X66500Y139500D02*
D03*
Y129500D02*
D03*
Y119500D02*
D03*
D42*
X365748Y285827D02*
D03*
Y266142D02*
D03*
Y350787D02*
D03*
Y370472D02*
D03*
Y153150D02*
D03*
Y133465D02*
D03*
Y48819D02*
D03*
Y68504D02*
D03*
D43*
X260000Y248000D02*
D03*
Y299181D02*
D03*
Y370181D02*
D03*
Y319000D02*
D03*
D44*
Y266898D02*
D03*
Y280283D02*
D03*
Y351283D02*
D03*
Y337898D02*
D03*
D45*
X275748Y299181D02*
D03*
Y280283D02*
D03*
Y248000D02*
D03*
Y266898D02*
D03*
Y337898D02*
D03*
Y319000D02*
D03*
Y351283D02*
D03*
Y370181D02*
D03*
X199157Y97000D02*
D03*
X218843D02*
D03*
D46*
X308819Y289732D02*
D03*
Y257449D02*
D03*
Y328449D02*
D03*
Y360732D02*
D03*
D47*
X158000Y152000D02*
D03*
X66500Y149500D02*
D03*
D48*
X199500Y168000D02*
D03*
X202000Y152500D02*
D03*
X206500Y130000D02*
D03*
X190000Y139500D02*
D03*
X208000D02*
D03*
X192500Y130500D02*
D03*
X186000Y154500D02*
D03*
X181000D02*
D03*
X217500Y152500D02*
D03*
X214500Y167000D02*
D03*
X210000Y151000D02*
D03*
X179000Y130000D02*
D03*
X160500Y125500D02*
D03*
X152000Y109500D02*
D03*
X85000Y109000D02*
D03*
X100000Y119500D02*
D03*
X74500Y135000D02*
D03*
Y144000D02*
D03*
X84000Y205000D02*
D03*
X151000Y187500D02*
D03*
X152000Y167000D02*
D03*
X151000Y158000D02*
D03*
X172500Y182000D02*
D03*
X225000Y156000D02*
D03*
Y151500D02*
D03*
X233500Y116500D02*
D03*
Y129000D02*
D03*
X246000Y117000D02*
D03*
X130500Y206500D02*
D03*
X393500Y150500D02*
D03*
X394000Y126000D02*
D03*
X386000Y127000D02*
D03*
X374500Y124000D02*
D03*
X360500Y123500D02*
D03*
X361000Y143500D02*
D03*
X386500Y140500D02*
D03*
X386000Y151500D02*
D03*
X375000Y151000D02*
D03*
X373000Y142500D02*
D03*
X360000Y162500D02*
D03*
X368500D02*
D03*
X377000D02*
D03*
X385500Y163000D02*
D03*
X394500D02*
D03*
Y171500D02*
D03*
X385500D02*
D03*
X377000D02*
D03*
X368500D02*
D03*
X360000D02*
D03*
X253500Y112500D02*
D03*
X254000Y100500D02*
D03*
X253500Y87000D02*
D03*
X253000Y80000D02*
D03*
X250000Y60000D02*
D03*
X255500Y60500D02*
D03*
X250000Y70500D02*
D03*
X222000Y75000D02*
D03*
X234000Y81000D02*
D03*
X210000Y120000D02*
D03*
X209000Y106000D02*
D03*
X208000Y84000D02*
D03*
X209500Y62000D02*
D03*
X210000Y69000D02*
D03*
X235000Y89500D02*
D03*
X234500Y71500D02*
D03*
X234000Y60000D02*
D03*
X136500Y80500D02*
D03*
Y57500D02*
D03*
X136000Y71500D02*
D03*
X156000D02*
D03*
X175000Y72000D02*
D03*
X190000Y68000D02*
D03*
X189000Y54500D02*
D03*
X176000Y45000D02*
D03*
X188500D02*
D03*
X173500Y49000D02*
D03*
X173000Y61000D02*
D03*
X175000Y86500D02*
D03*
X191500Y77000D02*
D03*
X182500Y111000D02*
D03*
X191500Y97000D02*
D03*
X172500Y96000D02*
D03*
X169000Y78500D02*
D03*
X163500D02*
D03*
X154500Y81500D02*
D03*
X160000Y96000D02*
D03*
Y134500D02*
D03*
X139500Y129500D02*
D03*
X165500Y130500D02*
D03*
X149000Y120000D02*
D03*
X158500Y111000D02*
D03*
X171500Y111500D02*
D03*
X191500Y117000D02*
D03*
X213000Y128000D02*
D03*
X223500D02*
D03*
X224000Y142500D02*
D03*
X224500Y113000D02*
D03*
X243000Y109500D02*
D03*
X235000Y110000D02*
D03*
X234000Y99000D02*
D03*
X233500Y122000D02*
D03*
X40000Y310500D02*
D03*
X49500Y334000D02*
D03*
X63000Y357000D02*
D03*
X56500Y408500D02*
D03*
X75000Y415000D02*
D03*
X394000Y412500D02*
D03*
X364500Y237000D02*
D03*
X364000Y229000D02*
D03*
X350500Y230000D02*
D03*
X355000Y236000D02*
D03*
X342500D02*
D03*
X329500D02*
D03*
X317500Y235500D02*
D03*
X307000D02*
D03*
X393500Y136500D02*
D03*
X395500Y116000D02*
D03*
X396500Y94000D02*
D03*
Y66500D02*
D03*
Y44500D02*
D03*
X395000Y23000D02*
D03*
X384500Y5500D02*
D03*
X394500Y9000D02*
D03*
X384500Y17000D02*
D03*
X373000Y10000D02*
D03*
X357500D02*
D03*
X344500D02*
D03*
X330500Y9500D02*
D03*
X315000D02*
D03*
X298500D02*
D03*
X282500D02*
D03*
X266500Y10000D02*
D03*
X250000Y9500D02*
D03*
X234000Y9000D02*
D03*
X219500D02*
D03*
X203000Y9500D02*
D03*
X185000D02*
D03*
X168000Y9000D02*
D03*
X150500Y10000D02*
D03*
X133500Y9500D02*
D03*
X119000D02*
D03*
X327000Y19500D02*
D03*
X344500D02*
D03*
X359000D02*
D03*
X372000D02*
D03*
X377000Y29000D02*
D03*
X382000Y31500D02*
D03*
X311000Y20000D02*
D03*
X301000D02*
D03*
X291500D02*
D03*
X293500Y28500D02*
D03*
X281000Y20000D02*
D03*
X282500Y28500D02*
D03*
X269500Y20000D02*
D03*
X271000Y28500D02*
D03*
X255500Y19500D02*
D03*
X258000Y28500D02*
D03*
X241000Y19500D02*
D03*
X245500Y29000D02*
D03*
X227500Y19500D02*
D03*
X231500Y29000D02*
D03*
X212500Y20000D02*
D03*
X217000Y28500D02*
D03*
X198500Y20000D02*
D03*
X202500Y28500D02*
D03*
X184500Y19500D02*
D03*
X190000Y28500D02*
D03*
X170000Y20000D02*
D03*
X175000Y28000D02*
D03*
X155000Y20000D02*
D03*
X160000Y28500D02*
D03*
X146500Y21500D02*
D03*
X17500Y73500D02*
D03*
X6500Y83500D02*
D03*
X7500Y74000D02*
D03*
X27000Y74500D02*
D03*
X27500Y59500D02*
D03*
X28000Y43000D02*
D03*
X78500Y11500D02*
D03*
X77500Y22500D02*
D03*
X54500Y25500D02*
D03*
X54000Y12000D02*
D03*
X29500Y12500D02*
D03*
X105500Y9500D02*
D03*
X95000Y16500D02*
D03*
X83500Y50500D02*
D03*
X90000D02*
D03*
X90500Y62000D02*
D03*
X90000Y72000D02*
D03*
X12500Y85500D02*
D03*
X4500Y93000D02*
D03*
X27000Y91000D02*
D03*
X51000Y237500D02*
D03*
X36000Y238000D02*
D03*
X21000Y402000D02*
D03*
X43000Y406000D02*
D03*
X51000Y414000D02*
D03*
X30500Y411000D02*
D03*
X11500Y388000D02*
D03*
X14000Y368500D02*
D03*
X23000Y378000D02*
D03*
X43000Y397000D02*
D03*
X71500Y413000D02*
D03*
X6000Y401500D02*
D03*
X5000Y358500D02*
D03*
X63000Y311500D02*
D03*
X52500Y304500D02*
D03*
X52000Y290000D02*
D03*
X43500Y282500D02*
D03*
X41500Y264000D02*
D03*
X43000Y251500D02*
D03*
X52000Y245000D02*
D03*
X75000Y305000D02*
D03*
X75500Y316500D02*
D03*
Y327500D02*
D03*
Y341000D02*
D03*
Y356000D02*
D03*
Y369500D02*
D03*
Y379500D02*
D03*
Y390000D02*
D03*
X68000Y390500D02*
D03*
X57500Y379000D02*
D03*
X45500Y367500D02*
D03*
X34000Y356000D02*
D03*
X24000Y346000D02*
D03*
X24500Y329000D02*
D03*
Y307500D02*
D03*
Y288000D02*
D03*
Y269500D02*
D03*
Y251500D02*
D03*
Y236000D02*
D03*
X36500Y219000D02*
D03*
X22500Y223500D02*
D03*
Y216500D02*
D03*
X21000Y195500D02*
D03*
X20500Y205500D02*
D03*
X37000Y200500D02*
D03*
X50500Y199500D02*
D03*
X24500Y177000D02*
D03*
X19000Y178000D02*
D03*
Y186500D02*
D03*
X39000Y181500D02*
D03*
X31500Y163500D02*
D03*
X40500Y163000D02*
D03*
X52500Y159000D02*
D03*
X16500Y161000D02*
D03*
X24500Y166000D02*
D03*
X16000Y169000D02*
D03*
X17000Y153000D02*
D03*
X27500Y147000D02*
D03*
Y138000D02*
D03*
X28500Y129000D02*
D03*
X21500Y139000D02*
D03*
X22000Y129500D02*
D03*
X14000Y137500D02*
D03*
Y145000D02*
D03*
X20000Y120500D02*
D03*
X12500Y128000D02*
D03*
X28000Y120500D02*
D03*
Y110000D02*
D03*
X19000D02*
D03*
X12500Y116500D02*
D03*
X17500Y101500D02*
D03*
X27000Y102000D02*
D03*
X19500Y90500D02*
D03*
X11000Y100000D02*
D03*
Y106500D02*
D03*
X23500Y81500D02*
D03*
X37500Y81000D02*
D03*
X42500D02*
D03*
X51500D02*
D03*
X40500Y71000D02*
D03*
X78000D02*
D03*
X77500Y62000D02*
D03*
X41500D02*
D03*
X46000Y51500D02*
D03*
X72000Y51000D02*
D03*
X145500Y28000D02*
D03*
X137000Y23500D02*
D03*
X160500Y57000D02*
D03*
X152000Y41000D02*
D03*
X164000D02*
D03*
X135500Y41500D02*
D03*
X89500Y41000D02*
D03*
X83500D02*
D03*
X90500Y28500D02*
D03*
X106500Y18000D02*
D03*
X129000D02*
D03*
X126000Y22500D02*
D03*
X102000Y21500D02*
D03*
X126000Y28000D02*
D03*
X98500D02*
D03*
X125500Y41000D02*
D03*
X98500D02*
D03*
X117500Y55000D02*
D03*
X104000Y65500D02*
D03*
X121000D02*
D03*
X125000Y71500D02*
D03*
X113000Y76000D02*
D03*
Y80500D02*
D03*
X100500Y82000D02*
D03*
X99500Y72000D02*
D03*
X88000Y81500D02*
D03*
X71000D02*
D03*
Y92500D02*
D03*
X88000Y93000D02*
D03*
X71500Y100000D02*
D03*
X87000Y116000D02*
D03*
X92000Y108500D02*
D03*
X92500Y99000D02*
D03*
X135500Y109000D02*
D03*
X136000Y100000D02*
D03*
X133000Y94500D02*
D03*
X137500Y119500D02*
D03*
X144000Y113500D02*
D03*
X131500Y125500D02*
D03*
X125000Y105500D02*
D03*
X126500Y115500D02*
D03*
X125000Y97500D02*
D03*
X119000Y100500D02*
D03*
X113000Y102500D02*
D03*
X115500Y106000D02*
D03*
Y119500D02*
D03*
X93500Y289000D02*
D03*
X92000Y262000D02*
D03*
X81500Y251500D02*
D03*
X73500Y255500D02*
D03*
X75000Y245000D02*
D03*
X91500Y272500D02*
D03*
X86000Y279500D02*
D03*
X91000Y284500D02*
D03*
X77000Y276000D02*
D03*
X52000Y277000D02*
D03*
X52500Y281500D02*
D03*
X137500Y151500D02*
D03*
Y156500D02*
D03*
X109000Y170000D02*
D03*
X73500Y155000D02*
D03*
X79000D02*
D03*
X85000Y154500D02*
D03*
X165500Y177500D02*
D03*
X168500Y171000D02*
D03*
X177500Y177500D02*
D03*
X167000Y187500D02*
D03*
X146000D02*
D03*
X144500Y172000D02*
D03*
X145500Y195000D02*
D03*
X139500Y188500D02*
D03*
X115500Y189500D02*
D03*
X115000Y183500D02*
D03*
X110500Y192000D02*
D03*
X110000Y203000D02*
D03*
X108000Y214000D02*
D03*
X88000Y206500D02*
D03*
X104500Y211000D02*
D03*
X112000Y217000D02*
D03*
X102500Y216500D02*
D03*
X90500D02*
D03*
X88500Y212000D02*
D03*
X85500Y216500D02*
D03*
X86000Y201500D02*
D03*
X108500Y55000D02*
D03*
D49*
X175000Y151000D02*
D03*
X59500Y46000D02*
D03*
X147500Y87500D02*
D03*
X189000Y311500D02*
D03*
D50*
X184500Y147000D02*
D03*
X112000Y285000D02*
D03*
X109000Y317500D02*
D03*
X80500Y412500D02*
D03*
Y391000D02*
D03*
X93500Y179500D02*
D03*
X86000Y190000D02*
D03*
X96500Y193500D02*
D03*
Y203500D02*
D03*
X80000Y104000D02*
D03*
X383000Y234000D02*
D03*
Y246000D02*
D03*
X113400Y409800D02*
D03*
Y383000D02*
D03*
X80000Y221500D02*
D03*
X66500Y250000D02*
D03*
X90000Y137500D02*
D03*
X105000Y140500D02*
D03*
X111065Y138665D02*
D03*
X117500Y136000D02*
D03*
X122500Y133000D02*
D03*
X126000Y127500D02*
D03*
X129000Y130000D02*
D03*
X92500Y134500D02*
D03*
X90000Y131500D02*
D03*
X92500Y128500D02*
D03*
X90000Y125500D02*
D03*
X92500Y122500D02*
D03*
X316000Y30500D02*
D03*
X304000Y32500D02*
D03*
X140000D02*
D03*
X78000D02*
D03*
X144000Y36500D02*
D03*
X40000D02*
D03*
X133500Y147000D02*
D03*
Y171000D02*
D03*
X173500Y285000D02*
D03*
X173000Y317500D02*
D03*
X235000Y147000D02*
D03*
M02*
