%FSLAX25Y25*%
%MOIN*%
G70*
G01*
G75*
G04 Layer_Color=8388736*
%ADD10C,0.01000*%
%ADD11R,0.10799X0.08500*%
%ADD12O,0.02756X0.07480*%
%ADD13O,0.02756X0.08268*%
%ADD14O,0.07874X0.13780*%
%ADD15R,0.07087X0.10236*%
%ADD16R,0.04921X0.02756*%
%ADD17R,0.02756X0.04921*%
%ADD18R,0.07087X0.04449*%
%ADD19R,0.04449X0.07087*%
%ADD20R,0.10512X0.04724*%
%ADD21O,0.02756X0.07087*%
%ADD22R,0.01654X0.03937*%
%ADD23R,0.04921X0.13465*%
%ADD24R,0.03661X0.03858*%
%ADD25R,0.03858X0.03661*%
%ADD26O,0.07087X0.01102*%
%ADD27O,0.01102X0.07087*%
%ADD28R,0.10709X0.04567*%
%ADD29C,0.03937*%
%ADD30R,0.02362X0.05906*%
%ADD31R,0.07874X0.07874*%
%ADD32C,0.03150*%
%ADD33C,0.01969*%
%ADD34C,0.01181*%
%ADD35C,0.04724*%
%ADD36R,0.20500X1.22000*%
%ADD37R,0.44000X0.15500*%
%ADD38R,0.15000X0.07000*%
%ADD39R,0.23000X0.15000*%
%ADD40R,0.25000X0.15000*%
%ADD41C,0.05906*%
%ADD42C,0.12598*%
%ADD43O,0.10236X0.11811*%
%ADD44O,0.10236X0.11024*%
%ADD45C,0.07087*%
%ADD46C,0.11811*%
%ADD47R,0.05906X0.05906*%
%ADD48C,0.03000*%
%ADD49C,0.04000*%
%ADD50C,0.02756*%
%ADD51C,0.01575*%
%ADD52C,0.00984*%
%ADD53C,0.00787*%
%ADD54C,0.00500*%
%ADD55C,0.00600*%
%ADD56R,0.11599X0.09300*%
%ADD57O,0.03556X0.08280*%
%ADD58O,0.03556X0.09068*%
%ADD59O,0.08674X0.14579*%
%ADD60R,0.07887X0.11036*%
%ADD61R,0.05721X0.03556*%
%ADD62R,0.03556X0.05721*%
%ADD63R,0.07887X0.05249*%
%ADD64R,0.05249X0.07887*%
%ADD65R,0.11312X0.05524*%
%ADD66O,0.03556X0.07887*%
%ADD67R,0.02054X0.04337*%
%ADD68R,0.05721X0.14265*%
%ADD69R,0.04461X0.04658*%
%ADD70R,0.04658X0.04461*%
%ADD71O,0.07487X0.01502*%
%ADD72O,0.01502X0.07487*%
%ADD73R,0.11509X0.05367*%
%ADD74C,0.04737*%
%ADD75R,0.03162X0.06706*%
%ADD76R,0.08674X0.08674*%
%ADD77C,0.06706*%
%ADD78C,0.13398*%
%ADD79O,0.11036X0.12611*%
%ADD80O,0.11036X0.11824*%
%ADD81C,0.07887*%
%ADD82C,0.12611*%
%ADD83R,0.06706X0.06706*%
D56*
X222000Y67201D02*
D03*
Y49799D02*
D03*
D57*
X204906Y147000D02*
D03*
X193095D02*
D03*
D58*
X199000Y146606D02*
D03*
D59*
Y137157D02*
D03*
D60*
X205406Y160500D02*
D03*
X193595D02*
D03*
D61*
X273079Y391000D02*
D03*
X282921Y394740D02*
D03*
Y387260D02*
D03*
X283079Y231000D02*
D03*
X292921Y234740D02*
D03*
Y227260D02*
D03*
X25579Y228996D02*
D03*
X35421Y232736D02*
D03*
Y225256D02*
D03*
X25579Y209996D02*
D03*
X35421Y213736D02*
D03*
Y206256D02*
D03*
X25504Y190720D02*
D03*
X35346Y194461D02*
D03*
Y186980D02*
D03*
X25004Y171720D02*
D03*
X34846Y175461D02*
D03*
Y167980D02*
D03*
X166079Y121000D02*
D03*
X175921Y124740D02*
D03*
Y117260D02*
D03*
Y139500D02*
D03*
X166079Y135760D02*
D03*
Y143240D02*
D03*
D62*
X99000Y64921D02*
D03*
X102740Y55079D02*
D03*
X95260D02*
D03*
X126500Y64921D02*
D03*
X130240Y55079D02*
D03*
X122760D02*
D03*
D63*
X336000Y360866D02*
D03*
Y349134D02*
D03*
Y289866D02*
D03*
Y278134D02*
D03*
X80500Y299866D02*
D03*
Y288134D02*
D03*
D64*
X107134Y78500D02*
D03*
X118866D02*
D03*
X51866Y46000D02*
D03*
X40134D02*
D03*
X66134D02*
D03*
X77866D02*
D03*
D65*
X166000Y69287D02*
D03*
Y87713D02*
D03*
X99000Y319787D02*
D03*
Y338213D02*
D03*
D66*
X105500Y93264D02*
D03*
X110500Y93264D02*
D03*
X115500D02*
D03*
X120500Y93264D02*
D03*
X105500Y113736D02*
D03*
X110500Y113736D02*
D03*
X115500D02*
D03*
X120500Y113736D02*
D03*
X218500Y310736D02*
D03*
X213500D02*
D03*
X208500D02*
D03*
X203500D02*
D03*
X218500Y290264D02*
D03*
X213500D02*
D03*
X208500D02*
D03*
X203500D02*
D03*
D67*
X245059Y67339D02*
D03*
X242500D02*
D03*
X239941D02*
D03*
Y59661D02*
D03*
X245059D02*
D03*
X242500D02*
D03*
X94441Y294161D02*
D03*
X97000D02*
D03*
X99559D02*
D03*
Y301839D02*
D03*
X94441D02*
D03*
X97000D02*
D03*
X66441Y278161D02*
D03*
X69000D02*
D03*
X71559D02*
D03*
Y285839D02*
D03*
X66441D02*
D03*
X69000D02*
D03*
D68*
X206795Y351500D02*
D03*
X231205D02*
D03*
Y248000D02*
D03*
X206795D02*
D03*
D69*
X199969Y124000D02*
D03*
X206032D02*
D03*
X62468Y167500D02*
D03*
X68531D02*
D03*
X62469Y159500D02*
D03*
X68532D02*
D03*
X80000Y201500D02*
D03*
X73937D02*
D03*
X94969Y46000D02*
D03*
X101032D02*
D03*
X135532Y197000D02*
D03*
X129469D02*
D03*
X123969Y46500D02*
D03*
X130032D02*
D03*
X112969Y197500D02*
D03*
X119032D02*
D03*
X45969Y75000D02*
D03*
X52032D02*
D03*
X73031D02*
D03*
X66968D02*
D03*
X139532Y183500D02*
D03*
X133469D02*
D03*
X73031Y261000D02*
D03*
X66968D02*
D03*
X172031Y104000D02*
D03*
X165968D02*
D03*
X139532Y175500D02*
D03*
X133469D02*
D03*
X369969Y237000D02*
D03*
X376032D02*
D03*
X369969Y228000D02*
D03*
X376032D02*
D03*
X73937Y193500D02*
D03*
X80000D02*
D03*
X52032Y57000D02*
D03*
X45969D02*
D03*
X66968D02*
D03*
X73031D02*
D03*
X52032Y67000D02*
D03*
X45969D02*
D03*
X66968D02*
D03*
X73031D02*
D03*
X154032Y104000D02*
D03*
X147969D02*
D03*
X147968Y142000D02*
D03*
X154031D02*
D03*
X147968Y134000D02*
D03*
X154031D02*
D03*
X147968Y96000D02*
D03*
X154031D02*
D03*
X66968Y269000D02*
D03*
X73031D02*
D03*
X93468Y209500D02*
D03*
X99531D02*
D03*
X112969D02*
D03*
X119032D02*
D03*
X80000D02*
D03*
X73937D02*
D03*
D70*
X183500Y160469D02*
D03*
Y166532D02*
D03*
X51500Y142469D02*
D03*
Y148531D02*
D03*
Y105468D02*
D03*
Y111531D02*
D03*
X200500Y273469D02*
D03*
Y279532D02*
D03*
X209000D02*
D03*
Y273469D02*
D03*
X51500Y124469D02*
D03*
Y130532D02*
D03*
Y86468D02*
D03*
Y92532D02*
D03*
X98000Y110032D02*
D03*
Y103969D02*
D03*
X200000Y328532D02*
D03*
Y322469D02*
D03*
X209000D02*
D03*
Y328532D02*
D03*
X322500Y26469D02*
D03*
Y32532D02*
D03*
X310500D02*
D03*
Y26469D02*
D03*
X299000D02*
D03*
Y32532D02*
D03*
X195000Y303468D02*
D03*
Y309531D02*
D03*
X54500Y225468D02*
D03*
Y231532D02*
D03*
X54500Y206469D02*
D03*
Y212532D02*
D03*
Y186969D02*
D03*
Y193032D02*
D03*
Y167969D02*
D03*
Y174032D02*
D03*
X45500Y225468D02*
D03*
Y231532D02*
D03*
Y206469D02*
D03*
Y212531D02*
D03*
X45500Y186969D02*
D03*
Y193032D02*
D03*
Y167968D02*
D03*
Y174031D02*
D03*
X33500Y148531D02*
D03*
Y142469D02*
D03*
Y111531D02*
D03*
Y105468D02*
D03*
X182000Y279532D02*
D03*
Y273469D02*
D03*
X42500Y148531D02*
D03*
Y142469D02*
D03*
Y111531D02*
D03*
Y105468D02*
D03*
X130500Y106532D02*
D03*
Y100469D02*
D03*
X95000Y78468D02*
D03*
Y84531D02*
D03*
X191000Y279532D02*
D03*
Y273469D02*
D03*
X173500Y279532D02*
D03*
Y273469D02*
D03*
X130000Y78468D02*
D03*
Y84531D02*
D03*
X218000Y279532D02*
D03*
Y273469D02*
D03*
X33500Y130532D02*
D03*
Y124469D02*
D03*
Y92532D02*
D03*
Y86468D02*
D03*
X42500Y130532D02*
D03*
Y124469D02*
D03*
Y92532D02*
D03*
Y86468D02*
D03*
X182000Y322468D02*
D03*
Y328531D02*
D03*
X190500Y322468D02*
D03*
Y328531D02*
D03*
X173000Y322468D02*
D03*
Y328531D02*
D03*
X218500Y322468D02*
D03*
Y328531D02*
D03*
X184500Y117968D02*
D03*
Y124031D02*
D03*
X248500Y93468D02*
D03*
Y99531D02*
D03*
X184500Y142032D02*
D03*
Y135969D02*
D03*
X240000Y93468D02*
D03*
Y99531D02*
D03*
Y74968D02*
D03*
Y81031D02*
D03*
X57000Y267032D02*
D03*
Y260968D02*
D03*
X48000Y267032D02*
D03*
Y260968D02*
D03*
X97000Y283000D02*
D03*
Y276937D02*
D03*
X69000Y300032D02*
D03*
Y293969D02*
D03*
X175000Y166532D02*
D03*
Y160469D02*
D03*
D71*
X84555Y179827D02*
D03*
Y177858D02*
D03*
Y175890D02*
D03*
Y173921D02*
D03*
Y171953D02*
D03*
Y169984D02*
D03*
Y168016D02*
D03*
Y166047D02*
D03*
Y164079D02*
D03*
Y162110D02*
D03*
Y160142D02*
D03*
Y158173D02*
D03*
X116445D02*
D03*
Y160142D02*
D03*
Y162110D02*
D03*
Y164079D02*
D03*
Y166047D02*
D03*
Y168016D02*
D03*
Y169984D02*
D03*
Y171953D02*
D03*
Y173921D02*
D03*
Y175890D02*
D03*
Y177858D02*
D03*
Y179827D02*
D03*
D72*
X89673Y153055D02*
D03*
X91642D02*
D03*
X93610D02*
D03*
X95579D02*
D03*
X97547D02*
D03*
X99516D02*
D03*
X101484D02*
D03*
X103453D02*
D03*
X105421D02*
D03*
X107390D02*
D03*
X109358D02*
D03*
X111327D02*
D03*
Y184945D02*
D03*
X109358D02*
D03*
X107390D02*
D03*
X105421D02*
D03*
X103453D02*
D03*
X101484D02*
D03*
X99516D02*
D03*
X97547D02*
D03*
X95579D02*
D03*
X93610D02*
D03*
X91642D02*
D03*
X89673D02*
D03*
D73*
X336000Y329193D02*
D03*
Y340807D02*
D03*
Y258193D02*
D03*
Y269807D02*
D03*
D74*
X30000Y27000D02*
D03*
Y392500D02*
D03*
X373000D02*
D03*
D75*
X91776Y198500D02*
D03*
X101224D02*
D03*
X96500D02*
D03*
D76*
X233000Y371232D02*
D03*
Y387768D02*
D03*
X199000Y49732D02*
D03*
Y66268D02*
D03*
D77*
X379921Y373169D02*
D03*
Y363091D02*
D03*
Y353012D02*
D03*
Y333425D02*
D03*
Y323346D02*
D03*
Y313268D02*
D03*
Y303189D02*
D03*
Y283602D02*
D03*
Y273524D02*
D03*
Y263445D02*
D03*
Y46122D02*
D03*
Y56201D02*
D03*
Y66280D02*
D03*
Y85866D02*
D03*
Y95945D02*
D03*
Y106024D02*
D03*
Y116102D02*
D03*
Y135689D02*
D03*
Y145768D02*
D03*
Y155846D02*
D03*
X158000Y192000D02*
D03*
Y182000D02*
D03*
Y172000D02*
D03*
Y162000D02*
D03*
X66500Y139500D02*
D03*
Y129500D02*
D03*
Y119500D02*
D03*
D78*
X365748Y285827D02*
D03*
Y266142D02*
D03*
Y350787D02*
D03*
Y370472D02*
D03*
Y153150D02*
D03*
Y133465D02*
D03*
Y48819D02*
D03*
Y68504D02*
D03*
D79*
X260000Y248000D02*
D03*
Y299181D02*
D03*
Y370181D02*
D03*
Y319000D02*
D03*
D80*
Y266898D02*
D03*
Y280283D02*
D03*
Y351283D02*
D03*
Y337898D02*
D03*
D81*
X275748Y299181D02*
D03*
Y280283D02*
D03*
Y248000D02*
D03*
Y266898D02*
D03*
Y337898D02*
D03*
Y319000D02*
D03*
Y351283D02*
D03*
Y370181D02*
D03*
X199157Y97000D02*
D03*
X218843D02*
D03*
D82*
X308819Y289732D02*
D03*
Y257449D02*
D03*
Y328449D02*
D03*
Y360732D02*
D03*
D83*
X158000Y152000D02*
D03*
X66500Y149500D02*
D03*
M02*
