%FSLAX25Y25*%
%MOIN*%
G70*
G01*
G75*
G04 Layer_Color=65535*
%ADD10C,0.01000*%
%ADD11R,0.10799X0.08500*%
%ADD12O,0.02756X0.07480*%
%ADD13O,0.02756X0.08268*%
%ADD14O,0.07874X0.13780*%
%ADD15R,0.07087X0.10236*%
%ADD16R,0.04921X0.02756*%
%ADD17R,0.02756X0.04921*%
%ADD18R,0.07087X0.04449*%
%ADD19R,0.04449X0.07087*%
%ADD20R,0.10512X0.04724*%
%ADD21O,0.02756X0.07087*%
%ADD22R,0.01654X0.03937*%
%ADD23R,0.04921X0.13465*%
%ADD24R,0.03661X0.03858*%
%ADD25R,0.03858X0.03661*%
%ADD26O,0.07087X0.01102*%
%ADD27O,0.01102X0.07087*%
%ADD28R,0.10709X0.04567*%
%ADD29C,0.03937*%
%ADD30R,0.02362X0.05906*%
%ADD31R,0.07874X0.07874*%
%ADD32C,0.03150*%
%ADD33C,0.01969*%
%ADD34C,0.01181*%
%ADD35C,0.04724*%
%ADD36R,0.20500X1.22000*%
%ADD37R,0.44000X0.15500*%
%ADD38R,0.15000X0.07000*%
%ADD39R,0.23000X0.15000*%
%ADD40R,0.25000X0.15000*%
%ADD41C,0.05906*%
%ADD42C,0.12598*%
%ADD43O,0.10236X0.11811*%
%ADD44O,0.10236X0.11024*%
%ADD45C,0.07087*%
%ADD46C,0.11811*%
%ADD47R,0.05906X0.05906*%
%ADD48C,0.03000*%
%ADD49C,0.04000*%
%ADD50C,0.02756*%
%ADD51C,0.01575*%
%ADD52C,0.00984*%
%ADD53C,0.00787*%
%ADD54C,0.00500*%
%ADD55C,0.00600*%
G36*
X221000Y113000D02*
X225000Y109000D01*
X228000Y103000D01*
Y101000D01*
X229000Y100000D01*
X229000Y95000D01*
X228000Y93000D01*
Y91000D01*
X227000Y90000D01*
Y88000D01*
X225000Y86000D01*
X224000Y84000D01*
X221000Y81000D01*
X219000Y80000D01*
X216000Y79000D01*
Y115000D01*
X217000D01*
X221000Y113000D01*
D02*
G37*
D10*
X228685Y97000D02*
X228660Y97997D01*
X228584Y98992D01*
X228458Y99981D01*
X228282Y100963D01*
X228057Y101934D01*
X227782Y102893D01*
X227460Y103837D01*
X227090Y104763D01*
X226673Y105669D01*
X226212Y106553D01*
X225706Y107413D01*
X225157Y108245D01*
X224566Y109049D01*
X223936Y109822D01*
X223268Y110562D01*
X222562Y111268D01*
X221822Y111936D01*
X221049Y112566D01*
X220245Y113157D01*
X219413Y113706D01*
X218553Y114212D01*
X217669Y114673D01*
X216763Y115090D01*
X215837Y115460D01*
X214893Y115782D01*
X213934Y116057D01*
X212963Y116282D01*
X211981Y116458D01*
X210992Y116584D01*
X209997Y116660D01*
X209000Y116685D01*
X208003Y116660D01*
X207009Y116584D01*
X206019Y116458D01*
X205037Y116282D01*
X204066Y116057D01*
X203107Y115782D01*
X202163Y115460D01*
X201237Y115090D01*
X200331Y114673D01*
X199447Y114211D01*
X198587Y113706D01*
X197755Y113157D01*
X196951Y112566D01*
X196178Y111936D01*
X195438Y111268D01*
X194732Y110562D01*
X194064Y109822D01*
X193433Y109049D01*
X192843Y108245D01*
X192294Y107413D01*
X191788Y106553D01*
X191327Y105669D01*
X190910Y104763D01*
X190540Y103837D01*
X190218Y102893D01*
X189943Y101934D01*
X189718Y100962D01*
X189542Y99981D01*
X189416Y98992D01*
X189340Y97997D01*
X189315Y97000D01*
X189340Y96003D01*
X189416Y95008D01*
X189542Y94019D01*
X189718Y93037D01*
X189943Y92066D01*
X190218Y91107D01*
X190540Y90163D01*
X190910Y89237D01*
X191327Y88331D01*
X191788Y87447D01*
X192294Y86587D01*
X192843Y85755D01*
X193434Y84951D01*
X194064Y84178D01*
X194732Y83438D01*
X195438Y82732D01*
X196178Y82064D01*
X196951Y81433D01*
X197755Y80843D01*
X198587Y80294D01*
X199447Y79788D01*
X200331Y79327D01*
X201237Y78910D01*
X202163Y78540D01*
X203107Y78218D01*
X204066Y77943D01*
X205037Y77718D01*
X206019Y77542D01*
X207009Y77416D01*
X208003Y77340D01*
X209000Y77315D01*
X209997Y77340D01*
X210992Y77416D01*
X211981Y77542D01*
X212963Y77718D01*
X213934Y77943D01*
X214893Y78218D01*
X215837Y78540D01*
X216763Y78910D01*
X217669Y79327D01*
X218553Y79789D01*
X219413Y80294D01*
X220246Y80843D01*
X221049Y81434D01*
X221822Y82064D01*
X222562Y82732D01*
X223268Y83438D01*
X223936Y84178D01*
X224567Y84951D01*
X225157Y85755D01*
X225706Y86587D01*
X226212Y87447D01*
X226673Y88331D01*
X227090Y89237D01*
X227460Y90163D01*
X227782Y91107D01*
X228057Y92066D01*
X228282Y93037D01*
X228458Y94019D01*
X228584Y95009D01*
X228660Y96003D01*
X228685Y97000D01*
X213732Y48658D02*
X215307D01*
X213732D02*
Y68343D01*
X215307D01*
X228693Y48658D02*
X230268D01*
Y68343D01*
X228693D02*
X230268D01*
X213732Y55350D02*
X230268D01*
X-14000Y0D02*
X16217D01*
X-14000Y419291D02*
X16217D01*
X-13000Y0D02*
Y184453D01*
Y231639D02*
Y419291D01*
Y0D02*
X-11000Y6000D01*
X-15000D02*
X-13000Y0D01*
X-15000Y413291D02*
X-13000Y419291D01*
X-11000Y413291D01*
X0Y408980D02*
Y429000D01*
X400000Y420791D02*
Y429000D01*
X0Y428000D02*
X175307D01*
X221493D02*
X400000D01*
X0D02*
X6000Y426000D01*
X0Y428000D02*
X6000Y430000D01*
X394000D02*
X400000Y428000D01*
X394000Y426000D02*
X400000Y428000D01*
X208055Y134795D02*
Y145031D01*
X204512Y134795D02*
X208055D01*
X189945D02*
Y145031D01*
Y134795D02*
X193488D01*
X356906Y252362D02*
X400022D01*
X356906D02*
Y384252D01*
X400022Y252362D02*
Y384252D01*
X356906D02*
X400022D01*
X356906D02*
X365748D01*
X356906Y166929D02*
X365748D01*
X356906D02*
X400022D01*
Y35039D02*
Y166929D01*
X356906Y35039D02*
Y166929D01*
Y35039D02*
X400022D01*
X253000Y241000D02*
X316000D01*
X253000D02*
Y306000D01*
Y306181D02*
X316000D01*
Y241000D02*
Y306000D01*
Y312000D02*
Y377000D01*
X253000Y377181D02*
X316000D01*
X253000Y312000D02*
Y377000D01*
Y312000D02*
X316000D01*
X210236Y154004D02*
Y166996D01*
X188764D02*
X196350D01*
X188764Y154004D02*
X196350D01*
X202650Y166996D02*
X210236D01*
X188764Y154004D02*
Y166996D01*
X202650Y154004D02*
X210236D01*
X211953Y155776D02*
Y165224D01*
X210236Y154004D02*
X211953Y155776D01*
X210236Y166996D02*
X211953Y165224D01*
X275441Y394150D02*
Y396748D01*
Y394150D02*
Y396748D01*
Y394150D02*
Y396748D01*
X278650D01*
X275441Y385252D02*
X278650D01*
X275441D02*
Y387850D01*
X285441Y234150D02*
Y236748D01*
Y234150D02*
Y236748D01*
Y234150D02*
Y236748D01*
X288650D01*
X285441Y225252D02*
X288650D01*
X285441D02*
Y227850D01*
X102150Y62559D02*
X104748D01*
X102150D02*
X104748D01*
X102150D02*
X104748D01*
Y59350D02*
Y62559D01*
X93252Y59350D02*
Y62559D01*
X95850D01*
X129650D02*
X132248D01*
X129650D02*
X132248D01*
X129650D02*
X132248D01*
Y59350D02*
Y62559D01*
X120752Y59350D02*
Y62559D01*
X123350D01*
X27941Y232146D02*
Y234744D01*
Y232146D02*
Y234744D01*
Y232146D02*
Y234744D01*
X31150D01*
X27941Y223248D02*
X31150D01*
X27941D02*
Y225846D01*
Y213146D02*
Y215744D01*
Y213146D02*
Y215744D01*
Y213146D02*
Y215744D01*
X31150D01*
X27941Y204248D02*
X31150D01*
X27941D02*
Y206846D01*
X27866Y193870D02*
Y196469D01*
Y193870D02*
Y196469D01*
Y193870D02*
Y196469D01*
X31075D01*
X27866Y184972D02*
X31075D01*
X27866D02*
Y187571D01*
X27366Y174870D02*
Y177469D01*
Y174870D02*
Y177469D01*
Y174870D02*
Y177469D01*
X30575D01*
X27366Y165972D02*
X30575D01*
X27366D02*
Y168571D01*
X168441Y124150D02*
Y126748D01*
Y124150D02*
Y126748D01*
Y124150D02*
Y126748D01*
X171650D01*
X168441Y115252D02*
X171650D01*
X168441D02*
Y117850D01*
X173559Y133752D02*
Y136350D01*
Y133752D02*
Y136350D01*
Y133752D02*
Y136350D01*
X170350Y133752D02*
X173559D01*
X170350Y145248D02*
X173559D01*
Y142650D02*
Y145248D01*
X103551Y97988D02*
Y109012D01*
X122449Y97988D02*
Y109012D01*
X103551Y97988D02*
X122449D01*
X103551Y109012D02*
X122449D01*
X220449Y294988D02*
Y306012D01*
X201551Y294988D02*
Y306012D01*
X220449D01*
X201551Y294988D02*
X220449D01*
X237776Y60744D02*
Y66256D01*
X247224Y60744D02*
Y66256D01*
X101724Y295244D02*
Y300756D01*
X92276Y295244D02*
Y300756D01*
X73724Y279244D02*
Y284756D01*
X64276Y279244D02*
Y284756D01*
X216000Y79000D02*
Y115000D01*
X103193Y194957D02*
Y202043D01*
X89807Y194957D02*
Y202043D01*
X103193D01*
X89807Y194957D02*
X103193D01*
X238118Y370248D02*
X238906D01*
X227095D02*
X227882D01*
X227095Y388752D02*
X227882D01*
X238118D02*
X238906D01*
Y370248D02*
Y388752D01*
X227095Y382453D02*
X238906D01*
X227095Y370248D02*
Y388752D01*
X204118Y48748D02*
X204906D01*
X193095D02*
X193882D01*
X193095Y67252D02*
X193882D01*
X204118D02*
X204906D01*
Y48748D02*
Y67252D01*
X193095Y60953D02*
X204906D01*
X193095Y48748D02*
Y67252D01*
D34*
X124417Y114917D02*
X123827Y115508D01*
X123236Y114917D01*
X123827Y114327D01*
X124417Y114917D01*
X200764Y289083D02*
X200173Y289673D01*
X199583Y289083D01*
X200173Y288492D01*
X200764Y289083D01*
X84260Y182583D02*
X83669Y183173D01*
X83079Y182583D01*
X83669Y181992D01*
X84260Y182583D01*
D51*
X120480Y106256D02*
X119936Y107005D01*
X119056Y106719D01*
Y105793D01*
X119936Y105507D01*
X120480Y106256D01*
X205095Y297744D02*
X204550Y298493D01*
X203670Y298207D01*
Y297281D01*
X204550Y296995D01*
X205095Y297744D01*
X93315Y176972D02*
X92771Y177721D01*
X91891Y177435D01*
Y176510D01*
X92771Y176224D01*
X93315Y176972D01*
D52*
X248150Y68224D02*
X247411Y68651D01*
Y67798D01*
X248150Y68224D01*
X92335Y293276D02*
X91597Y293702D01*
Y292849D01*
X92335Y293276D01*
X64335Y277276D02*
X63596Y277702D01*
Y276849D01*
X64335Y277276D01*
D53*
X207469Y120890D02*
X208582Y121351D01*
X209043Y122465D01*
Y125535D02*
X208582Y126649D01*
X207469Y127110D01*
X198531Y127110D02*
X197418Y126649D01*
X196957Y125535D01*
X196957Y122465D02*
X197418Y121351D01*
X198531Y120890D01*
X69968Y164390D02*
X71082Y164851D01*
X71543Y165965D01*
Y169035D02*
X71082Y170149D01*
X69968Y170610D01*
X61032Y170610D02*
X59918Y170149D01*
X59457Y169035D01*
Y165965D02*
X59918Y164851D01*
X61032Y164390D01*
X69968Y156390D02*
X71082Y156851D01*
X71543Y157965D01*
Y161035D02*
X71082Y162149D01*
X69968Y162610D01*
X61032Y162610D02*
X59918Y162149D01*
X59457Y161035D01*
Y157965D02*
X59918Y156851D01*
X61032Y156390D01*
X72500Y204610D02*
X71386Y204149D01*
X70925Y203035D01*
Y199965D02*
X71386Y198851D01*
X72500Y198390D01*
X81437Y198390D02*
X82551Y198851D01*
X83012Y199965D01*
Y203035D02*
X82551Y204149D01*
X81437Y204610D01*
X186610Y167968D02*
X186149Y169082D01*
X185035Y169543D01*
X181965D02*
X180851Y169082D01*
X180390Y167968D01*
X180390Y159031D02*
X180851Y157918D01*
X181965Y157457D01*
X185035D02*
X186149Y157918D01*
X186610Y159031D01*
X54610Y149969D02*
X54149Y151082D01*
X53035Y151543D01*
X49965D02*
X48851Y151082D01*
X48390Y149969D01*
X48390Y141032D02*
X48851Y139918D01*
X49965Y139457D01*
X53035Y139457D02*
X54149Y139918D01*
X54610Y141032D01*
X54610Y112969D02*
X54149Y114082D01*
X53035Y114543D01*
X49965D02*
X48851Y114082D01*
X48390Y112969D01*
X48390Y104032D02*
X48851Y102918D01*
X49965Y102457D01*
X53035Y102457D02*
X54149Y102918D01*
X54610Y104032D01*
X102469Y42890D02*
X103582Y43351D01*
X104043Y44465D01*
Y47535D02*
X103582Y48649D01*
X102469Y49110D01*
X93532Y49110D02*
X92418Y48649D01*
X91957Y47535D01*
X91957Y44465D02*
X92418Y43351D01*
X93532Y42890D01*
X203610Y280968D02*
X203149Y282082D01*
X202035Y282543D01*
X198965D02*
X197851Y282082D01*
X197390Y280968D01*
X197390Y272031D02*
X197851Y270918D01*
X198965Y270457D01*
X202035Y270457D02*
X203149Y270918D01*
X203610Y272031D01*
X205890Y272031D02*
X206351Y270918D01*
X207465Y270457D01*
X210535D02*
X211649Y270918D01*
X212110Y272031D01*
X212110Y280968D02*
X211649Y282082D01*
X210535Y282543D01*
X207465Y282543D02*
X206351Y282082D01*
X205890Y280968D01*
X128032Y200110D02*
X126918Y199649D01*
X126457Y198535D01*
Y195465D02*
X126918Y194351D01*
X128032Y193890D01*
X136969Y193890D02*
X138082Y194351D01*
X138543Y195465D01*
Y198535D02*
X138082Y199649D01*
X136969Y200110D01*
X131468Y43390D02*
X132582Y43851D01*
X133043Y44965D01*
Y48035D02*
X132582Y49149D01*
X131468Y49610D01*
X122531Y49610D02*
X121418Y49149D01*
X120957Y48035D01*
X120957Y44965D02*
X121418Y43851D01*
X122531Y43390D01*
X54610Y131968D02*
X54149Y133082D01*
X53035Y133543D01*
X49965D02*
X48851Y133082D01*
X48390Y131968D01*
X48390Y123031D02*
X48851Y121918D01*
X49965Y121457D01*
X53035Y121457D02*
X54149Y121918D01*
X54610Y123031D01*
X54610Y93968D02*
X54149Y95082D01*
X53035Y95543D01*
X49965D02*
X48851Y95082D01*
X48390Y93968D01*
X48390Y85031D02*
X48851Y83918D01*
X49965Y83457D01*
X53035Y83457D02*
X54149Y83918D01*
X54610Y85031D01*
X94890Y102532D02*
X95351Y101418D01*
X96465Y100957D01*
X99535D02*
X100649Y101418D01*
X101110Y102532D01*
X101110Y111469D02*
X100649Y112582D01*
X99535Y113043D01*
X96465Y113043D02*
X95351Y112582D01*
X94890Y111469D01*
X196890Y321031D02*
X197351Y319918D01*
X198465Y319457D01*
X201535D02*
X202649Y319918D01*
X203110Y321031D01*
X203110Y329969D02*
X202649Y331082D01*
X201535Y331543D01*
X198465Y331543D02*
X197351Y331082D01*
X196890Y329969D01*
X212110Y329969D02*
X211649Y331082D01*
X210535Y331543D01*
X207465D02*
X206351Y331082D01*
X205890Y329969D01*
X205890Y321031D02*
X206351Y319918D01*
X207465Y319457D01*
X210535Y319457D02*
X211649Y319918D01*
X212110Y321031D01*
X120468Y194390D02*
X121582Y194851D01*
X122043Y195965D01*
Y199035D02*
X121582Y200149D01*
X120468Y200610D01*
X111531Y200610D02*
X110418Y200149D01*
X109957Y199035D01*
X109957Y195965D02*
X110418Y194851D01*
X111531Y194390D01*
X53469Y71890D02*
X54582Y72351D01*
X55043Y73465D01*
Y76535D02*
X54582Y77649D01*
X53469Y78110D01*
X44532Y78110D02*
X43418Y77649D01*
X42957Y76535D01*
Y73465D02*
X43418Y72351D01*
X44532Y71890D01*
X65531Y78110D02*
X64418Y77649D01*
X63957Y76535D01*
Y73465D02*
X64418Y72351D01*
X65531Y71890D01*
X74468Y71890D02*
X75582Y72351D01*
X76043Y73465D01*
Y76535D02*
X75582Y77649D01*
X74468Y78110D01*
X132032Y186610D02*
X130918Y186149D01*
X130457Y185035D01*
Y181965D02*
X130918Y180851D01*
X132032Y180390D01*
X140969Y180390D02*
X142082Y180851D01*
X142543Y181965D01*
Y185035D02*
X142082Y186149D01*
X140969Y186610D01*
X65531Y264110D02*
X64418Y263649D01*
X63957Y262535D01*
Y259465D02*
X64418Y258351D01*
X65531Y257890D01*
X74468Y257890D02*
X75582Y258351D01*
X76043Y259465D01*
Y262535D02*
X75582Y263649D01*
X74468Y264110D01*
X164532Y107110D02*
X163418Y106649D01*
X162957Y105535D01*
Y102465D02*
X163418Y101351D01*
X164532Y100890D01*
X173468Y100890D02*
X174582Y101351D01*
X175043Y102465D01*
Y105535D02*
X174582Y106649D01*
X173468Y107110D01*
X325610Y33968D02*
X325149Y35082D01*
X324035Y35543D01*
X320965D02*
X319851Y35082D01*
X319390Y33968D01*
X319390Y25032D02*
X319851Y23918D01*
X320965Y23457D01*
X324035D02*
X325149Y23918D01*
X325610Y25032D01*
X132032Y178610D02*
X130918Y178149D01*
X130457Y177035D01*
Y173965D02*
X130918Y172851D01*
X132032Y172390D01*
X140969Y172390D02*
X142082Y172851D01*
X142543Y173965D01*
Y177035D02*
X142082Y178149D01*
X140969Y178610D01*
X377468Y233890D02*
X378582Y234351D01*
X379043Y235465D01*
Y238535D02*
X378582Y239649D01*
X377468Y240110D01*
X368531Y240110D02*
X367418Y239649D01*
X366957Y238535D01*
X366957Y235465D02*
X367418Y234351D01*
X368531Y233890D01*
X377468Y224890D02*
X378582Y225351D01*
X379043Y226465D01*
Y229535D02*
X378582Y230649D01*
X377468Y231110D01*
X368531Y231110D02*
X367418Y230649D01*
X366957Y229535D01*
X366957Y226465D02*
X367418Y225351D01*
X368531Y224890D01*
X307390Y25032D02*
X307851Y23918D01*
X308965Y23457D01*
X312035D02*
X313149Y23918D01*
X313610Y25032D01*
X313610Y33968D02*
X313149Y35082D01*
X312035Y35543D01*
X308965D02*
X307851Y35082D01*
X307390Y33968D01*
X302110Y33968D02*
X301649Y35082D01*
X300535Y35543D01*
X297465D02*
X296351Y35082D01*
X295890Y33968D01*
X295890Y25032D02*
X296351Y23918D01*
X297465Y23457D01*
X300535D02*
X301649Y23918D01*
X302110Y25032D01*
X198110Y310968D02*
X197649Y312082D01*
X196535Y312543D01*
X193465D02*
X192351Y312082D01*
X191890Y310968D01*
X191890Y302031D02*
X192351Y300918D01*
X193465Y300457D01*
X196535D02*
X197649Y300918D01*
X198110Y302031D01*
X331039Y344272D02*
X329926Y343810D01*
X329465Y342697D01*
X342535D02*
X342074Y343810D01*
X340961Y344272D01*
Y325728D02*
X342074Y326190D01*
X342535Y327303D01*
X329465D02*
X329926Y326190D01*
X331039Y325728D01*
Y273272D02*
X329926Y272810D01*
X329465Y271697D01*
X342535D02*
X342074Y272810D01*
X340961Y273272D01*
Y254728D02*
X342074Y255190D01*
X342535Y256303D01*
X329465D02*
X329926Y255190D01*
X331039Y254728D01*
X153000Y147000D02*
X163000D01*
X153000D02*
Y197000D01*
X163000Y147000D02*
Y197000D01*
X153000D02*
X163000D01*
X281543Y389819D02*
Y392181D01*
X291543Y229819D02*
Y232181D01*
X97819Y56457D02*
X100181D01*
X125319D02*
X127681D01*
X34043Y227815D02*
Y230177D01*
Y208815D02*
Y211177D01*
X33969Y189539D02*
Y191902D01*
X33469Y170539D02*
Y172902D01*
X174543Y119819D02*
Y122181D01*
X167457Y138319D02*
Y140681D01*
X331276Y345728D02*
Y351063D01*
Y364272D02*
X340724D01*
X331276Y345728D02*
X340724D01*
Y351063D01*
Y358937D02*
Y364272D01*
X331276Y358937D02*
Y364272D01*
Y274728D02*
Y280063D01*
Y293272D02*
X340724D01*
X331276Y274728D02*
X340724D01*
Y280063D01*
Y287937D02*
Y293272D01*
X331276Y287937D02*
Y293272D01*
X116937Y73776D02*
X122272D01*
X103728D02*
Y83224D01*
X122272Y73776D02*
Y83224D01*
X116937D02*
X122272D01*
X103728D02*
X109063D01*
X103728Y73776D02*
X109063D01*
X36728Y50724D02*
X42063D01*
X55272Y41276D02*
Y50724D01*
X36728Y41276D02*
Y50724D01*
Y41276D02*
X42063D01*
X49937D02*
X55272D01*
X49937Y50724D02*
X55272D01*
X75937Y41276D02*
X81272D01*
X62728D02*
Y50724D01*
X81272Y41276D02*
Y50724D01*
X75937D02*
X81272D01*
X62728D02*
X68063D01*
X62728Y41276D02*
X68063D01*
X172437Y84799D02*
Y91256D01*
X159563Y65744D02*
X172437D01*
X159563Y91256D02*
X172437D01*
Y65744D02*
Y72201D01*
X159563Y84799D02*
Y91256D01*
Y65744D02*
Y72201D01*
X105437Y335299D02*
Y341756D01*
X92563Y316244D02*
X105437D01*
X92563Y341756D02*
X105437D01*
Y316244D02*
Y322701D01*
X92563Y335299D02*
Y341756D01*
Y316244D02*
Y322701D01*
X75776Y284728D02*
Y290063D01*
X75776Y303272D02*
X85224D01*
X75776Y284728D02*
X85224D01*
Y290063D01*
Y297937D02*
X85224Y303272D01*
X75776D02*
X75776Y297937D01*
X228449Y343587D02*
X234846D01*
X203154D02*
Y359413D01*
X234846Y343587D02*
Y359413D01*
X228449D02*
X234846D01*
X203154Y343587D02*
X209551D01*
X203154Y359413D02*
X209551D01*
X203154Y255913D02*
X209551D01*
X234846Y240087D02*
Y255913D01*
X203154Y240087D02*
Y255913D01*
Y240087D02*
X209551D01*
X228449Y255913D02*
X234846D01*
X228449Y240087D02*
X234846D01*
X204575Y127110D02*
X207469D01*
X198531D02*
X201425D01*
X198531Y120890D02*
X201425D01*
X209043Y122465D02*
Y125535D01*
X196957Y122465D02*
Y125535D01*
X204575Y120890D02*
X207469D01*
X67075Y170610D02*
X69968D01*
X61031D02*
X63925D01*
X61031Y164390D02*
X63925D01*
X71543Y165965D02*
Y169035D01*
X59457Y165965D02*
Y169035D01*
X67075Y164390D02*
X69968D01*
X67075Y162610D02*
X69969D01*
X61031D02*
X63925D01*
X61031Y156390D02*
X63925D01*
X71543Y157965D02*
Y161035D01*
X59457Y157965D02*
Y161035D01*
X67075Y156390D02*
X69969D01*
X72500Y198390D02*
X75394D01*
X78543D02*
X81437D01*
X78543Y204610D02*
X81437D01*
X70925Y199965D02*
Y203035D01*
X83012Y199965D02*
Y203035D01*
X72500Y204610D02*
X75394D01*
X180390Y165075D02*
Y167969D01*
Y159031D02*
Y161925D01*
X186610Y159031D02*
Y161925D01*
X181965Y169543D02*
X185035D01*
X181965Y157457D02*
X185035D01*
X186610Y165075D02*
Y167969D01*
X48390Y147075D02*
Y149969D01*
Y141032D02*
Y143925D01*
X54610Y141032D02*
Y143925D01*
X49965Y151543D02*
X53035D01*
X49965Y139457D02*
X53035D01*
X54610Y147075D02*
Y149969D01*
X48390Y110075D02*
Y112969D01*
Y104032D02*
Y106925D01*
X54610Y104032D02*
Y106925D01*
X49965Y114543D02*
X53035D01*
X49965Y102457D02*
X53035D01*
X54610Y110075D02*
Y112969D01*
X99575Y49110D02*
X102469D01*
X93531D02*
X96425D01*
X93531Y42890D02*
X96425D01*
X104043Y44465D02*
Y47535D01*
X91957Y44465D02*
Y47535D01*
X99575Y42890D02*
X102469D01*
X197390Y278075D02*
Y280969D01*
Y272031D02*
Y274925D01*
X203610Y272031D02*
Y274925D01*
X198965Y282543D02*
X202035D01*
X198965Y270457D02*
X202035D01*
X203610Y278075D02*
Y280969D01*
X212110Y272032D02*
Y274925D01*
Y278075D02*
Y280969D01*
X205890Y278075D02*
Y280969D01*
X207465Y270457D02*
X210535D01*
X207465Y282543D02*
X210535D01*
X205890Y272032D02*
Y274925D01*
X128032Y193890D02*
X130925D01*
X134075D02*
X136969D01*
X134075Y200110D02*
X136969D01*
X126457Y195465D02*
Y198535D01*
X138543Y195465D02*
Y198535D01*
X128032Y200110D02*
X130925D01*
X128575Y49610D02*
X131469D01*
X122531D02*
X125425D01*
X122531Y43390D02*
X125425D01*
X133043Y44965D02*
Y48035D01*
X120957Y44965D02*
Y48035D01*
X128575Y43390D02*
X131469D01*
X48390Y129075D02*
Y131968D01*
Y123031D02*
Y125925D01*
X54610Y123031D02*
Y125925D01*
X49965Y133543D02*
X53035D01*
X49965Y121457D02*
X53035D01*
X54610Y129075D02*
Y131968D01*
X48390Y91075D02*
Y93968D01*
Y85031D02*
Y87925D01*
X54610Y85031D02*
Y87925D01*
X49965Y95543D02*
X53035D01*
X49965Y83457D02*
X53035D01*
X54610Y91075D02*
Y93968D01*
X101110Y102532D02*
Y105425D01*
Y108575D02*
Y111469D01*
X94890Y108575D02*
Y111469D01*
X96465Y100957D02*
X99535D01*
X96465Y113043D02*
X99535D01*
X94890Y102532D02*
Y105425D01*
X203110Y321032D02*
Y323925D01*
Y327075D02*
Y329969D01*
X196890Y327075D02*
Y329969D01*
X198465Y319457D02*
X201535D01*
X198465Y331543D02*
X201535D01*
X196890Y321032D02*
Y323925D01*
X205890Y327075D02*
Y329969D01*
Y321031D02*
Y323925D01*
X212110Y321031D02*
Y323925D01*
X207465Y331543D02*
X210535D01*
X207465Y319457D02*
X210535D01*
X212110Y327075D02*
Y329969D01*
X117575Y200610D02*
X120469D01*
X111531D02*
X114425D01*
X111531Y194390D02*
X114425D01*
X122043Y195965D02*
Y199035D01*
X109957Y195965D02*
Y199035D01*
X117575Y194390D02*
X120469D01*
X50575Y78110D02*
X53469D01*
X44531D02*
X47425D01*
X44531Y71890D02*
X47425D01*
X55043Y73465D02*
Y76535D01*
X42957Y73465D02*
Y76535D01*
X50575Y71890D02*
X53469D01*
X65531D02*
X68425D01*
X71575D02*
X74469D01*
X71575Y78110D02*
X74469D01*
X63957Y73465D02*
Y76535D01*
X76043Y73465D02*
Y76535D01*
X65531Y78110D02*
X68425D01*
X132032Y180390D02*
X134925D01*
X138075D02*
X140969D01*
X138075Y186610D02*
X140969D01*
X130457Y181965D02*
Y185035D01*
X142543Y181965D02*
Y185035D01*
X132032Y186610D02*
X134925D01*
X65531Y257890D02*
X68425D01*
X71575D02*
X74469D01*
X71575Y264110D02*
X74469D01*
X63957Y259465D02*
Y262535D01*
X76043Y259465D02*
Y262535D01*
X65531Y264110D02*
X68425D01*
X164531Y100890D02*
X167425D01*
X170575D02*
X173469D01*
X170575Y107110D02*
X173469D01*
X162957Y102465D02*
Y105535D01*
X175043Y102465D02*
Y105535D01*
X164531Y107110D02*
X167425D01*
X319390Y31075D02*
Y33969D01*
Y25031D02*
Y27925D01*
X325610Y25031D02*
Y27925D01*
X320965Y35543D02*
X324035D01*
X320965Y23457D02*
X324035D01*
X325610Y31075D02*
Y33969D01*
X132032Y172390D02*
X134925D01*
X138075D02*
X140969D01*
X138075Y178610D02*
X140969D01*
X130457Y173965D02*
Y177035D01*
X142543Y173965D02*
Y177035D01*
X132032Y178610D02*
X134925D01*
X374575Y240110D02*
X377469D01*
X368531D02*
X371425D01*
X368531Y233890D02*
X371425D01*
X379043Y235465D02*
Y238535D01*
X366957Y235465D02*
Y238535D01*
X374575Y233890D02*
X377469D01*
X374575Y231110D02*
X377469D01*
X368531D02*
X371425D01*
X368531Y224890D02*
X371425D01*
X379043Y226465D02*
Y229535D01*
X366957Y226465D02*
Y229535D01*
X374575Y224890D02*
X377469D01*
X313610Y25032D02*
Y27925D01*
Y31075D02*
Y33969D01*
X307390Y31075D02*
Y33969D01*
X308965Y23457D02*
X312035D01*
X308965Y35543D02*
X312035D01*
X307390Y25032D02*
Y27925D01*
X295890Y31075D02*
Y33969D01*
Y25031D02*
Y27925D01*
X302110Y25031D02*
Y27925D01*
X297465Y35543D02*
X300535D01*
X297465Y23457D02*
X300535D01*
X302110Y31075D02*
Y33969D01*
X191890Y308075D02*
Y310968D01*
Y302031D02*
Y304925D01*
X198110Y302031D02*
Y304925D01*
X193465Y312543D02*
X196535D01*
X193465Y300457D02*
X196535D01*
X198110Y308075D02*
Y310968D01*
X70925Y196610D02*
X75394D01*
X78543D02*
X83012D01*
X70925Y190390D02*
X75394D01*
X83012D02*
Y196610D01*
X70925Y190390D02*
Y196610D01*
X78543Y190390D02*
X83012D01*
X51390Y222457D02*
Y226925D01*
Y230075D02*
Y234543D01*
X57610Y222457D02*
Y226925D01*
X51390Y234543D02*
X57610D01*
X51390Y222457D02*
X57610D01*
Y230075D02*
Y234543D01*
X51390Y203457D02*
Y207925D01*
Y211075D02*
Y215543D01*
X57610Y203457D02*
Y207925D01*
X51390Y215543D02*
X57610D01*
X51390Y203457D02*
X57610D01*
Y211075D02*
Y215543D01*
X51390Y183957D02*
Y188425D01*
Y191575D02*
Y196043D01*
X57610Y183957D02*
Y188425D01*
X51390Y196043D02*
X57610D01*
X51390Y183957D02*
X57610D01*
Y191575D02*
Y196043D01*
X51390Y164957D02*
Y169425D01*
Y172575D02*
Y177043D01*
X57610Y164957D02*
Y169425D01*
X51390Y177043D02*
X57610D01*
X51390Y164957D02*
X57610D01*
Y172575D02*
Y177043D01*
X42390Y222457D02*
Y226925D01*
Y230075D02*
Y234543D01*
X48610Y222457D02*
Y226925D01*
X42390Y234543D02*
X48610D01*
X42390Y222457D02*
X48610D01*
Y230075D02*
Y234543D01*
X42390Y203457D02*
Y207925D01*
Y211075D02*
Y215543D01*
X48610Y203457D02*
Y207925D01*
X42390Y215543D02*
X48610D01*
X42390Y203457D02*
X48610D01*
Y211075D02*
Y215543D01*
X42390Y183957D02*
Y188425D01*
Y191575D02*
Y196043D01*
X48610Y183957D02*
Y188425D01*
X42390Y196043D02*
X48610D01*
X42390Y183957D02*
X48610D01*
Y191575D02*
Y196043D01*
X42390Y164957D02*
Y169425D01*
Y172575D02*
Y177043D01*
X48610Y164957D02*
Y169425D01*
X42390Y177043D02*
X48610D01*
X42390Y164957D02*
X48610D01*
Y172575D02*
Y177043D01*
X36610Y147075D02*
Y151543D01*
Y139457D02*
Y143925D01*
X30390Y147075D02*
Y151543D01*
Y139457D02*
X36610D01*
X30390Y151543D02*
X36610D01*
X30390Y139457D02*
Y143925D01*
X36610Y110075D02*
Y114543D01*
Y102457D02*
Y106925D01*
X30390Y110075D02*
Y114543D01*
Y102457D02*
X36610D01*
X30390Y114543D02*
X36610D01*
X30390Y102457D02*
Y106925D01*
X185110Y278075D02*
Y282543D01*
Y270457D02*
Y274925D01*
X178890Y278075D02*
Y282543D01*
Y270457D02*
X185110D01*
X178890Y282543D02*
X185110D01*
X178890Y270457D02*
Y274925D01*
X45610Y147075D02*
Y151543D01*
Y139457D02*
Y143925D01*
X39390Y147075D02*
Y151543D01*
Y139457D02*
X45610D01*
X39390Y151543D02*
X45610D01*
X39390Y139457D02*
Y143925D01*
X45610Y110075D02*
Y114543D01*
Y102457D02*
Y106925D01*
X39390Y110075D02*
Y114543D01*
Y102457D02*
X45610D01*
X39390Y114543D02*
X45610D01*
X39390Y102457D02*
Y106925D01*
X133610Y105075D02*
Y109543D01*
Y97457D02*
Y101925D01*
X127390Y105075D02*
Y109543D01*
Y97457D02*
X133610D01*
X127390Y109543D02*
X133610D01*
X127390Y97457D02*
Y101925D01*
X91890Y75457D02*
Y79925D01*
Y83075D02*
Y87543D01*
X98110Y75457D02*
Y79925D01*
X91890Y87543D02*
X98110D01*
X91890Y75457D02*
X98110D01*
Y83075D02*
Y87543D01*
X194110Y278075D02*
Y282543D01*
Y270457D02*
Y274925D01*
X187890Y278075D02*
Y282543D01*
Y270457D02*
X194110D01*
X187890Y282543D02*
X194110D01*
X187890Y270457D02*
Y274925D01*
X176610Y278075D02*
Y282543D01*
Y270457D02*
Y274925D01*
X170390Y278075D02*
Y282543D01*
Y270457D02*
X176610D01*
X170390Y282543D02*
X176610D01*
X170390Y270457D02*
Y274925D01*
X126890Y75457D02*
Y79925D01*
Y83075D02*
Y87543D01*
X133110Y75457D02*
Y79925D01*
X126890Y87543D02*
X133110D01*
X126890Y75457D02*
X133110D01*
Y83075D02*
Y87543D01*
X221110Y278075D02*
Y282543D01*
Y270457D02*
Y274925D01*
X214890Y278075D02*
Y282543D01*
Y270457D02*
X221110D01*
X214890Y282543D02*
X221110D01*
X214890Y270457D02*
Y274925D01*
X36610Y129075D02*
Y133543D01*
Y121457D02*
Y125925D01*
X30390Y129075D02*
Y133543D01*
Y121457D02*
X36610D01*
X30390Y133543D02*
X36610D01*
X30390Y121457D02*
Y125925D01*
X36610Y91075D02*
Y95543D01*
Y83457D02*
Y87925D01*
X30390Y91075D02*
Y95543D01*
Y83457D02*
X36610D01*
X30390Y95543D02*
X36610D01*
X30390Y83457D02*
Y87925D01*
X45610Y129075D02*
Y133543D01*
Y121457D02*
Y125925D01*
X39390Y129075D02*
Y133543D01*
Y121457D02*
X45610D01*
X39390Y133543D02*
X45610D01*
X39390Y121457D02*
Y125925D01*
X45610Y91075D02*
Y95543D01*
Y83457D02*
Y87925D01*
X39390Y91075D02*
Y95543D01*
Y83457D02*
X45610D01*
X39390Y95543D02*
X45610D01*
X39390Y83457D02*
Y87925D01*
X178890Y319457D02*
Y323925D01*
Y327075D02*
Y331543D01*
X185110Y319457D02*
Y323925D01*
X178890Y331543D02*
X185110D01*
X178890Y319457D02*
X185110D01*
Y327075D02*
Y331543D01*
X187390Y319457D02*
Y323925D01*
Y327075D02*
Y331543D01*
X193610Y319457D02*
Y323925D01*
X187390Y331543D02*
X193610D01*
X187390Y319457D02*
X193610D01*
Y327075D02*
Y331543D01*
X169890Y319457D02*
Y323925D01*
Y327075D02*
Y331543D01*
X176110Y319457D02*
Y323925D01*
X169890Y331543D02*
X176110D01*
X169890Y319457D02*
X176110D01*
Y327075D02*
Y331543D01*
X215390Y319457D02*
Y323925D01*
Y327075D02*
Y331543D01*
X221610Y319457D02*
Y323925D01*
X215390Y331543D02*
X221610D01*
X215390Y319457D02*
X221610D01*
Y327075D02*
Y331543D01*
X50575Y53890D02*
X55043D01*
X42957D02*
X47425D01*
X50575Y60110D02*
X55043D01*
X42957Y53890D02*
Y60110D01*
X55043Y53890D02*
Y60110D01*
X42957D02*
X47425D01*
X63957D02*
X68425D01*
X71575D02*
X76043D01*
X63957Y53890D02*
X68425D01*
X76043D02*
Y60110D01*
X63957Y53890D02*
Y60110D01*
X71575Y53890D02*
X76043D01*
X50575Y63890D02*
X55043D01*
X42957D02*
X47425D01*
X50575Y70110D02*
X55043D01*
X42957Y63890D02*
Y70110D01*
X55043Y63890D02*
Y70110D01*
X42957D02*
X47425D01*
X63957D02*
X68425D01*
X71575D02*
X76043D01*
X63957Y63890D02*
X68425D01*
X76043D02*
Y70110D01*
X63957Y63890D02*
Y70110D01*
X71575Y63890D02*
X76043D01*
X181390Y114957D02*
Y119425D01*
Y122575D02*
Y127043D01*
X187610Y114957D02*
Y119425D01*
X181390Y127043D02*
X187610D01*
X181390Y114957D02*
X187610D01*
Y122575D02*
Y127043D01*
X245390Y90457D02*
Y94925D01*
Y98075D02*
Y102543D01*
X251610Y90457D02*
Y94925D01*
X245390Y102543D02*
X251610D01*
X245390Y90457D02*
X251610D01*
Y98075D02*
Y102543D01*
X187610Y140575D02*
Y145043D01*
Y132957D02*
Y137425D01*
X181390Y140575D02*
Y145043D01*
Y132957D02*
X187610D01*
X181390Y145043D02*
X187610D01*
X181390Y132957D02*
Y137425D01*
X236890Y90457D02*
Y94925D01*
Y98075D02*
Y102543D01*
X243110Y90457D02*
Y94925D01*
X236890Y102543D02*
X243110D01*
X236890Y90457D02*
X243110D01*
Y98075D02*
Y102543D01*
X236890Y71957D02*
Y76425D01*
Y79575D02*
Y84043D01*
X243110Y71957D02*
Y76425D01*
X236890Y84043D02*
X243110D01*
X236890Y71957D02*
X243110D01*
Y79575D02*
Y84043D01*
X152575Y100890D02*
X157043D01*
X144957D02*
X149425D01*
X152575Y107110D02*
X157043D01*
X144957Y100890D02*
Y107110D01*
X157043Y100890D02*
Y107110D01*
X144957D02*
X149425D01*
X144957Y145110D02*
X149425D01*
X152575D02*
X157043D01*
X144957Y138890D02*
X149425D01*
X157043D02*
Y145110D01*
X144957Y138890D02*
Y145110D01*
X152575Y138890D02*
X157043D01*
X60110Y265575D02*
Y270043D01*
Y257957D02*
Y262425D01*
X53890Y265575D02*
Y270043D01*
Y257957D02*
X60110D01*
X53890Y270043D02*
X60110D01*
X53890Y257957D02*
Y262425D01*
X51110Y265575D02*
Y270043D01*
Y257957D02*
Y262425D01*
X44890Y265575D02*
Y270043D01*
Y257957D02*
X51110D01*
X44890Y270043D02*
X51110D01*
X44890Y257957D02*
Y262425D01*
X144957Y137110D02*
X149425D01*
X152575D02*
X157043D01*
X144957Y130890D02*
X149425D01*
X157043D02*
Y137110D01*
X144957Y130890D02*
Y137110D01*
X152575Y130890D02*
X157043D01*
X144957Y99110D02*
X149425D01*
X152575D02*
X157043D01*
X144957Y92890D02*
X149425D01*
X157043D02*
Y99110D01*
X144957Y92890D02*
Y99110D01*
X152575Y92890D02*
X157043D01*
X100110Y281543D02*
Y286012D01*
Y273925D02*
Y278394D01*
X93890Y281543D02*
Y286012D01*
Y273925D02*
X100110D01*
X93890Y286012D02*
X100110D01*
X93890Y273925D02*
Y278394D01*
X63957Y272110D02*
X68425D01*
X71575D02*
X76043D01*
X63957Y265890D02*
X68425D01*
X76043D02*
Y272110D01*
X63957Y265890D02*
Y272110D01*
X71575Y265890D02*
X76043D01*
X72110Y298575D02*
Y303043D01*
Y290957D02*
Y295425D01*
X65890Y298575D02*
Y303043D01*
Y290957D02*
X72110D01*
X65890Y303043D02*
X72110D01*
X65890Y290957D02*
Y295425D01*
X90457Y212610D02*
X94925D01*
X98075D02*
X102543D01*
X90457Y206390D02*
X94925D01*
X102543D02*
Y212610D01*
X90457Y206390D02*
Y212610D01*
X98075Y206390D02*
X102543D01*
X178110Y165075D02*
Y169543D01*
Y157457D02*
Y161925D01*
X171890Y165075D02*
Y169543D01*
Y157457D02*
X178110D01*
X171890Y169543D02*
X178110D01*
X171890Y157457D02*
Y161925D01*
X109957Y206390D02*
Y212610D01*
Y206390D02*
X122043D01*
Y212610D01*
X109957D02*
X122043D01*
X89673Y158173D02*
Y179827D01*
X111327Y158173D02*
Y179827D01*
X89673D02*
X111327D01*
X89673Y158173D02*
X111327D01*
X342535Y327303D02*
Y331457D01*
Y338543D02*
Y342697D01*
X329465Y338543D02*
Y342697D01*
Y327303D02*
Y331457D01*
X331039Y344272D02*
X340961D01*
X331039Y325728D02*
X340961D01*
X342535Y256303D02*
Y260457D01*
Y267543D02*
Y271697D01*
X329465Y267543D02*
Y271697D01*
Y256303D02*
Y260457D01*
X331039Y273272D02*
X340961D01*
X331039Y254728D02*
X340961D01*
X61500Y114500D02*
X71500D01*
X61500D02*
Y154500D01*
X71500Y114500D02*
Y154500D01*
X61500D02*
X71500D01*
X78543Y206390D02*
X83012D01*
X70925D02*
X75394D01*
X78543Y212610D02*
X83012D01*
X70925Y206390D02*
Y212610D01*
X83012Y206390D02*
Y212610D01*
X70925D02*
X75394D01*
D54*
X192999Y316499D02*
X192499Y316999D01*
X191500D01*
X191000Y316499D01*
Y314500D01*
X191500Y314000D01*
X192499D01*
X192999Y314500D01*
X195499Y314000D02*
Y316999D01*
X193999Y315499D01*
X195998D01*
X198498Y314000D02*
Y316999D01*
X196998Y315499D01*
X198997D01*
X296999Y39499D02*
X296499Y39999D01*
X295500D01*
X295000Y39499D01*
Y37500D01*
X295500Y37000D01*
X296499D01*
X296999Y37500D01*
X299499Y37000D02*
Y39999D01*
X297999Y38500D01*
X299998D01*
X300998Y39499D02*
X301498Y39999D01*
X302498D01*
X302997Y39499D01*
Y38999D01*
X302498Y38500D01*
X301998D01*
X302498D01*
X302997Y38000D01*
Y37500D01*
X302498Y37000D01*
X301498D01*
X300998Y37500D01*
X308499Y39499D02*
X307999Y39999D01*
X307000D01*
X306500Y39499D01*
Y37500D01*
X307000Y37000D01*
X307999D01*
X308499Y37500D01*
X310999Y37000D02*
Y39999D01*
X309499Y38500D01*
X311498D01*
X314497Y37000D02*
X312498D01*
X314497Y38999D01*
Y39499D01*
X313998Y39999D01*
X312998D01*
X312498Y39499D01*
X382499Y228999D02*
X381999Y229499D01*
X381000D01*
X380500Y228999D01*
Y227000D01*
X381000Y226500D01*
X381999D01*
X382499Y227000D01*
X384998Y226500D02*
Y229499D01*
X383499Y227999D01*
X385498D01*
X386498Y226500D02*
X387498D01*
X386998D01*
Y229499D01*
X386498Y228999D01*
X227999Y81499D02*
X227500Y81999D01*
X226500D01*
X226000Y81499D01*
Y79500D01*
X226500Y79000D01*
X227500D01*
X227999Y79500D01*
X228999Y79000D02*
X229999D01*
X229499D01*
Y81999D01*
X228999Y81499D01*
X213499Y124499D02*
X213000Y124999D01*
X212000D01*
X211500Y124499D01*
Y122500D01*
X212000Y122000D01*
X213000D01*
X213499Y122500D01*
X216498Y122000D02*
X214499D01*
X216498Y123999D01*
Y124499D01*
X215999Y124999D01*
X214999D01*
X214499Y124499D01*
X74499Y168999D02*
X74000Y169499D01*
X73000D01*
X72500Y168999D01*
Y167000D01*
X73000Y166500D01*
X74000D01*
X74499Y167000D01*
X75499Y168999D02*
X75999Y169499D01*
X76999D01*
X77498Y168999D01*
Y168499D01*
X76999Y167999D01*
X76499D01*
X76999D01*
X77498Y167500D01*
Y167000D01*
X76999Y166500D01*
X75999D01*
X75499Y167000D01*
X346999Y336499D02*
X346499Y336999D01*
X345500D01*
X345000Y336499D01*
Y334500D01*
X345500Y334000D01*
X346499D01*
X346999Y334500D01*
X349499Y334000D02*
Y336999D01*
X347999Y335500D01*
X349998D01*
X345999Y265499D02*
X345499Y265999D01*
X344500D01*
X344000Y265499D01*
Y263500D01*
X344500Y263000D01*
X345499D01*
X345999Y263500D01*
X348998Y265999D02*
X346999D01*
Y264499D01*
X347999Y264999D01*
X348499D01*
X348998Y264499D01*
Y263500D01*
X348499Y263000D01*
X347499D01*
X346999Y263500D01*
X74499Y159999D02*
X74000Y160499D01*
X73000D01*
X72500Y159999D01*
Y158000D01*
X73000Y157500D01*
X74000D01*
X74499Y158000D01*
X77498Y160499D02*
X76499Y159999D01*
X75499Y159000D01*
Y158000D01*
X75999Y157500D01*
X76999D01*
X77498Y158000D01*
Y158500D01*
X76999Y159000D01*
X75499D01*
X65968Y202999D02*
X65468Y203499D01*
X64468D01*
X63969Y202999D01*
Y201000D01*
X64468Y200500D01*
X65468D01*
X65968Y201000D01*
X66968Y203499D02*
X68967D01*
Y202999D01*
X66968Y201000D01*
Y200500D01*
X182999Y173999D02*
X182500Y174499D01*
X181500D01*
X181000Y173999D01*
Y172000D01*
X181500Y171500D01*
X182500D01*
X182999Y172000D01*
X183999Y173999D02*
X184499Y174499D01*
X185499D01*
X185998Y173999D01*
Y173499D01*
X185499Y173000D01*
X185998Y172500D01*
Y172000D01*
X185499Y171500D01*
X184499D01*
X183999Y172000D01*
Y172500D01*
X184499Y173000D01*
X183999Y173499D01*
Y173999D01*
X184499Y173000D02*
X185499D01*
X217499Y160999D02*
X217000Y161499D01*
X216000D01*
X215500Y160999D01*
Y159000D01*
X216000Y158500D01*
X217000D01*
X217499Y159000D01*
X218499D02*
X218999Y158500D01*
X219999D01*
X220498Y159000D01*
Y160999D01*
X219999Y161499D01*
X218999D01*
X218499Y160999D01*
Y160499D01*
X218999Y160000D01*
X220498D01*
X49499Y155999D02*
X49000Y156499D01*
X48000D01*
X47500Y155999D01*
Y154000D01*
X48000Y153500D01*
X49000D01*
X49499Y154000D01*
X50499Y153500D02*
X51499D01*
X50999D01*
Y156499D01*
X50499Y155999D01*
X52998Y153500D02*
X53998D01*
X53498D01*
Y156499D01*
X52998Y155999D01*
X49499Y118999D02*
X49000Y119499D01*
X48000D01*
X47500Y118999D01*
Y117000D01*
X48000Y116500D01*
X49000D01*
X49499Y117000D01*
X50499Y116500D02*
X51499D01*
X50999D01*
Y119499D01*
X50499Y118999D01*
X54998Y116500D02*
X52998D01*
X54998Y118499D01*
Y118999D01*
X54498Y119499D01*
X53498D01*
X52998Y118999D01*
X107999Y46499D02*
X107500Y46999D01*
X106500D01*
X106000Y46499D01*
Y44500D01*
X106500Y44000D01*
X107500D01*
X107999Y44500D01*
X108999Y44000D02*
X109999D01*
X109499D01*
Y46999D01*
X108999Y46499D01*
X111498D02*
X111998Y46999D01*
X112998D01*
X113498Y46499D01*
Y45999D01*
X112998Y45500D01*
X112498D01*
X112998D01*
X113498Y45000D01*
Y44500D01*
X112998Y44000D01*
X111998D01*
X111498Y44500D01*
X198999Y266999D02*
X198500Y267499D01*
X197500D01*
X197000Y266999D01*
Y265000D01*
X197500Y264500D01*
X198500D01*
X198999Y265000D01*
X199999Y264500D02*
X200999D01*
X200499D01*
Y267499D01*
X199999Y266999D01*
X203998Y264500D02*
Y267499D01*
X202498Y266000D01*
X204498D01*
X207999Y266999D02*
X207500Y267499D01*
X206500D01*
X206000Y266999D01*
Y265000D01*
X206500Y264500D01*
X207500D01*
X207999Y265000D01*
X208999Y264500D02*
X209999D01*
X209499D01*
Y267499D01*
X208999Y266999D01*
X213498Y267499D02*
X211498D01*
Y266000D01*
X212498Y266499D01*
X212998D01*
X213498Y266000D01*
Y265000D01*
X212998Y264500D01*
X211998D01*
X211498Y265000D01*
X130499Y204499D02*
X129999Y204999D01*
X129000D01*
X128500Y204499D01*
Y202500D01*
X129000Y202000D01*
X129999D01*
X130499Y202500D01*
X131499Y202000D02*
X132499D01*
X131999D01*
Y204999D01*
X131499Y204499D01*
X135998Y204999D02*
X134998Y204499D01*
X133998Y203500D01*
Y202500D01*
X134498Y202000D01*
X135498D01*
X135998Y202500D01*
Y203000D01*
X135498Y203500D01*
X133998D01*
X136999Y46999D02*
X136500Y47499D01*
X135500D01*
X135000Y46999D01*
Y45000D01*
X135500Y44500D01*
X136500D01*
X136999Y45000D01*
X137999Y44500D02*
X138999D01*
X138499D01*
Y47499D01*
X137999Y46999D01*
X140498Y47499D02*
X142498D01*
Y46999D01*
X140498Y45000D01*
Y44500D01*
X49499Y137999D02*
X49000Y138499D01*
X48000D01*
X47500Y137999D01*
Y136000D01*
X48000Y135500D01*
X49000D01*
X49499Y136000D01*
X50499Y135500D02*
X51499D01*
X50999D01*
Y138499D01*
X50499Y137999D01*
X52998D02*
X53498Y138499D01*
X54498D01*
X54998Y137999D01*
Y137499D01*
X54498Y136999D01*
X54998Y136500D01*
Y136000D01*
X54498Y135500D01*
X53498D01*
X52998Y136000D01*
Y136500D01*
X53498Y136999D01*
X52998Y137499D01*
Y137999D01*
X53498Y136999D02*
X54498D01*
X49499Y99999D02*
X49000Y100499D01*
X48000D01*
X47500Y99999D01*
Y98000D01*
X48000Y97500D01*
X49000D01*
X49499Y98000D01*
X50499Y97500D02*
X51499D01*
X50999D01*
Y100499D01*
X50499Y99999D01*
X52998Y98000D02*
X53498Y97500D01*
X54498D01*
X54998Y98000D01*
Y99999D01*
X54498Y100499D01*
X53498D01*
X52998Y99999D01*
Y99499D01*
X53498Y99000D01*
X54998D01*
X94999Y117499D02*
X94499Y117999D01*
X93500D01*
X93000Y117499D01*
Y115500D01*
X93500Y115000D01*
X94499D01*
X94999Y115500D01*
X97998Y115000D02*
X95999D01*
X97998Y116999D01*
Y117499D01*
X97499Y117999D01*
X96499D01*
X95999Y117499D01*
X98998D02*
X99498Y117999D01*
X100498D01*
X100997Y117499D01*
Y115500D01*
X100498Y115000D01*
X99498D01*
X98998Y115500D01*
Y117499D01*
X197999Y337999D02*
X197500Y338499D01*
X196500D01*
X196000Y337999D01*
Y336000D01*
X196500Y335500D01*
X197500D01*
X197999Y336000D01*
X200998Y335500D02*
X198999D01*
X200998Y337499D01*
Y337999D01*
X200499Y338499D01*
X199499D01*
X198999Y337999D01*
X201998Y335500D02*
X202998D01*
X202498D01*
Y338499D01*
X201998Y337999D01*
X206999D02*
X206500Y338499D01*
X205500D01*
X205000Y337999D01*
Y336000D01*
X205500Y335500D01*
X206500D01*
X206999Y336000D01*
X209998Y335500D02*
X207999D01*
X209998Y337499D01*
Y337999D01*
X209499Y338499D01*
X208499D01*
X207999Y337999D01*
X212997Y335500D02*
X210998D01*
X212997Y337499D01*
Y337999D01*
X212498Y338499D01*
X211498D01*
X210998Y337999D01*
X113999Y204499D02*
X113499Y204999D01*
X112500D01*
X112000Y204499D01*
Y202500D01*
X112500Y202000D01*
X113499D01*
X113999Y202500D01*
X116998Y202000D02*
X114999D01*
X116998Y203999D01*
Y204499D01*
X116499Y204999D01*
X115499D01*
X114999Y204499D01*
X117998D02*
X118498Y204999D01*
X119498D01*
X119997Y204499D01*
Y203999D01*
X119498Y203500D01*
X118998D01*
X119498D01*
X119997Y203000D01*
Y202500D01*
X119498Y202000D01*
X118498D01*
X117998Y202500D01*
X34999Y76499D02*
X34499Y76999D01*
X33500D01*
X33000Y76499D01*
Y74500D01*
X33500Y74000D01*
X34499D01*
X34999Y74500D01*
X37998Y74000D02*
X35999D01*
X37998Y75999D01*
Y76499D01*
X37499Y76999D01*
X36499D01*
X35999Y76499D01*
X40498Y74000D02*
Y76999D01*
X38998Y75499D01*
X40997D01*
X79999Y75499D02*
X79500Y75999D01*
X78500D01*
X78000Y75499D01*
Y73500D01*
X78500Y73000D01*
X79500D01*
X79999Y73500D01*
X82998Y73000D02*
X80999D01*
X82998Y74999D01*
Y75499D01*
X82499Y75999D01*
X81499D01*
X80999Y75499D01*
X85997Y75999D02*
X83998D01*
Y74499D01*
X84998Y74999D01*
X85498D01*
X85997Y74499D01*
Y73500D01*
X85498Y73000D01*
X84498D01*
X83998Y73500D01*
X145999Y184499D02*
X145500Y184999D01*
X144500D01*
X144000Y184499D01*
Y182500D01*
X144500Y182000D01*
X145500D01*
X145999Y182500D01*
X148998Y182000D02*
X146999D01*
X148998Y183999D01*
Y184499D01*
X148499Y184999D01*
X147499D01*
X146999Y184499D01*
X151997Y184999D02*
X150998Y184499D01*
X149998Y183500D01*
Y182500D01*
X150498Y182000D01*
X151498D01*
X151997Y182500D01*
Y183000D01*
X151498Y183500D01*
X149998D01*
X79999Y261499D02*
X79500Y261999D01*
X78500D01*
X78000Y261499D01*
Y259500D01*
X78500Y259000D01*
X79500D01*
X79999Y259500D01*
X82998Y259000D02*
X80999D01*
X82998Y260999D01*
Y261499D01*
X82499Y261999D01*
X81499D01*
X80999Y261499D01*
X83998Y261999D02*
X85997D01*
Y261499D01*
X83998Y259500D01*
Y259000D01*
X178999Y104499D02*
X178499Y104999D01*
X177500D01*
X177000Y104499D01*
Y102500D01*
X177500Y102000D01*
X178499D01*
X178999Y102500D01*
X181998Y102000D02*
X179999D01*
X181998Y103999D01*
Y104499D01*
X181499Y104999D01*
X180499D01*
X179999Y104499D01*
X182998D02*
X183498Y104999D01*
X184498D01*
X184997Y104499D01*
Y103999D01*
X184498Y103499D01*
X184997Y103000D01*
Y102500D01*
X184498Y102000D01*
X183498D01*
X182998Y102500D01*
Y103000D01*
X183498Y103499D01*
X182998Y103999D01*
Y104499D01*
X183498Y103499D02*
X184498D01*
X320499Y39499D02*
X320000Y39999D01*
X319000D01*
X318500Y39499D01*
Y37500D01*
X319000Y37000D01*
X320000D01*
X320499Y37500D01*
X323498Y37000D02*
X321499D01*
X323498Y38999D01*
Y39499D01*
X322998Y39999D01*
X321999D01*
X321499Y39499D01*
X324498Y37500D02*
X324998Y37000D01*
X325998D01*
X326497Y37500D01*
Y39499D01*
X325998Y39999D01*
X324998D01*
X324498Y39499D01*
Y38999D01*
X324998Y38500D01*
X326497D01*
X145999Y175999D02*
X145500Y176499D01*
X144500D01*
X144000Y175999D01*
Y174000D01*
X144500Y173500D01*
X145500D01*
X145999Y174000D01*
X146999Y175999D02*
X147499Y176499D01*
X148499D01*
X148998Y175999D01*
Y175499D01*
X148499Y174999D01*
X147999D01*
X148499D01*
X148998Y174500D01*
Y174000D01*
X148499Y173500D01*
X147499D01*
X146999Y174000D01*
X149998Y175999D02*
X150498Y176499D01*
X151498D01*
X151997Y175999D01*
Y174000D01*
X151498Y173500D01*
X150498D01*
X149998Y174000D01*
Y175999D01*
X382499Y237999D02*
X381999Y238499D01*
X381000D01*
X380500Y237999D01*
Y236000D01*
X381000Y235500D01*
X381999D01*
X382499Y236000D01*
X383499Y237999D02*
X383999Y238499D01*
X384998D01*
X385498Y237999D01*
Y237499D01*
X384998Y237000D01*
X384499D01*
X384998D01*
X385498Y236500D01*
Y236000D01*
X384998Y235500D01*
X383999D01*
X383499Y236000D01*
X386498Y235500D02*
X387498D01*
X386998D01*
Y238499D01*
X386498Y237999D01*
X231000Y397499D02*
Y394500D01*
X232500D01*
X232999Y395000D01*
Y396999D01*
X232500Y397499D01*
X231000D01*
X233999Y394500D02*
X234999D01*
X234499D01*
Y397499D01*
X233999Y396999D01*
X196000Y42999D02*
Y40000D01*
X197500D01*
X197999Y40500D01*
Y42499D01*
X197500Y42999D01*
X196000D01*
X200998Y40000D02*
X198999D01*
X200998Y41999D01*
Y42499D01*
X200499Y42999D01*
X199499D01*
X198999Y42499D01*
X220000Y42727D02*
Y39728D01*
X221499D01*
X221999Y40228D01*
Y42228D01*
X221499Y42727D01*
X220000D01*
X222999Y42228D02*
X223499Y42727D01*
X224499D01*
X224998Y42228D01*
Y41728D01*
X224499Y41228D01*
X223999D01*
X224499D01*
X224998Y40728D01*
Y40228D01*
X224499Y39728D01*
X223499D01*
X222999Y40228D01*
X290000Y391999D02*
Y389000D01*
X291499D01*
X291999Y389500D01*
Y391499D01*
X291499Y391999D01*
X290000D01*
X294498Y389000D02*
Y391999D01*
X292999Y390499D01*
X294998D01*
X300000Y231999D02*
Y229000D01*
X301500D01*
X301999Y229500D01*
Y231499D01*
X301500Y231999D01*
X300000D01*
X304998D02*
X302999D01*
Y230500D01*
X303999Y230999D01*
X304499D01*
X304998Y230500D01*
Y229500D01*
X304499Y229000D01*
X303499D01*
X302999Y229500D01*
X106000Y60999D02*
Y58000D01*
X107500D01*
X107999Y58500D01*
Y60499D01*
X107500Y60999D01*
X106000D01*
X110998D02*
X109999Y60499D01*
X108999Y59500D01*
Y58500D01*
X109499Y58000D01*
X110499D01*
X110998Y58500D01*
Y59000D01*
X110499Y59500D01*
X108999D01*
X114500Y60999D02*
Y58000D01*
X115999D01*
X116499Y58500D01*
Y60499D01*
X115999Y60999D01*
X114500D01*
X117499D02*
X119498D01*
Y60499D01*
X117499Y58500D01*
Y58000D01*
X357022Y173665D02*
Y176664D01*
X358522D01*
X359021Y176164D01*
Y175165D01*
X358522Y174665D01*
X357022D01*
X360021Y173665D02*
X361021D01*
X360521D01*
Y176664D01*
X360021Y176164D01*
X357022Y390335D02*
Y393334D01*
X358522D01*
X359021Y392834D01*
Y391834D01*
X358522Y391334D01*
X357022D01*
X362020Y390335D02*
X360021D01*
X362020Y392334D01*
Y392834D01*
X361521Y393334D01*
X360521D01*
X360021Y392834D01*
X30499Y237496D02*
Y239495D01*
X30000Y239995D01*
X29000D01*
X28500Y239495D01*
Y237496D01*
X29000Y236996D01*
X30000D01*
X29500Y237996D02*
X30499Y236996D01*
X30000D02*
X30499Y237496D01*
X31499Y236996D02*
X32499D01*
X31999D01*
Y239995D01*
X31499Y239495D01*
X30499Y218496D02*
Y220495D01*
X30000Y220995D01*
X29000D01*
X28500Y220495D01*
Y218496D01*
X29000Y217996D01*
X30000D01*
X29500Y218996D02*
X30499Y217996D01*
X30000D02*
X30499Y218496D01*
X33498Y217996D02*
X31499D01*
X33498Y219995D01*
Y220495D01*
X32999Y220995D01*
X31999D01*
X31499Y220495D01*
X30425Y199220D02*
Y201220D01*
X29925Y201719D01*
X28925D01*
X28425Y201220D01*
Y199220D01*
X28925Y198721D01*
X29925D01*
X29425Y199720D02*
X30425Y198721D01*
X29925D02*
X30425Y199220D01*
X31424Y201220D02*
X31924Y201719D01*
X32924D01*
X33424Y201220D01*
Y200720D01*
X32924Y200220D01*
X32424D01*
X32924D01*
X33424Y199720D01*
Y199220D01*
X32924Y198721D01*
X31924D01*
X31424Y199220D01*
X29925Y180220D02*
Y182220D01*
X29425Y182720D01*
X28425D01*
X27925Y182220D01*
Y180220D01*
X28425Y179720D01*
X29425D01*
X28925Y180720D02*
X29925Y179720D01*
X29425D02*
X29925Y180220D01*
X32424Y179720D02*
Y182720D01*
X30924Y181220D01*
X32924D01*
X169999Y129500D02*
Y131499D01*
X169500Y131999D01*
X168500D01*
X168000Y131499D01*
Y129500D01*
X168500Y129000D01*
X169500D01*
X169000Y130000D02*
X169999Y129000D01*
X169500D02*
X169999Y129500D01*
X172998Y131999D02*
X170999D01*
Y130499D01*
X171999Y130999D01*
X172499D01*
X172998Y130499D01*
Y129500D01*
X172499Y129000D01*
X171499D01*
X170999Y129500D01*
X169999Y148000D02*
Y149999D01*
X169500Y150499D01*
X168500D01*
X168000Y149999D01*
Y148000D01*
X168500Y147500D01*
X169500D01*
X169000Y148500D02*
X169999Y147500D01*
X169500D02*
X169999Y148000D01*
X172998Y150499D02*
X171999Y149999D01*
X170999Y149000D01*
Y148000D01*
X171499Y147500D01*
X172499D01*
X172998Y148000D01*
Y148500D01*
X172499Y149000D01*
X170999D01*
X63969Y208500D02*
Y211499D01*
X65468D01*
X65968Y210999D01*
Y209999D01*
X65468Y209500D01*
X63969D01*
X64968D02*
X65968Y208500D01*
X66968D02*
X67967D01*
X67467D01*
Y211499D01*
X66968Y210999D01*
X237500Y350000D02*
Y352999D01*
X239000D01*
X239499Y352499D01*
Y351500D01*
X239000Y351000D01*
X237500D01*
X238500D02*
X239499Y350000D01*
X242498D02*
X240499D01*
X242498Y351999D01*
Y352499D01*
X241999Y352999D01*
X240999D01*
X240499Y352499D01*
X237500Y246500D02*
Y249499D01*
X239000D01*
X239499Y248999D01*
Y248000D01*
X239000Y247500D01*
X237500D01*
X238500D02*
X239499Y246500D01*
X240499Y248999D02*
X240999Y249499D01*
X241999D01*
X242498Y248999D01*
Y248499D01*
X241999Y248000D01*
X241499D01*
X241999D01*
X242498Y247500D01*
Y247000D01*
X241999Y246500D01*
X240999D01*
X240499Y247000D01*
X343000Y354000D02*
Y356999D01*
X344499D01*
X344999Y356499D01*
Y355500D01*
X344499Y355000D01*
X343000D01*
X344000D02*
X344999Y354000D01*
X347498D02*
Y356999D01*
X345999Y355500D01*
X347998D01*
X344000Y283000D02*
Y285999D01*
X345499D01*
X345999Y285499D01*
Y284500D01*
X345499Y284000D01*
X344000D01*
X345000D02*
X345999Y283000D01*
X348998Y285999D02*
X346999D01*
Y284500D01*
X347999Y284999D01*
X348499D01*
X348998Y284500D01*
Y283500D01*
X348499Y283000D01*
X347499D01*
X346999Y283500D01*
X63969Y192500D02*
Y195499D01*
X65468D01*
X65968Y194999D01*
Y194000D01*
X65468Y193500D01*
X63969D01*
X64968D02*
X65968Y192500D01*
X68967Y195499D02*
X67967Y194999D01*
X66968Y194000D01*
Y193000D01*
X67467Y192500D01*
X68467D01*
X68967Y193000D01*
Y193500D01*
X68467Y194000D01*
X66968D01*
X52500Y236500D02*
Y239499D01*
X54000D01*
X54499Y238999D01*
Y238000D01*
X54000Y237500D01*
X52500D01*
X53500D02*
X54499Y236500D01*
X55499Y239499D02*
X57498D01*
Y238999D01*
X55499Y237000D01*
Y236500D01*
X52500Y217500D02*
Y220499D01*
X54000D01*
X54499Y219999D01*
Y219000D01*
X54000Y218500D01*
X52500D01*
X53500D02*
X54499Y217500D01*
X55499Y219999D02*
X55999Y220499D01*
X56999D01*
X57498Y219999D01*
Y219499D01*
X56999Y219000D01*
X57498Y218500D01*
Y218000D01*
X56999Y217500D01*
X55999D01*
X55499Y218000D01*
Y218500D01*
X55999Y219000D01*
X55499Y219499D01*
Y219999D01*
X55999Y219000D02*
X56999D01*
X52500Y198000D02*
Y200999D01*
X54000D01*
X54499Y200499D01*
Y199499D01*
X54000Y199000D01*
X52500D01*
X53500D02*
X54499Y198000D01*
X55499Y198500D02*
X55999Y198000D01*
X56999D01*
X57498Y198500D01*
Y200499D01*
X56999Y200999D01*
X55999D01*
X55499Y200499D01*
Y199999D01*
X55999Y199499D01*
X57498D01*
X51000Y179000D02*
Y181999D01*
X52500D01*
X52999Y181499D01*
Y180499D01*
X52500Y180000D01*
X51000D01*
X52000D02*
X52999Y179000D01*
X53999D02*
X54999D01*
X54499D01*
Y181999D01*
X53999Y181499D01*
X56498D02*
X56998Y181999D01*
X57998D01*
X58498Y181499D01*
Y179500D01*
X57998Y179000D01*
X56998D01*
X56498Y179500D01*
Y181499D01*
X42500Y236500D02*
Y239499D01*
X43999D01*
X44499Y238999D01*
Y238000D01*
X43999Y237500D01*
X42500D01*
X43500D02*
X44499Y236500D01*
X45499D02*
X46499D01*
X45999D01*
Y239499D01*
X45499Y238999D01*
X47998Y236500D02*
X48998D01*
X48498D01*
Y239499D01*
X47998Y238999D01*
X41500Y217500D02*
Y220499D01*
X43000D01*
X43499Y219999D01*
Y219000D01*
X43000Y218500D01*
X41500D01*
X42500D02*
X43499Y217500D01*
X44499D02*
X45499D01*
X44999D01*
Y220499D01*
X44499Y219999D01*
X48998Y217500D02*
X46998D01*
X48998Y219499D01*
Y219999D01*
X48498Y220499D01*
X47498D01*
X46998Y219999D01*
X41500Y198000D02*
Y200999D01*
X43000D01*
X43499Y200499D01*
Y199499D01*
X43000Y199000D01*
X41500D01*
X42500D02*
X43499Y198000D01*
X44499D02*
X45499D01*
X44999D01*
Y200999D01*
X44499Y200499D01*
X46998D02*
X47498Y200999D01*
X48498D01*
X48998Y200499D01*
Y199999D01*
X48498Y199499D01*
X47998D01*
X48498D01*
X48998Y199000D01*
Y198500D01*
X48498Y198000D01*
X47498D01*
X46998Y198500D01*
X41500Y179000D02*
Y181999D01*
X43000D01*
X43499Y181499D01*
Y180499D01*
X43000Y180000D01*
X41500D01*
X42500D02*
X43499Y179000D01*
X44499D02*
X45499D01*
X44999D01*
Y181999D01*
X44499Y181499D01*
X48498Y179000D02*
Y181999D01*
X46998Y180499D01*
X48998D01*
X29500Y153500D02*
Y156499D01*
X30999D01*
X31499Y155999D01*
Y154999D01*
X30999Y154500D01*
X29500D01*
X30500D02*
X31499Y153500D01*
X32499D02*
X33499D01*
X32999D01*
Y156499D01*
X32499Y155999D01*
X36998Y156499D02*
X34998D01*
Y154999D01*
X35998Y155499D01*
X36498D01*
X36998Y154999D01*
Y154000D01*
X36498Y153500D01*
X35498D01*
X34998Y154000D01*
X29500Y116500D02*
Y119499D01*
X30999D01*
X31499Y118999D01*
Y117999D01*
X30999Y117500D01*
X29500D01*
X30500D02*
X31499Y116500D01*
X32499D02*
X33499D01*
X32999D01*
Y119499D01*
X32499Y118999D01*
X36998Y119499D02*
X35998Y118999D01*
X34998Y117999D01*
Y117000D01*
X35498Y116500D01*
X36498D01*
X36998Y117000D01*
Y117500D01*
X36498Y117999D01*
X34998D01*
X178500Y264500D02*
Y267499D01*
X179999D01*
X180499Y266999D01*
Y266000D01*
X179999Y265500D01*
X178500D01*
X179500D02*
X180499Y264500D01*
X181499D02*
X182499D01*
X181999D01*
Y267499D01*
X181499Y266999D01*
X183998Y267499D02*
X185998D01*
Y266999D01*
X183998Y265000D01*
Y264500D01*
X38500Y153500D02*
Y156499D01*
X39999D01*
X40499Y155999D01*
Y154999D01*
X39999Y154500D01*
X38500D01*
X39500D02*
X40499Y153500D01*
X41499D02*
X42499D01*
X41999D01*
Y156499D01*
X41499Y155999D01*
X43998D02*
X44498Y156499D01*
X45498D01*
X45998Y155999D01*
Y155499D01*
X45498Y154999D01*
X45998Y154500D01*
Y154000D01*
X45498Y153500D01*
X44498D01*
X43998Y154000D01*
Y154500D01*
X44498Y154999D01*
X43998Y155499D01*
Y155999D01*
X44498Y154999D02*
X45498D01*
X38500Y116500D02*
Y119499D01*
X39999D01*
X40499Y118999D01*
Y117999D01*
X39999Y117500D01*
X38500D01*
X39500D02*
X40499Y116500D01*
X41499D02*
X42499D01*
X41999D01*
Y119499D01*
X41499Y118999D01*
X43998Y117000D02*
X44498Y116500D01*
X45498D01*
X45998Y117000D01*
Y118999D01*
X45498Y119499D01*
X44498D01*
X43998Y118999D01*
Y118499D01*
X44498Y117999D01*
X45998D01*
X126500Y111000D02*
Y113999D01*
X127999D01*
X128499Y113499D01*
Y112499D01*
X127999Y112000D01*
X126500D01*
X127500D02*
X128499Y111000D01*
X131498D02*
X129499D01*
X131498Y112999D01*
Y113499D01*
X130999Y113999D01*
X129999D01*
X129499Y113499D01*
X132498D02*
X132998Y113999D01*
X133998D01*
X134497Y113499D01*
Y111500D01*
X133998Y111000D01*
X132998D01*
X132498Y111500D01*
Y113499D01*
X91500Y89500D02*
Y92499D01*
X93000D01*
X93499Y91999D01*
Y91000D01*
X93000Y90500D01*
X91500D01*
X92500D02*
X93499Y89500D01*
X96498D02*
X94499D01*
X96498Y91499D01*
Y91999D01*
X95999Y92499D01*
X94999D01*
X94499Y91999D01*
X97498Y89500D02*
X98498D01*
X97998D01*
Y92499D01*
X97498Y91999D01*
X187500Y264500D02*
Y267499D01*
X188999D01*
X189499Y266999D01*
Y266000D01*
X188999Y265500D01*
X187500D01*
X188500D02*
X189499Y264500D01*
X192498D02*
X190499D01*
X192498Y266499D01*
Y266999D01*
X191999Y267499D01*
X190999D01*
X190499Y266999D01*
X195497Y264500D02*
X193498D01*
X195497Y266499D01*
Y266999D01*
X194998Y267499D01*
X193998D01*
X193498Y266999D01*
X169000Y264500D02*
Y267499D01*
X170500D01*
X170999Y266999D01*
Y266000D01*
X170500Y265500D01*
X169000D01*
X170000D02*
X170999Y264500D01*
X173998D02*
X171999D01*
X173998Y266499D01*
Y266999D01*
X173499Y267499D01*
X172499D01*
X171999Y266999D01*
X174998D02*
X175498Y267499D01*
X176498D01*
X176997Y266999D01*
Y266499D01*
X176498Y266000D01*
X175998D01*
X176498D01*
X176997Y265500D01*
Y265000D01*
X176498Y264500D01*
X175498D01*
X174998Y265000D01*
X109000Y85500D02*
Y88499D01*
X110500D01*
X110999Y87999D01*
Y86999D01*
X110500Y86500D01*
X109000D01*
X110000D02*
X110999Y85500D01*
X113998D02*
X111999D01*
X113998Y87499D01*
Y87999D01*
X113499Y88499D01*
X112499D01*
X111999Y87999D01*
X116498Y85500D02*
Y88499D01*
X114998Y86999D01*
X116997D01*
X126500Y89500D02*
Y92499D01*
X127999D01*
X128499Y91999D01*
Y91000D01*
X127999Y90500D01*
X126500D01*
X127500D02*
X128499Y89500D01*
X131498D02*
X129499D01*
X131498Y91499D01*
Y91999D01*
X130999Y92499D01*
X129999D01*
X129499Y91999D01*
X134497Y92499D02*
X132498D01*
Y91000D01*
X133498Y91499D01*
X133998D01*
X134497Y91000D01*
Y90000D01*
X133998Y89500D01*
X132998D01*
X132498Y90000D01*
X215000Y264500D02*
Y267499D01*
X216499D01*
X216999Y266999D01*
Y266000D01*
X216499Y265500D01*
X215000D01*
X216000D02*
X216999Y264500D01*
X219998D02*
X217999D01*
X219998Y266499D01*
Y266999D01*
X219498Y267499D01*
X218499D01*
X217999Y266999D01*
X222997Y267499D02*
X221998Y266999D01*
X220998Y266000D01*
Y265000D01*
X221498Y264500D01*
X222498D01*
X222997Y265000D01*
Y265500D01*
X222498Y266000D01*
X220998D01*
X29500Y135500D02*
Y138499D01*
X30999D01*
X31499Y137999D01*
Y136999D01*
X30999Y136500D01*
X29500D01*
X30500D02*
X31499Y135500D01*
X34498D02*
X32499D01*
X34498Y137499D01*
Y137999D01*
X33999Y138499D01*
X32999D01*
X32499Y137999D01*
X35498Y138499D02*
X37497D01*
Y137999D01*
X35498Y136000D01*
Y135500D01*
X29500Y97500D02*
Y100499D01*
X30999D01*
X31499Y99999D01*
Y99000D01*
X30999Y98500D01*
X29500D01*
X30500D02*
X31499Y97500D01*
X34498D02*
X32499D01*
X34498Y99499D01*
Y99999D01*
X33999Y100499D01*
X32999D01*
X32499Y99999D01*
X35498D02*
X35998Y100499D01*
X36998D01*
X37497Y99999D01*
Y99499D01*
X36998Y99000D01*
X37497Y98500D01*
Y98000D01*
X36998Y97500D01*
X35998D01*
X35498Y98000D01*
Y98500D01*
X35998Y99000D01*
X35498Y99499D01*
Y99999D01*
X35998Y99000D02*
X36998D01*
X38500Y135500D02*
Y138499D01*
X39999D01*
X40499Y137999D01*
Y136999D01*
X39999Y136500D01*
X38500D01*
X39500D02*
X40499Y135500D01*
X43498D02*
X41499D01*
X43498Y137499D01*
Y137999D01*
X42999Y138499D01*
X41999D01*
X41499Y137999D01*
X44498Y136000D02*
X44998Y135500D01*
X45998D01*
X46497Y136000D01*
Y137999D01*
X45998Y138499D01*
X44998D01*
X44498Y137999D01*
Y137499D01*
X44998Y136999D01*
X46497D01*
X38500Y97500D02*
Y100499D01*
X39999D01*
X40499Y99999D01*
Y99000D01*
X39999Y98500D01*
X38500D01*
X39500D02*
X40499Y97500D01*
X41499Y99999D02*
X41999Y100499D01*
X42999D01*
X43498Y99999D01*
Y99499D01*
X42999Y99000D01*
X42499D01*
X42999D01*
X43498Y98500D01*
Y98000D01*
X42999Y97500D01*
X41999D01*
X41499Y98000D01*
X44498Y99999D02*
X44998Y100499D01*
X45998D01*
X46497Y99999D01*
Y98000D01*
X45998Y97500D01*
X44998D01*
X44498Y98000D01*
Y99999D01*
X178500Y335500D02*
Y338499D01*
X179999D01*
X180499Y337999D01*
Y337000D01*
X179999Y336500D01*
X178500D01*
X179500D02*
X180499Y335500D01*
X181499Y337999D02*
X181999Y338499D01*
X182999D01*
X183498Y337999D01*
Y337499D01*
X182999Y337000D01*
X182499D01*
X182999D01*
X183498Y336500D01*
Y336000D01*
X182999Y335500D01*
X181999D01*
X181499Y336000D01*
X184498Y335500D02*
X185498D01*
X184998D01*
Y338499D01*
X184498Y337999D01*
X187000Y335500D02*
Y338499D01*
X188499D01*
X188999Y337999D01*
Y337000D01*
X188499Y336500D01*
X187000D01*
X188000D02*
X188999Y335500D01*
X189999Y337999D02*
X190499Y338499D01*
X191499D01*
X191998Y337999D01*
Y337499D01*
X191499Y337000D01*
X190999D01*
X191499D01*
X191998Y336500D01*
Y336000D01*
X191499Y335500D01*
X190499D01*
X189999Y336000D01*
X194997Y335500D02*
X192998D01*
X194997Y337499D01*
Y337999D01*
X194498Y338499D01*
X193498D01*
X192998Y337999D01*
X168500Y335500D02*
Y338499D01*
X170000D01*
X170499Y337999D01*
Y337000D01*
X170000Y336500D01*
X168500D01*
X169500D02*
X170499Y335500D01*
X171499Y337999D02*
X171999Y338499D01*
X172999D01*
X173498Y337999D01*
Y337499D01*
X172999Y337000D01*
X172499D01*
X172999D01*
X173498Y336500D01*
Y336000D01*
X172999Y335500D01*
X171999D01*
X171499Y336000D01*
X174498Y337999D02*
X174998Y338499D01*
X175998D01*
X176497Y337999D01*
Y337499D01*
X175998Y337000D01*
X175498D01*
X175998D01*
X176497Y336500D01*
Y336000D01*
X175998Y335500D01*
X174998D01*
X174498Y336000D01*
X214500Y335500D02*
Y338499D01*
X216000D01*
X216499Y337999D01*
Y337000D01*
X216000Y336500D01*
X214500D01*
X215500D02*
X216499Y335500D01*
X217499Y337999D02*
X217999Y338499D01*
X218999D01*
X219498Y337999D01*
Y337499D01*
X218999Y337000D01*
X218499D01*
X218999D01*
X219498Y336500D01*
Y336000D01*
X218999Y335500D01*
X217999D01*
X217499Y336000D01*
X221998Y335500D02*
Y338499D01*
X220498Y337000D01*
X222497D01*
X42000Y37000D02*
Y39999D01*
X43499D01*
X43999Y39499D01*
Y38500D01*
X43499Y38000D01*
X42000D01*
X43000D02*
X43999Y37000D01*
X44999Y39499D02*
X45499Y39999D01*
X46499D01*
X46998Y39499D01*
Y38999D01*
X46499Y38500D01*
X45999D01*
X46499D01*
X46998Y38000D01*
Y37500D01*
X46499Y37000D01*
X45499D01*
X44999Y37500D01*
X49997Y39999D02*
X47998D01*
Y38500D01*
X48998Y38999D01*
X49498D01*
X49997Y38500D01*
Y37500D01*
X49498Y37000D01*
X48498D01*
X47998Y37500D01*
X68000Y37000D02*
Y39999D01*
X69499D01*
X69999Y39499D01*
Y38500D01*
X69499Y38000D01*
X68000D01*
X69000D02*
X69999Y37000D01*
X70999Y39499D02*
X71499Y39999D01*
X72499D01*
X72998Y39499D01*
Y38999D01*
X72499Y38500D01*
X71999D01*
X72499D01*
X72998Y38000D01*
Y37500D01*
X72499Y37000D01*
X71499D01*
X70999Y37500D01*
X75997Y39999D02*
X74998Y39499D01*
X73998Y38500D01*
Y37500D01*
X74498Y37000D01*
X75498D01*
X75997Y37500D01*
Y38000D01*
X75498Y38500D01*
X73998D01*
X33000Y55000D02*
Y57999D01*
X34499D01*
X34999Y57499D01*
Y56499D01*
X34499Y56000D01*
X33000D01*
X34000D02*
X34999Y55000D01*
X35999Y57499D02*
X36499Y57999D01*
X37499D01*
X37998Y57499D01*
Y56999D01*
X37499Y56499D01*
X36999D01*
X37499D01*
X37998Y56000D01*
Y55500D01*
X37499Y55000D01*
X36499D01*
X35999Y55500D01*
X38998Y57999D02*
X40997D01*
Y57499D01*
X38998Y55500D01*
Y55000D01*
X79000D02*
Y57999D01*
X80500D01*
X80999Y57499D01*
Y56499D01*
X80500Y56000D01*
X79000D01*
X80000D02*
X80999Y55000D01*
X81999Y57499D02*
X82499Y57999D01*
X83499D01*
X83998Y57499D01*
Y56999D01*
X83499Y56499D01*
X82999D01*
X83499D01*
X83998Y56000D01*
Y55500D01*
X83499Y55000D01*
X82499D01*
X81999Y55500D01*
X84998Y57499D02*
X85498Y57999D01*
X86498D01*
X86997Y57499D01*
Y56999D01*
X86498Y56499D01*
X86997Y56000D01*
Y55500D01*
X86498Y55000D01*
X85498D01*
X84998Y55500D01*
Y56000D01*
X85498Y56499D01*
X84998Y56999D01*
Y57499D01*
X85498Y56499D02*
X86498D01*
X33000Y66000D02*
Y68999D01*
X34499D01*
X34999Y68499D01*
Y67500D01*
X34499Y67000D01*
X33000D01*
X34000D02*
X34999Y66000D01*
X35999Y68499D02*
X36499Y68999D01*
X37499D01*
X37998Y68499D01*
Y67999D01*
X37499Y67500D01*
X36999D01*
X37499D01*
X37998Y67000D01*
Y66500D01*
X37499Y66000D01*
X36499D01*
X35999Y66500D01*
X38998D02*
X39498Y66000D01*
X40498D01*
X40997Y66500D01*
Y68499D01*
X40498Y68999D01*
X39498D01*
X38998Y68499D01*
Y67999D01*
X39498Y67500D01*
X40997D01*
X79000Y65000D02*
Y67999D01*
X80500D01*
X80999Y67499D01*
Y66500D01*
X80500Y66000D01*
X79000D01*
X80000D02*
X80999Y65000D01*
X83499D02*
Y67999D01*
X81999Y66500D01*
X83998D01*
X84998Y67499D02*
X85498Y67999D01*
X86498D01*
X86997Y67499D01*
Y65500D01*
X86498Y65000D01*
X85498D01*
X84998Y65500D01*
Y67499D01*
X181000Y128500D02*
Y131499D01*
X182500D01*
X182999Y130999D01*
Y129999D01*
X182500Y129500D01*
X181000D01*
X182000D02*
X182999Y128500D01*
X185499D02*
Y131499D01*
X183999Y129999D01*
X185998D01*
X186998Y128500D02*
X187998D01*
X187498D01*
Y131499D01*
X186998Y130999D01*
X245000Y105500D02*
Y108499D01*
X246499D01*
X246999Y107999D01*
Y107000D01*
X246499Y106500D01*
X245000D01*
X246000D02*
X246999Y105500D01*
X249499D02*
Y108499D01*
X247999Y107000D01*
X249998D01*
X252997Y105500D02*
X250998D01*
X252997Y107499D01*
Y107999D01*
X252498Y108499D01*
X251498D01*
X250998Y107999D01*
X181000Y147500D02*
Y150499D01*
X182500D01*
X182999Y149999D01*
Y149000D01*
X182500Y148500D01*
X181000D01*
X182000D02*
X182999Y147500D01*
X185499D02*
Y150499D01*
X183999Y149000D01*
X185998D01*
X186998Y149999D02*
X187498Y150499D01*
X188498D01*
X188997Y149999D01*
Y149499D01*
X188498Y149000D01*
X187998D01*
X188498D01*
X188997Y148500D01*
Y148000D01*
X188498Y147500D01*
X187498D01*
X186998Y148000D01*
X175000Y76500D02*
Y79499D01*
X176499D01*
X176999Y78999D01*
Y78000D01*
X176499Y77500D01*
X175000D01*
X176000D02*
X176999Y76500D01*
X179499D02*
Y79499D01*
X177999Y78000D01*
X179998D01*
X182498Y76500D02*
Y79499D01*
X180998Y78000D01*
X182997D01*
X235500Y105500D02*
Y108499D01*
X237000D01*
X237499Y107999D01*
Y107000D01*
X237000Y106500D01*
X235500D01*
X236500D02*
X237499Y105500D01*
X239999D02*
Y108499D01*
X238499Y107000D01*
X240498D01*
X243497Y108499D02*
X241498D01*
Y107000D01*
X242498Y107499D01*
X242998D01*
X243497Y107000D01*
Y106000D01*
X242998Y105500D01*
X241998D01*
X241498Y106000D01*
X236500Y85500D02*
Y88499D01*
X238000D01*
X238499Y87999D01*
Y86999D01*
X238000Y86500D01*
X236500D01*
X237500D02*
X238499Y85500D01*
X240999D02*
Y88499D01*
X239499Y86999D01*
X241498D01*
X244497Y88499D02*
X243498Y87999D01*
X242498Y86999D01*
Y86000D01*
X242998Y85500D01*
X243998D01*
X244497Y86000D01*
Y86500D01*
X243998Y86999D01*
X242498D01*
X135000Y102000D02*
Y104999D01*
X136500D01*
X136999Y104499D01*
Y103499D01*
X136500Y103000D01*
X135000D01*
X136000D02*
X136999Y102000D01*
X139499D02*
Y104999D01*
X137999Y103499D01*
X139998D01*
X140998Y104999D02*
X142997D01*
Y104499D01*
X140998Y102500D01*
Y102000D01*
X135000Y140000D02*
Y142999D01*
X136500D01*
X136999Y142499D01*
Y141499D01*
X136500Y141000D01*
X135000D01*
X136000D02*
X136999Y140000D01*
X139499D02*
Y142999D01*
X137999Y141499D01*
X139998D01*
X140998Y142499D02*
X141498Y142999D01*
X142498D01*
X142997Y142499D01*
Y141999D01*
X142498Y141499D01*
X142997Y141000D01*
Y140500D01*
X142498Y140000D01*
X141498D01*
X140998Y140500D01*
Y141000D01*
X141498Y141499D01*
X140998Y141999D01*
Y142499D01*
X141498Y141499D02*
X142498D01*
X54000Y272000D02*
Y274999D01*
X55500D01*
X55999Y274499D01*
Y273499D01*
X55500Y273000D01*
X54000D01*
X55000D02*
X55999Y272000D01*
X58499D02*
Y274999D01*
X56999Y273499D01*
X58998D01*
X59998Y272500D02*
X60498Y272000D01*
X61498D01*
X61997Y272500D01*
Y274499D01*
X61498Y274999D01*
X60498D01*
X59998Y274499D01*
Y273999D01*
X60498Y273499D01*
X61997D01*
X44000Y272000D02*
Y274999D01*
X45500D01*
X45999Y274499D01*
Y273499D01*
X45500Y273000D01*
X44000D01*
X45000D02*
X45999Y272000D01*
X48998Y274999D02*
X46999D01*
Y273499D01*
X47999Y273999D01*
X48499D01*
X48998Y273499D01*
Y272500D01*
X48499Y272000D01*
X47499D01*
X46999Y272500D01*
X49998Y274499D02*
X50498Y274999D01*
X51498D01*
X51997Y274499D01*
Y272500D01*
X51498Y272000D01*
X50498D01*
X49998Y272500D01*
Y274499D01*
X136000Y132000D02*
Y134999D01*
X137499D01*
X137999Y134499D01*
Y133500D01*
X137499Y133000D01*
X136000D01*
X137000D02*
X137999Y132000D01*
X140998Y134999D02*
X138999D01*
Y133500D01*
X139999Y133999D01*
X140499D01*
X140998Y133500D01*
Y132500D01*
X140499Y132000D01*
X139499D01*
X138999Y132500D01*
X141998Y132000D02*
X142998D01*
X142498D01*
Y134999D01*
X141998Y134499D01*
X135000Y94000D02*
Y96999D01*
X136500D01*
X136999Y96499D01*
Y95499D01*
X136500Y95000D01*
X135000D01*
X136000D02*
X136999Y94000D01*
X139998Y96999D02*
X137999D01*
Y95499D01*
X138999Y95999D01*
X139499D01*
X139998Y95499D01*
Y94500D01*
X139499Y94000D01*
X138499D01*
X137999Y94500D01*
X142997Y94000D02*
X140998D01*
X142997Y95999D01*
Y96499D01*
X142498Y96999D01*
X141498D01*
X140998Y96499D01*
X102500Y278469D02*
Y281468D01*
X103999D01*
X104499Y280968D01*
Y279968D01*
X103999Y279468D01*
X102500D01*
X103500D02*
X104499Y278469D01*
X107498Y281468D02*
X105499D01*
Y279968D01*
X106499Y280468D01*
X106999D01*
X107498Y279968D01*
Y278968D01*
X106999Y278469D01*
X105999D01*
X105499Y278968D01*
X108498Y280968D02*
X108998Y281468D01*
X109998D01*
X110497Y280968D01*
Y280468D01*
X109998Y279968D01*
X109498D01*
X109998D01*
X110497Y279468D01*
Y278968D01*
X109998Y278469D01*
X108998D01*
X108498Y278968D01*
X78000Y267000D02*
Y269999D01*
X79500D01*
X79999Y269499D01*
Y268499D01*
X79500Y268000D01*
X78000D01*
X79000D02*
X79999Y267000D01*
X82998Y269999D02*
X80999D01*
Y268499D01*
X81999Y268999D01*
X82499D01*
X82998Y268499D01*
Y267500D01*
X82499Y267000D01*
X81499D01*
X80999Y267500D01*
X85498Y267000D02*
Y269999D01*
X83998Y268499D01*
X85997D01*
X65000Y305000D02*
Y307999D01*
X66500D01*
X66999Y307499D01*
Y306500D01*
X66500Y306000D01*
X65000D01*
X66000D02*
X66999Y305000D01*
X69998Y307999D02*
X67999D01*
Y306500D01*
X68999Y306999D01*
X69499D01*
X69998Y306500D01*
Y305500D01*
X69499Y305000D01*
X68499D01*
X67999Y305500D01*
X72997Y307999D02*
X70998D01*
Y306500D01*
X71998Y306999D01*
X72498D01*
X72997Y306500D01*
Y305500D01*
X72498Y305000D01*
X71498D01*
X70998Y305500D01*
X94500Y344000D02*
Y346999D01*
X95999D01*
X96499Y346499D01*
Y345499D01*
X95999Y345000D01*
X94500D01*
X95500D02*
X96499Y344000D01*
X99498Y346999D02*
X97499D01*
Y345499D01*
X98499Y345999D01*
X98999D01*
X99498Y345499D01*
Y344500D01*
X98999Y344000D01*
X97999D01*
X97499Y344500D01*
X102497Y346999D02*
X101498Y346499D01*
X100498Y345499D01*
Y344500D01*
X100998Y344000D01*
X101998D01*
X102497Y344500D01*
Y345000D01*
X101998Y345499D01*
X100498D01*
X76500Y305000D02*
Y307999D01*
X78000D01*
X78499Y307499D01*
Y306500D01*
X78000Y306000D01*
X76500D01*
X77500D02*
X78499Y305000D01*
X81498Y307999D02*
X79499D01*
Y306500D01*
X80499Y306999D01*
X80999D01*
X81498Y306500D01*
Y305500D01*
X80999Y305000D01*
X79999D01*
X79499Y305500D01*
X82498Y307999D02*
X84497D01*
Y307499D01*
X82498Y305500D01*
Y305000D01*
X92500Y214500D02*
Y217499D01*
X93999D01*
X94499Y216999D01*
Y216000D01*
X93999Y215500D01*
X92500D01*
X93500D02*
X94499Y214500D01*
X97498Y217499D02*
X95499D01*
Y216000D01*
X96499Y216499D01*
X96999D01*
X97498Y216000D01*
Y215000D01*
X96999Y214500D01*
X95999D01*
X95499Y215000D01*
X98498D02*
X98998Y214500D01*
X99998D01*
X100497Y215000D01*
Y216999D01*
X99998Y217499D01*
X98998D01*
X98498Y216999D01*
Y216499D01*
X98998Y216000D01*
X100497D01*
X319000Y373000D02*
Y375999D01*
X320499D01*
X320999Y375499D01*
Y374500D01*
X320499Y374000D01*
X319000D01*
X320000D02*
X320999Y373000D01*
X321999Y375999D02*
Y373000D01*
X323998D01*
X324998Y375999D02*
Y375499D01*
X325998Y374500D01*
X326997Y375499D01*
Y375999D01*
X325998Y374500D02*
Y373000D01*
X327997D02*
X328997D01*
X328497D01*
Y375999D01*
X327997Y375499D01*
X320000Y303000D02*
Y305999D01*
X321499D01*
X321999Y305499D01*
Y304500D01*
X321499Y304000D01*
X320000D01*
X321000D02*
X321999Y303000D01*
X322999Y305999D02*
Y303000D01*
X324998D01*
X325998Y305999D02*
Y305499D01*
X326998Y304500D01*
X327997Y305499D01*
Y305999D01*
X326998Y304500D02*
Y303000D01*
X330996D02*
X328997D01*
X330996Y304999D01*
Y305499D01*
X330497Y305999D01*
X329497D01*
X328997Y305499D01*
X117500Y185999D02*
Y183500D01*
X118000Y183000D01*
X119000D01*
X119499Y183500D01*
Y185999D01*
X120499Y183000D02*
X121499D01*
X120999D01*
Y185999D01*
X120499Y185499D01*
X211000Y141499D02*
Y139000D01*
X211500Y138500D01*
X212499D01*
X212999Y139000D01*
Y141499D01*
X215998Y138500D02*
X213999D01*
X215998Y140499D01*
Y140999D01*
X215498Y141499D01*
X214499D01*
X213999Y140999D01*
X110000Y122999D02*
Y120500D01*
X110500Y120000D01*
X111500D01*
X111999Y120500D01*
Y122999D01*
X112999Y122499D02*
X113499Y122999D01*
X114499D01*
X114998Y122499D01*
Y121999D01*
X114499Y121500D01*
X113999D01*
X114499D01*
X114998Y121000D01*
Y120500D01*
X114499Y120000D01*
X113499D01*
X112999Y120500D01*
X223000Y301499D02*
Y299000D01*
X223500Y298500D01*
X224500D01*
X224999Y299000D01*
Y301499D01*
X227499Y298500D02*
Y301499D01*
X225999Y299999D01*
X227998D01*
X248500Y65499D02*
Y63000D01*
X249000Y62500D01*
X249999D01*
X250499Y63000D01*
Y65499D01*
X253498D02*
X251499D01*
Y63999D01*
X252499Y64499D01*
X252998D01*
X253498Y63999D01*
Y63000D01*
X252998Y62500D01*
X251999D01*
X251499Y63000D01*
X95000Y308999D02*
Y306500D01*
X95500Y306000D01*
X96500D01*
X96999Y306500D01*
Y308999D01*
X99998D02*
X98999Y308499D01*
X97999Y307500D01*
Y306500D01*
X98499Y306000D01*
X99499D01*
X99998Y306500D01*
Y307000D01*
X99499Y307500D01*
X97999D01*
X75000Y282999D02*
Y280500D01*
X75500Y280000D01*
X76499D01*
X76999Y280500D01*
Y282999D01*
X77999D02*
X79998D01*
Y282499D01*
X77999Y280500D01*
Y280000D01*
X155000Y200000D02*
Y202999D01*
X156500D01*
X156999Y202499D01*
Y201500D01*
X156500Y201000D01*
X155000D01*
X157999Y202499D02*
X158499Y202999D01*
X159499D01*
X159998Y202499D01*
Y201999D01*
X159499Y201500D01*
X158999D01*
X159499D01*
X159998Y201000D01*
Y200500D01*
X159499Y200000D01*
X158499D01*
X157999Y200500D01*
X114000Y217499D02*
Y214500D01*
X115999D01*
X116999D02*
X117999D01*
X117499D01*
Y217499D01*
X116999Y216999D01*
X171500Y171500D02*
Y174499D01*
X173000D01*
X173499Y173999D01*
Y173000D01*
X173000Y172500D01*
X171500D01*
X172500D02*
X173499Y171500D01*
X176498Y174499D02*
X174499D01*
Y173000D01*
X175499Y173499D01*
X175999D01*
X176498Y173000D01*
Y172000D01*
X175999Y171500D01*
X174999D01*
X174499Y172000D01*
X177498Y173999D02*
X177998Y174499D01*
X178998D01*
X179497Y173999D01*
Y173499D01*
X178998Y173000D01*
X179497Y172500D01*
Y172000D01*
X178998Y171500D01*
X177998D01*
X177498Y172000D01*
Y172500D01*
X177998Y173000D01*
X177498Y173499D01*
Y173999D01*
X177998Y173000D02*
X178998D01*
X84500Y199499D02*
Y198999D01*
X85500Y198000D01*
X86499Y198999D01*
Y199499D01*
X85500Y198000D02*
Y196500D01*
X87499D02*
X88499D01*
X87999D01*
Y199499D01*
X87499Y198999D01*
X73500Y148000D02*
Y150999D01*
X74999D01*
X75499Y150499D01*
Y149499D01*
X74999Y149000D01*
X73500D01*
X77999Y148000D02*
Y150999D01*
X76499Y149499D01*
X78498D01*
D55*
X-9401Y186053D02*
Y188052D01*
Y187053D01*
X-15399D01*
X-14399Y186053D01*
Y191051D02*
X-15399Y192051D01*
Y194050D01*
X-14399Y195050D01*
X-10401D01*
X-9401Y194050D01*
Y192051D01*
X-10401Y191051D01*
X-14399D01*
X-15399Y201048D02*
X-14399Y199049D01*
X-12400Y197049D01*
X-10401D01*
X-9401Y198049D01*
Y200048D01*
X-10401Y201048D01*
X-11400D01*
X-12400Y200048D01*
Y197049D01*
X-9401Y203047D02*
X-10401D01*
Y204047D01*
X-9401D01*
Y203047D01*
X-15399Y212044D02*
Y208046D01*
X-12400D01*
X-13400Y210045D01*
Y211045D01*
X-12400Y212044D01*
X-10401D01*
X-9401Y211045D01*
Y209045D01*
X-10401Y208046D01*
X-14399Y214044D02*
X-15399Y215043D01*
Y217043D01*
X-14399Y218042D01*
X-10401D01*
X-9401Y217043D01*
Y215043D01*
X-10401Y214044D01*
X-14399D01*
X-9401Y220042D02*
X-13400D01*
Y221041D01*
X-12400Y222041D01*
X-9401D01*
X-12400D01*
X-13400Y223041D01*
X-12400Y224041D01*
X-9401D01*
Y226040D02*
X-13400D01*
Y227040D01*
X-12400Y228039D01*
X-9401D01*
X-12400D01*
X-13400Y229039D01*
X-12400Y230039D01*
X-9401D01*
X176907Y424401D02*
X178906D01*
X177907D01*
Y430399D01*
X176907Y429399D01*
X181905D02*
X182905Y430399D01*
X184904D01*
X185904Y429399D01*
Y425401D01*
X184904Y424401D01*
X182905D01*
X181905Y425401D01*
Y429399D01*
X187903Y424401D02*
X189903D01*
X188903D01*
Y430399D01*
X187903Y429399D01*
X192902Y424401D02*
Y425401D01*
X193901D01*
Y424401D01*
X192902D01*
X201899Y430399D02*
X199899Y429399D01*
X197900Y427400D01*
Y425401D01*
X198900Y424401D01*
X200899D01*
X201899Y425401D01*
Y426400D01*
X200899Y427400D01*
X197900D01*
X203898Y429399D02*
X204898Y430399D01*
X206897D01*
X207897Y429399D01*
Y425401D01*
X206897Y424401D01*
X204898D01*
X203898Y425401D01*
Y429399D01*
X209896Y424401D02*
Y428400D01*
X210896D01*
X211896Y427400D01*
Y424401D01*
Y427400D01*
X212895Y428400D01*
X213895Y427400D01*
Y424401D01*
X215894D02*
Y428400D01*
X216894D01*
X217894Y427400D01*
Y424401D01*
Y427400D01*
X218893Y428400D01*
X219893Y427400D01*
Y424401D01*
M02*
