%FSLAX25Y25*%
%MOIN*%
G70*
G01*
G75*
G04 Layer_Color=16711935*
%ADD10C,0.01000*%
%ADD11R,0.10799X0.08500*%
%ADD12O,0.02756X0.07480*%
%ADD13O,0.02756X0.08268*%
%ADD14O,0.07874X0.13780*%
%ADD15R,0.07087X0.10236*%
%ADD16R,0.04921X0.02756*%
%ADD17R,0.02756X0.04921*%
%ADD18R,0.07087X0.04449*%
%ADD19R,0.04449X0.07087*%
%ADD20R,0.10512X0.04724*%
%ADD21O,0.02756X0.07087*%
%ADD22R,0.01654X0.03937*%
%ADD23R,0.04921X0.13465*%
%ADD24R,0.03661X0.03858*%
%ADD25R,0.03858X0.03661*%
%ADD26O,0.07087X0.01102*%
%ADD27O,0.01102X0.07087*%
%ADD28R,0.10709X0.04567*%
%ADD29C,0.03937*%
%ADD30R,0.02362X0.05906*%
%ADD31R,0.07874X0.07874*%
%ADD32C,0.03150*%
%ADD33C,0.01969*%
%ADD34C,0.01181*%
%ADD35C,0.04724*%
%ADD36R,0.20500X1.22000*%
%ADD37R,0.44000X0.15500*%
%ADD38R,0.15000X0.07000*%
%ADD39R,0.23000X0.15000*%
%ADD40R,0.25000X0.15000*%
%ADD41C,0.05906*%
%ADD42C,0.12598*%
%ADD43O,0.10236X0.11811*%
%ADD44O,0.10236X0.11024*%
%ADD45C,0.07087*%
%ADD46C,0.11811*%
%ADD47R,0.05906X0.05906*%
%ADD48C,0.03000*%
%ADD49C,0.04000*%
%ADD50C,0.02756*%
%ADD51C,0.01575*%
%ADD52C,0.00984*%
%ADD53C,0.00787*%
%ADD54C,0.00500*%
%ADD55C,0.00600*%
%ADD56R,0.11599X0.09300*%
%ADD57O,0.03556X0.08280*%
%ADD58O,0.03556X0.09068*%
%ADD59O,0.08674X0.14579*%
%ADD60R,0.07887X0.11036*%
%ADD61R,0.05721X0.03556*%
%ADD62R,0.03556X0.05721*%
%ADD63R,0.07887X0.05249*%
%ADD64R,0.05249X0.07887*%
%ADD65R,0.11312X0.05524*%
%ADD66O,0.03556X0.07887*%
%ADD67R,0.02054X0.04337*%
%ADD68R,0.05721X0.14265*%
%ADD69R,0.04461X0.04658*%
%ADD70R,0.04658X0.04461*%
%ADD71O,0.07487X0.01502*%
%ADD72O,0.01502X0.07487*%
%ADD73R,0.11509X0.05367*%
%ADD74C,0.04737*%
%ADD75R,0.03162X0.06706*%
%ADD76R,0.08674X0.08674*%
%ADD77C,0.06706*%
%ADD78C,0.13398*%
%ADD79O,0.11036X0.12611*%
%ADD80O,0.11036X0.11824*%
%ADD81C,0.07887*%
%ADD82C,0.12611*%
%ADD83R,0.06706X0.06706*%
D77*
X379921Y373169D02*
D03*
Y363091D02*
D03*
Y353012D02*
D03*
Y333425D02*
D03*
Y323346D02*
D03*
Y313268D02*
D03*
Y303189D02*
D03*
Y283602D02*
D03*
Y273524D02*
D03*
Y263445D02*
D03*
Y46122D02*
D03*
Y56201D02*
D03*
Y66280D02*
D03*
Y85866D02*
D03*
Y95945D02*
D03*
Y106024D02*
D03*
Y116102D02*
D03*
Y135689D02*
D03*
Y145768D02*
D03*
Y155846D02*
D03*
X158000Y192000D02*
D03*
Y182000D02*
D03*
Y172000D02*
D03*
Y162000D02*
D03*
X66500Y139500D02*
D03*
Y129500D02*
D03*
Y119500D02*
D03*
D78*
X365748Y285827D02*
D03*
Y266142D02*
D03*
Y350787D02*
D03*
Y370472D02*
D03*
Y153150D02*
D03*
Y133465D02*
D03*
Y48819D02*
D03*
Y68504D02*
D03*
D79*
X260000Y248000D02*
D03*
Y299181D02*
D03*
Y370181D02*
D03*
Y319000D02*
D03*
D80*
Y266898D02*
D03*
Y280283D02*
D03*
Y351283D02*
D03*
Y337898D02*
D03*
D81*
X275748Y299181D02*
D03*
Y280283D02*
D03*
Y248000D02*
D03*
Y266898D02*
D03*
Y337898D02*
D03*
Y319000D02*
D03*
Y351283D02*
D03*
Y370181D02*
D03*
X199157Y97000D02*
D03*
X218843D02*
D03*
D82*
X308819Y289732D02*
D03*
Y257449D02*
D03*
Y328449D02*
D03*
Y360732D02*
D03*
D83*
X158000Y152000D02*
D03*
X66500Y149500D02*
D03*
M02*
